<?xml version="1.0" encoding="UTF-8" standalone="no"?>
<!-- Generator: Adobe Illustrator 26.0.3, SVG Export Plug-In . SVG Version: 6.00 Build 0)  -->

<svg
   version="1.1"
   id="svg1957"
   inkscape:export-filename="moa-schablone-50.svg"
   x="0px"
   y="0px"
   viewBox="0 0 354382.1 708795.6"
   xml:space="preserve"
   sodipodi:docname="moa-schablone-50.svg"
   inkscape:version="1.2.2 (b0a8486541, 2022-12-01)"
   width="354382.09"
   height="708795.62"
   xmlns:inkscape="http://www.inkscape.org/namespaces/inkscape"
   xmlns:sodipodi="http://sodipodi.sourceforge.net/DTD/sodipodi-0.dtd"
   xmlns="http://www.w3.org/2000/svg"
   xmlns:svg="http://www.w3.org/2000/svg">
<style
   type="text/css"
   id="style2">
	.st0{fill:none;stroke:#000000;stroke-width:3;stroke-miterlimit:11.3386;}
	.st1{fill:none;stroke:#FF0000;stroke-width:1.000000e-03;stroke-miterlimit:11.3386;}
	.st2{fill:none;stroke:#FF0000;stroke-width:1.000000e-03;stroke-miterlimit:10;}
	.st3{fill:none;stroke:#FF0000;stroke-width:1.000000e-02;stroke-miterlimit:11.3386;}
	.st4{fill:none;stroke:#000000;stroke-width:2;stroke-miterlimit:11.3386;}
	.st5{stroke:#000000;stroke-width:0.25;stroke-miterlimit:10;}
</style>
<sodipodi:namedview
   bordercolor="#666666"
   borderopacity="1.0"
   id="namedview1959"
   inkscape:current-layer="svg1957"
   inkscape:cx="158.01576"
   inkscape:cy="195.04571"
   inkscape:deskcolor="#d1d1d1"
   inkscape:document-units="mm"
   inkscape:pagecheckerboard="0"
   inkscape:pageopacity="0.0"
   inkscape:showpageshadow="2"
   inkscape:window-height="736"
   inkscape:window-maximized="0"
   inkscape:window-width="1516"
   inkscape:window-x="163"
   inkscape:window-y="66"
   inkscape:zoom="1.5662995"
   pagecolor="#ffffff"
   showgrid="true">
	<inkscape:grid
   id="grid3184"
   originx="0"
   originy="0"
   spacingx="1"
   spacingy="1"
   type="xygrid"
   units="mm"
   visible="true">
		</inkscape:grid>
</sodipodi:namedview>
<defs
   id="defs8"><inkscape:path-effect
     border_marks="both"
     effect="ruler"
     id="path-effect2904"
     is_visible="true"
     lpeversion="1"
     major_mark_steps="5"
     mark_dir="both"
     mark_distance="0.2"
     mark_length="0.2"
     minor_mark_length="0.1"
     offset="0"
     shift="0"
     unit="in">
		</inkscape:path-effect><inkscape:path-effect
     border_marks="both"
     effect="ruler"
     id="path-effect2898"
     is_visible="true"
     lpeversion="1"
     major_mark_steps="2"
     mark_dir="both"
     mark_distance="0.5"
     mark_length="0.5"
     minor_mark_length="0.3"
     offset="0"
     shift="0"
     unit="cm">
		</inkscape:path-effect></defs>
<path
   id="text113"
   inkscape:label="text113"
   d="M 273.5,55.8 H 270 l -1.8,9 -1.7,-9 H 263 v 20.5 h 2.5 V 59.9 l 1.6,9 h 2.3 l 1.6,-9 v 16.4 h 2.5 V 55.8 Z m -17.3,3.3 c 0.7,0 1.3,0.6 1.6,1.7 0.3,1.1 0.5,2.9 0.5,5.3 0,2.5 -0.2,4.2 -0.5,5.3 -0.3,1.1 -0.9,1.6 -1.6,1.6 -0.7,0 -1.3,-0.5 -1.6,-1.6 -0.3,-1.1 -0.5,-2.9 -0.5,-5.3 0,-2.5 0.2,-4.2 0.5,-5.3 0.3,-1.2 0.8,-1.7 1.6,-1.7 z m 5.1,7 c 0,-3.5 -0.4,-6.2 -1.3,-7.9 -0.9,-1.8 -2.2,-2.7 -3.9,-2.7 -1.7,0 -3,0.9 -3.9,2.7 -0.9,1.8 -1.3,4.4 -1.3,7.9 0,3.5 0.4,6.1 1.3,7.9 0.9,1.8 2.2,2.7 3.9,2.7 1.7,0 3,-0.9 3.9,-2.7 0.9,-1.8 1.3,-4.4 1.3,-7.9 z m -17.2,-6.6 1.4,8.4 h -2.7 z m 1.7,-3.7 h -3.5 l -4,20.5 h 2.9 l 0.9,-5.1 h 3.9 l 0.9,5.1 h 2.9 z m -21.8,0 h -8 v 3.6 h 5.6 v 3.8 c -0.2,-0.1 -0.5,-0.2 -0.8,-0.3 -0.3,-0.1 -0.6,-0.1 -0.9,-0.1 -1.5,0 -2.6,0.6 -3.5,1.9 -0.9,1.3 -1.4,2.9 -1.4,5 0,2.2 0.5,3.9 1.5,5.1 1,1.2 2.3,1.9 4,1.9 0.6,0 1.3,-0.1 1.9,-0.2 0.6,-0.1 1.3,-0.4 2,-0.7 v -3.7 c -0.5,0.4 -1.1,0.7 -1.7,0.9 -0.6,0.2 -1.2,0.3 -1.7,0.3 -1,0 -1.8,-0.3 -2.3,-0.9 -0.5,-0.6 -0.8,-1.5 -0.8,-2.7 0,-1.1 0.3,-1.9 0.8,-2.6 0.5,-0.6 1.2,-1 2.1,-1 0.5,0 1,0.1 1.6,0.3 0.5,0.2 1,0.4 1.6,0.8 z m -15.1,10.3 c 0,-0.5 -0.1,-0.9 -0.4,-1.2 -0.2,-0.3 -0.5,-0.5 -0.9,-0.5 -0.3,0 -0.6,0.2 -0.9,0.5 -0.2,0.3 -0.4,0.7 -0.4,1.2 0,0.5 0.1,0.9 0.4,1.2 0.2,0.3 0.5,0.5 0.9,0.5 0.3,0 0.6,-0.2 0.9,-0.5 0.3,-0.3 0.4,-0.7 0.4,-1.2 z m -1.2,-7.2 c 0.7,0 1.2,0.6 1.5,1.7 0.3,1.1 0.5,3 0.5,5.5 0,2.5 -0.2,4.3 -0.5,5.5 -0.3,1.1 -0.8,1.7 -1.5,1.7 -0.7,0 -1.2,-0.6 -1.5,-1.7 -0.3,-1.1 -0.5,-3 -0.5,-5.5 0,-2.5 0.2,-4.3 0.5,-5.5 0.3,-1.2 0.8,-1.7 1.5,-1.7 z m 4.8,7.2 c 0,-3.6 -0.4,-6.2 -1.2,-8 -0.8,-1.8 -2,-2.7 -3.6,-2.7 -1.6,0 -2.8,0.9 -3.6,2.6 -0.8,1.8 -1.2,4.4 -1.2,8 0,3.6 0.4,6.2 1.2,8 0.8,1.8 2,2.6 3.6,2.6 1.6,0 2.8,-0.9 3.6,-2.6 0.8,-1.7 1.2,-4.4 1.2,-7.9 z m -17.7,-3.6 c -0.2,-0.6 -0.5,-1.1 -0.8,-1.4 -0.3,-0.3 -0.7,-0.5 -1.2,-0.5 -1,0 -1.6,0.5 -2,1.4 -0.4,0.9 -0.6,2.8 -0.6,5.7 v 8.7 h 2.4 v -9.9 c 0,-1.1 0.1,-1.9 0.2,-2.3 0.1,-0.4 0.4,-0.6 0.7,-0.6 0.3,0 0.6,0.2 0.7,0.6 0.1,0.4 0.2,1.2 0.2,2.3 v 9.9 h 2.3 v -9.9 c 0,-1.1 0.1,-1.9 0.2,-2.3 0.1,-0.4 0.4,-0.6 0.7,-0.6 0.3,0 0.6,0.2 0.7,0.6 0.1,0.4 0.2,1.1 0.2,2.3 v 9.9 h 2.4 V 60.9 h -2.1 v 1.6 c -0.2,-0.6 -0.4,-1.1 -0.8,-1.4 -0.4,-0.4 -0.8,-0.5 -1.2,-0.5 -0.4,0 -0.9,0.2 -1.2,0.6 -0.5,0.3 -0.7,0.7 -0.8,1.3 z" />
<g
   id="g4"
   style="stroke-width:1.33333;stroke-dasharray:none">
	<circle
   id="path1056"
   class="st0"
   cx="232"
   cy="205.60001"
   style="stroke-width:1.33333;stroke-dasharray:none"
   r="102.8" />
	<circle
   id="path2510"
   class="st0"
   cx="232"
   cy="205.60001"
   r="82.199997"
   style="stroke-width:1.33333;stroke-dasharray:none" />
	<circle
   id="path3238"
   class="st0"
   cx="232"
   cy="204.60001"
   style="stroke-width:1.33333;stroke-dasharray:none"
   r="61.599998" />
	<circle
   id="path4692"
   class="st0"
   cx="232.39999"
   cy="205.89999"
   style="stroke-width:1.33333;stroke-dasharray:none"
   r="40.900002" />
	<circle
   id="path7598"
   class="st0"
   cx="232.2"
   cy="206.10001"
   r="20.299999"
   style="stroke-width:1.33333;stroke-dasharray:none" />
	<circle
   id="path7600"
   class="st0"
   cx="232.2"
   cy="206.10001"
   style="stroke-width:1.33333;stroke-dasharray:none"
   r="10" />
	<path
   id="text8330"
   d="m 237.6,205.7 c 0,-0.1 0,-0.3 -0.1,-0.4 -0.1,-0.1 -0.2,-0.2 -0.4,-0.2 -0.1,0 -0.3,0.1 -0.4,0.2 -0.1,0.1 -0.2,0.2 -0.2,0.4 0,0.1 0.1,0.3 0.2,0.4 0.1,0.1 0.2,0.2 0.4,0.2 0.1,0 0.3,0 0.4,-0.1 0,-0.2 0.1,-0.3 0.1,-0.5 z m -0.6,-2.4 c 0.4,0 0.6,0.2 0.8,0.6 0.2,0.4 0.3,1 0.3,1.8 0,0.8 -0.1,1.4 -0.3,1.8 -0.2,0.4 -0.5,0.6 -0.8,0.6 -0.4,0 -0.6,-0.2 -0.8,-0.6 -0.2,-0.4 -0.3,-1 -0.3,-1.8 0,-0.8 0.1,-1.4 0.3,-1.8 0.2,-0.4 0.5,-0.6 0.8,-0.6 z m 0,-0.6 c -0.6,0 -1.1,0.3 -1.4,0.8 -0.3,0.5 -0.5,1.3 -0.5,2.3 0,1 0.2,1.7 0.5,2.3 0.3,0.5 0.8,0.8 1.4,0.8 0.6,0 1.1,-0.3 1.4,-0.8 0.3,-0.5 0.5,-1.3 0.5,-2.3 0,-1 -0.2,-1.8 -0.5,-2.3 -0.3,-0.5 -0.7,-0.8 -1.4,-0.8 z m -4.3,4.8 h -1 v 1.2 h 1 z m -3.7,-4.7 h -3 v 0.7 h 2.2 v 1.4 c -0.1,0 -0.2,-0.1 -0.3,-0.1 -0.1,0 -0.2,0 -0.3,0 -0.6,0 -1.1,0.2 -1.4,0.5 -0.4,0.4 -0.5,0.8 -0.5,1.4 0,0.6 0.2,1.1 0.6,1.5 0.4,0.4 0.9,0.5 1.5,0.5 0.3,0 0.6,0 0.9,-0.1 0.3,0 0.5,-0.1 0.7,-0.2 v -0.8 c -0.2,0.1 -0.5,0.2 -0.7,0.3 -0.2,0.1 -0.5,0.1 -0.7,0.1 -0.4,0 -0.8,-0.1 -1,-0.3 -0.2,-0.2 -0.4,-0.6 -0.4,-1 0,-0.4 0.1,-0.7 0.4,-1 0.2,-0.2 0.6,-0.3 1,-0.3 0.2,0 0.4,0 0.6,0.1 0.2,0 0.4,0.1 0.6,0.2 z"
   style="stroke-width:1.33333;stroke-dasharray:none" />
	<path
   id="text8334"
   d="m 233.1,223.8 h -1.5 v -5.6 l 1.7,0.4 v -0.9 l -1.6,-0.4 h -1 v 6.5 h -1.5 v 0.8 h 4 z"
   style="stroke-width:1.33333;stroke-dasharray:none" />
	<path
   id="text8338"
   d="m 233.1,241 h -5.4 v 1.3 h 7.1 V 241 c -1,-1 -1.8,-1.9 -2.6,-2.7 -0.7,-0.8 -1.2,-1.3 -1.5,-1.7 -0.5,-0.6 -0.9,-1.1 -1.1,-1.5 -0.2,-0.4 -0.3,-0.8 -0.3,-1.2 0,-0.7 0.2,-1.2 0.6,-1.5 0.4,-0.4 0.9,-0.6 1.6,-0.6 0.5,0 1,0.1 1.5,0.3 0.5,0.2 1.1,0.4 1.7,0.8 v -1.6 c -0.5,-0.3 -1.1,-0.4 -1.6,-0.6 -0.5,-0.1 -1,-0.2 -1.5,-0.2 -1.1,0 -2.1,0.3 -2.8,0.9 -0.7,0.6 -1,1.4 -1,2.4 0,0.5 0.1,1 0.4,1.5 0.2,0.5 0.6,1.1 1.1,1.7 0.3,0.3 0.7,0.8 1.3,1.4 0.5,0.5 1.4,1.4 2.5,2.6 z"
   style="stroke-width:1.33333;stroke-dasharray:none" />
	<path
   id="text8342"
   d="m 230,256.1 c -0.8,0.2 -1.4,0.6 -1.8,1.1 -0.4,0.5 -0.6,1.2 -0.6,1.9 0,1.1 0.4,1.9 1.1,2.5 0.7,0.6 1.7,0.9 3,0.9 0.5,0 1.1,0 1.6,-0.1 0.6,-0.1 1.1,-0.2 1.6,-0.4 v -1.6 c -0.5,0.3 -1.1,0.5 -1.6,0.6 -0.5,0.1 -1,0.2 -1.5,0.2 -0.9,0 -1.5,-0.2 -2,-0.6 -0.5,-0.4 -0.7,-1 -0.7,-1.7 0,-0.7 0.2,-1.2 0.7,-1.6 0.5,-0.4 1.1,-0.6 1.9,-0.6 h 1.2 v -1.3 h -1.2 c -0.7,0 -1.3,-0.2 -1.7,-0.5 -0.4,-0.3 -0.6,-0.8 -0.6,-1.3 0,-0.6 0.2,-1.1 0.6,-1.4 0.4,-0.3 0.9,-0.5 1.6,-0.5 0.5,0 0.9,0.1 1.4,0.2 0.5,0.1 1,0.3 1.6,0.5 V 251 c -0.6,-0.2 -1.2,-0.3 -1.7,-0.4 -0.5,-0.1 -0.9,-0.1 -1.3,-0.1 -1.1,0 -2,0.3 -2.7,0.9 -0.7,0.6 -1,1.3 -1,2.3 0,0.6 0.2,1.2 0.5,1.6 0.4,0.4 0.9,0.7 1.6,0.8 z"
   style="stroke-width:1.33333;stroke-dasharray:none" />
	<path
   id="text8346"
   d="m 230.4,271.8 3.7,6.2 h -3.7 z m 0.3,-1.4 h -1.8 v 7.6 h -1.6 v 1.3 h 1.6 v 2.8 h 1.6 v -2.8 h 4.9 v -1.5 z"
   style="stroke-width:1.33333;stroke-dasharray:none" />
	<path
   id="text8350"
   d="m 234.7,291.7 h -5.9 v 1.3 h 4.5 v 2.9 c -0.2,-0.1 -0.4,-0.1 -0.7,-0.2 -0.2,0 -0.5,-0.1 -0.7,-0.1 -1.2,0 -2.2,0.4 -2.9,1.1 -0.7,0.7 -1.1,1.7 -1.1,2.9 0,1.2 0.4,2.2 1.1,2.9 0.7,0.7 1.8,1.1 3,1.1 0.6,0 1.2,0 1.7,-0.1 0.5,-0.1 1,-0.2 1.4,-0.4 v -1.6 c -0.5,0.3 -1,0.5 -1.4,0.6 -0.5,0.1 -1,0.2 -1.5,0.2 -0.9,0 -1.5,-0.2 -2,-0.7 -0.5,-0.5 -0.7,-1.1 -0.7,-2 0,-0.8 0.2,-1.5 0.7,-1.9 0.5,-0.5 1.2,-0.7 2,-0.7 0.4,0 0.8,0 1.2,0.1 0.4,0.1 0.8,0.2 1.1,0.4 z"
   style="stroke-width:1.33333;stroke-dasharray:none" />
</g>
<path
   id="path6408"
   inkscape:export-filename="moa-schablone-50.svg"
   inkscape:export-xdpi="600"
   inkscape:export-ydpi="600"
   class="st1"
   d="m 137.6,32.7 c -16.7,0 -30.2,13.5 -30.2,30.2 V 313 c 0,16.7 13.5,30.2 30.2,30.2 h 189.1 c 16.7,0 30.2,-13.5 30.2,-30.2 V 62.9 c 0,-16.7 -13.5,-30.2 -30.2,-30.2 z m 0,310.4 c -16.7,0 -30.2,-13.5 -30.2,-30.2 v -250 c 0,-16.7 13.5,-30.2 30.2,-30.2 v 0 h 189.1 c 16.7,0 30.2,13.5 30.2,30.2 V 313 c 0,16.7 -13.5,30.2 -30.2,30.2" />
<path
   id="path873"
   inkscape:export-filename="moa-schablone-50.svg"
   inkscape:export-xdpi="600"
   inkscape:export-ydpi="600"
   class="st2"
   d="m 135.3,308.7 c 4.7,0 8.5,3.8 8.5,8.5 0,4.7 -3.8,8.5 -8.5,8.5 -4.7,0 -8.5,-3.8 -8.5,-8.5 0,-4.7 3.9,-8.5 8.5,-8.5 z" />
<path
   id="path314"
   inkscape:export-filename="moa-schablone-50.svg"
   inkscape:export-xdpi="600"
   inkscape:export-ydpi="600"
   class="st3"
   d="m 328.1,308.7 c 4.7,0 8.5,3.8 8.5,8.5 0,4.7 -3.8,8.5 -8.5,8.5 -4.7,0 -8.5,-3.8 -8.5,-8.5 0,-4.7 3.8,-8.5 8.5,-8.5 z" />
<path
   id="path2842"
   inkscape:original-d="M 40.881976,22.751407 V 112.52864"
   inkscape:path-effect="#path-effect2898"
   class="st4"
   d="m 40.881976,22.751407 v 89.777233 m -2.5,-89.777233 h 5 m -4,5 h 3 m -4,5 h 5 m -4,5 h 3 m -4,5 h 5 m -4,5 h 3 m -4,5 h 5 m -4,5 h 3 m -4,5 h 5 m -4,5 h 3 m -4,5 h 5 m -4,5 h 3 m -4,5 h 5 m -4,5 h 3 m -4,5 h 5 m -4,5 h 3 m -4,5.000003 h 5 m -4,5 h 3 m -4,4.77723 h 5"
   style="stroke-width:1.33333;stroke-dasharray:none" />
<path
   id="text2960"
   class="st5"
   d="m 349.5,63 c 0.2,0.1 0.5,0.2 0.7,0.3 0.3,0.1 0.5,0.1 0.8,0.1 0.8,0 1.5,-0.3 2,-0.8 0.5,-0.5 0.7,-1.2 0.7,-2.1 0,-0.9 -0.2,-1.6 -0.7,-2.1 -0.5,-0.5 -1.1,-0.8 -2,-0.8 -0.3,0 -0.5,0 -0.8,0.1 -0.3,0.1 -0.5,0.2 -0.8,0.3 v 1 c 0.2,-0.2 0.5,-0.4 0.7,-0.5 0.2,-0.1 0.5,-0.1 0.8,-0.1 0.6,0 1,0.2 1.3,0.5 0.3,0.4 0.5,0.9 0.5,1.6 0,0.7 -0.2,1.2 -0.5,1.6 -0.3,0.4 -0.7,0.5 -1.3,0.5 -0.3,0 -0.6,0 -0.8,-0.1 -0.2,-0.1 -0.5,-0.2 -0.7,-0.4 V 63 Z m -4.2,-4.6 c -0.1,-0.2 -0.3,-0.4 -0.4,-0.5 -0.2,-0.1 -0.4,-0.2 -0.6,-0.2 -0.4,0 -0.7,0.2 -0.9,0.5 -0.2,0.3 -0.3,1 -0.3,1.9 v 3.2 h 0.8 v -3.1 c 0,-0.8 0,-1.2 0.1,-1.4 0.1,-0.2 0.2,-0.3 0.5,-0.3 0.3,0 0.4,0.1 0.5,0.3 0.1,0.2 0.1,0.7 0.1,1.4 v 3.1 h 0.8 v -3.1 c 0,-0.8 0,-1.3 0.1,-1.4 0.1,-0.2 0.3,-0.3 0.5,-0.3 0.2,0 0.4,0.1 0.5,0.3 0.1,0.2 0.1,0.7 0.1,1.4 v 3.1 h 0.8 v -5.5 h -0.8 v 0.5 c -0.1,-0.2 -0.2,-0.3 -0.4,-0.4 -0.2,-0.1 -0.3,-0.2 -0.6,-0.2 -0.2,0 -0.5,0.1 -0.6,0.2 0,0.1 -0.1,0.2 -0.2,0.5 z" />
<path
   id="text3150"
   d="m 346.4,99.9 h -1.2 v -4.5 l 1.3,0.3 V 95 l -1.3,-0.3 h -0.8 v 5.2 h -1.2 v 0.7 h 3.2 z" />
<path
   id="text3154"
   d="m 346,128 h -2.7 v 0.7 h 3.5 V 128 c -0.5,-0.5 -0.9,-1 -1.3,-1.4 -0.4,-0.4 -0.6,-0.7 -0.8,-0.8 -0.3,-0.3 -0.4,-0.6 -0.5,-0.8 -0.1,-0.2 -0.1,-0.4 -0.1,-0.6 0,-0.3 0.1,-0.6 0.3,-0.8 0.2,-0.2 0.5,-0.3 0.8,-0.3 0.2,0 0.5,0 0.7,0.1 0.3,0.1 0.5,0.2 0.8,0.4 V 123 c -0.3,-0.1 -0.5,-0.2 -0.8,-0.3 -0.3,-0.1 -0.5,-0.1 -0.8,-0.1 -0.6,0 -1,0.2 -1.4,0.5 -0.3,0.3 -0.5,0.7 -0.5,1.2 0,0.2 0.1,0.5 0.2,0.8 0.1,0.2 0.3,0.5 0.6,0.8 0.1,0.2 0.4,0.4 0.6,0.7 0.5,0.4 0.9,0.8 1.4,1.4 z" />
<path
   id="text3158"
   d="m 344.1,153.8 c -0.4,0.1 -0.7,0.3 -0.9,0.5 -0.2,0.3 -0.3,0.6 -0.3,1 0,0.5 0.2,1 0.5,1.3 0.4,0.3 0.9,0.5 1.5,0.5 0.3,0 0.5,0 0.8,-0.1 0.3,0 0.6,-0.1 0.8,-0.2 V 156 c -0.3,0.1 -0.5,0.2 -0.8,0.3 -0.3,0.1 -0.5,0.1 -0.8,0.1 -0.4,0 -0.8,-0.1 -1,-0.3 -0.2,-0.2 -0.3,-0.5 -0.3,-0.8 0,-0.3 0.1,-0.6 0.3,-0.8 0.2,-0.2 0.5,-0.3 0.9,-0.3 h 0.6 v -0.6 H 345 c -0.4,0 -0.6,-0.1 -0.8,-0.2 -0.2,-0.2 -0.3,-0.4 -0.3,-0.7 0,-0.3 0.1,-0.5 0.3,-0.7 0.2,-0.2 0.5,-0.2 0.8,-0.2 0.2,0 0.5,0 0.7,0.1 0.2,0.1 0.5,0.1 0.8,0.2 v -0.7 c -0.3,-0.1 -0.6,-0.1 -0.8,-0.2 -0.2,0 -0.5,-0.1 -0.7,-0.1 -0.6,0 -1,0.1 -1.4,0.4 -0.3,0.3 -0.5,0.7 -0.5,1.1 0,0.3 0.1,0.6 0.3,0.8 0.1,0.2 0.4,0.3 0.7,0.4 z" />
<path
   id="text3162"
   d="m 344.1,180 1.8,3.1 h -1.8 z m 0.1,-0.7 h -0.9 v 3.8 h -0.8 v 0.6 h 0.8 v 1.4 h 0.8 v -1.4 h 2.5 V 183 Z" />
<path
   id="text3166"
   d="m 346.3,207.9 h -3 v 0.7 h 2.2 v 1.4 c -0.1,0 -0.2,-0.1 -0.3,-0.1 -0.1,0 -0.2,0 -0.3,0 -0.6,0 -1.1,0.2 -1.4,0.5 -0.4,0.4 -0.5,0.8 -0.5,1.4 0,0.6 0.2,1.1 0.6,1.5 0.4,0.4 0.9,0.5 1.5,0.5 0.3,0 0.6,0 0.9,-0.1 0.3,0 0.5,-0.1 0.7,-0.2 v -0.8 c -0.2,0.1 -0.5,0.2 -0.7,0.3 -0.2,0.1 -0.5,0.1 -0.7,0.1 -0.4,0 -0.8,-0.1 -1,-0.3 -0.2,-0.2 -0.4,-0.6 -0.4,-1 0,-0.4 0.1,-0.7 0.4,-1 0.2,-0.2 0.6,-0.3 1,-0.3 0.2,0 0.4,0 0.6,0.1 0.2,0 0.4,0.1 0.6,0.2 v -2.9 z" />
<path
   id="text3170"
   d="m 343.1,236.4 v 0.7 c 0.2,-0.1 0.3,-0.2 0.5,-0.2 0.2,-0.1 0.4,-0.1 0.6,-0.1 0.5,0 0.9,0.2 1.1,0.6 0.3,0.4 0.4,0.9 0.4,1.7 -0.1,-0.3 -0.3,-0.5 -0.5,-0.6 -0.2,-0.1 -0.5,-0.2 -0.8,-0.2 -0.6,0 -1,0.2 -1.3,0.5 -0.3,0.3 -0.5,0.8 -0.5,1.5 0,0.6 0.2,1.1 0.5,1.5 0.3,0.3 0.8,0.5 1.3,0.5 0.7,0 1.2,-0.2 1.5,-0.7 0.3,-0.5 0.5,-1.3 0.5,-2.3 0,-1 -0.2,-1.7 -0.6,-2.2 -0.4,-0.5 -0.9,-0.8 -1.6,-0.8 -0.2,0 -0.4,0 -0.6,0.1 -0.2,-0.2 -0.3,-0.1 -0.5,0 z m 1.4,2.4 c 0.3,0 0.6,0.1 0.8,0.4 0.2,0.2 0.3,0.6 0.3,1 0,0.4 -0.1,0.8 -0.3,1 -0.2,0.2 -0.5,0.4 -0.8,0.4 -0.3,0 -0.6,-0.1 -0.8,-0.3 -0.2,-0.2 -0.3,-0.6 -0.3,-1 0,-0.5 0.1,-0.8 0.3,-1 0.2,-0.4 0.4,-0.5 0.8,-0.5 z" />
<path
   id="text3174"
   d="M 346.6,264.9 H 343 v 0.3 l 2.1,5.5 h 0.8 l -2,-5.2 h 2.8 z" />
<path
   id="text3178"
   d="m 344.9,296.3 c 0.4,0 0.6,0.1 0.8,0.3 0.2,0.2 0.3,0.5 0.3,0.8 0,0.4 -0.1,0.6 -0.3,0.8 -0.2,0.2 -0.5,0.3 -0.8,0.3 -0.4,0 -0.6,-0.1 -0.8,-0.3 -0.2,-0.2 -0.3,-0.5 -0.3,-0.8 0,-0.4 0.1,-0.6 0.3,-0.8 0.2,-0.2 0.4,-0.3 0.8,-0.3 z m 0.7,-0.4 c 0.3,-0.1 0.6,-0.2 0.8,-0.5 0.2,-0.2 0.3,-0.5 0.3,-0.8 0,-0.5 -0.2,-0.8 -0.5,-1.1 -0.3,-0.3 -0.7,-0.4 -1.3,-0.4 -0.5,0 -1,0.1 -1.3,0.4 -0.3,0.3 -0.5,0.6 -0.5,1.1 0,0.3 0.1,0.6 0.3,0.8 0.2,0.2 0.4,0.4 0.8,0.5 -0.4,0.1 -0.7,0.3 -0.9,0.5 -0.2,0.3 -0.3,0.6 -0.3,1 0,0.5 0.2,0.9 0.5,1.2 0.3,0.3 0.8,0.4 1.4,0.4 0.6,0 1.1,-0.1 1.4,-0.4 0.3,-0.3 0.5,-0.7 0.5,-1.2 0,-0.4 -0.1,-0.8 -0.3,-1 -0.3,-0.2 -0.5,-0.4 -0.9,-0.5 z m 0.2,-1.2 c 0,0.3 -0.1,0.6 -0.3,0.7 -0.2,0.2 -0.4,0.2 -0.7,0.2 -0.3,0 -0.6,-0.1 -0.7,-0.2 -0.1,-0.1 -0.2,-0.4 -0.2,-0.7 0,-0.3 0.1,-0.6 0.2,-0.7 0.2,-0.2 0.4,-0.3 0.7,-0.3 0.3,0 0.6,0.1 0.7,0.3 0.3,0.1 0.3,0.4 0.3,0.7 z" />
<path
   id="path314-2"
   inkscape:export-filename="moa-schablone-50.svg"
   inkscape:export-xdpi="600"
   inkscape:export-ydpi="600"
   class="st2"
   d="m 328.1,51.5 c 4.7,0 8.5,3.8 8.5,8.5 0,4.7 -3.8,8.5 -8.5,8.5 -4.7,0 -8.5,-3.8 -8.5,-8.5 0,-4.7 3.8,-8.5 8.5,-8.5 z" />
<path
   id="path314-3"
   inkscape:export-filename="moa-schablone-50.svg"
   inkscape:export-xdpi="600"
   inkscape:export-ydpi="600"
   class="st2"
   d="m 135.3,51.5 c 4.7,0 8.5,3.8 8.5,8.5 0,4.7 -3.8,8.5 -8.5,8.5 -4.7,0 -8.5,-3.8 -8.5,-8.5 0,-4.7 3.9,-8.5 8.5,-8.5 z" />
<path
   id="path2902"
   inkscape:original-d="m 122.79842,22.781209 -0.0691,88.614371"
   inkscape:path-effect="#path-effect2904"
   class="st4"
   d="m 122.79842,22.781209 -0.0691,88.614371 m -2.4709,-88.616352 5.08,0.004 m -3.81396,5.077027 2.54,0.002 m -2.54396,5.078018 2.54,0.002 m -2.54396,5.078018 2.54,0.002 m -2.54396,5.078017 2.53999,0.002 m -3.81396,5.077028 5.08,0.004 m -3.81396,5.077027 2.54,0.002 m -2.54396,5.078018 2.54,0.002 m -2.54396,5.078017 2.54,0.002 m -2.54396,5.078018 2.54,0.002 m -3.81396,5.077028 5.08,0.004 m -3.81396,5.077028 2.54,0.002 m -2.54397,5.078018 2.54,0.002 m -2.54396,5.078018 2.54,0.002 m -2.54396,5.078018 2.54,0.002 m -3.81396,5.077027 5.08,0.004 m -3.81396,5.077024 2.54,0.002 m -2.54396,5.07802 2.54,0.002 m -3.81176,2.25143 5.08,0.004"
   style="stroke-width:1.33333;stroke-dasharray:none" />
<path
   id="text3014"
   d="m 121,57.8 h -2.3 v 4.8 h -1.8 v 0.7 h 4.5 v -0.7 h -1.8 v -4.1 h 1.4 z m -1.4,-2.1 h -0.9 v 1.1 h 0.9 z m -8.5,4.2 v 3.4 h 0.9 v -3.4 c 0,-0.5 0.1,-0.9 0.3,-1.1 0.2,-0.2 0.4,-0.3 0.8,-0.3 0.4,0 0.7,0.1 1,0.4 0.2,0.3 0.3,0.7 0.3,1.3 v 3.1 h 0.9 v -5.5 h -0.9 v 0.8 c -0.2,-0.3 -0.4,-0.5 -0.6,-0.7 -0.3,-0.2 -0.6,-0.2 -1,-0.2 -0.6,0 -1,0.2 -1.2,0.6 -0.3,0.3 -0.5,0.8 -0.5,1.6 z" />
<path
   id="text3266"
   d="m 114.5,143.6 h -1.2 v -4.5 l 1.3,0.3 v -0.7 l -1.3,-0.3 h -0.8 v 5.2 h -1.2 v 0.7 h 3.2 z" />
<path
   id="text3272"
   d="M 113.7,216.1 H 111 v 0.7 h 3.5 v -0.7 c -0.5,-0.5 -0.9,-1 -1.3,-1.4 -0.4,-0.4 -0.6,-0.7 -0.8,-0.8 -0.3,-0.3 -0.4,-0.6 -0.5,-0.8 -0.1,-0.2 -0.1,-0.4 -0.1,-0.6 0,-0.3 0.1,-0.6 0.3,-0.8 0.2,-0.2 0.5,-0.3 0.8,-0.3 0.2,0 0.5,0 0.7,0.1 0.3,0.1 0.5,0.2 0.8,0.4 v -0.8 c -0.3,-0.1 -0.5,-0.2 -0.8,-0.3 -0.3,-0.1 -0.5,-0.1 -0.8,-0.1 -0.6,0 -1,0.2 -1.4,0.5 -0.3,0.3 -0.5,0.7 -0.5,1.2 0,0.2 0.1,0.5 0.2,0.7 0.1,0.2 0.3,0.5 0.6,0.8 0.1,0.2 0.4,0.4 0.6,0.7 0.4,0.5 0.8,0.9 1.4,1.5 z" />
<path
   id="text3276"
   d="m 112.1,284.9 c -0.4,0.1 -0.7,0.3 -0.9,0.5 -0.2,0.3 -0.3,0.6 -0.3,1 0,0.5 0.2,1 0.5,1.3 0.4,0.3 0.9,0.5 1.5,0.5 0.3,0 0.5,0 0.8,-0.1 0.3,0 0.6,-0.1 0.8,-0.2 v -0.8 c -0.3,0.1 -0.5,0.2 -0.8,0.3 -0.3,0.1 -0.5,0.1 -0.8,0.1 -0.4,0 -0.8,-0.1 -1,-0.3 -0.2,-0.2 -0.3,-0.5 -0.3,-0.8 0,-0.3 0.1,-0.6 0.3,-0.8 0.2,-0.2 0.5,-0.3 0.9,-0.3 h 0.6 v -0.6 H 113 c -0.4,0 -0.6,-0.1 -0.8,-0.2 -0.2,-0.2 -0.3,-0.4 -0.3,-0.7 0,-0.3 0.1,-0.5 0.3,-0.7 0.2,-0.2 0.5,-0.2 0.8,-0.2 0.2,0 0.5,0 0.7,0.1 0.2,0.1 0.5,0.1 0.8,0.2 v -0.7 c -0.3,-0.1 -0.6,-0.1 -0.8,-0.2 -0.2,0 -0.5,-0.1 -0.7,-0.1 -0.6,0 -1,0.1 -1.4,0.4 -0.3,0.3 -0.5,0.7 -0.5,1.1 0,0.3 0.1,0.6 0.3,0.8 0.1,0.2 0.3,0.3 0.7,0.4 z" />
</svg>
