<?xml version="1.0" encoding="UTF-8" standalone="no"?>
<!-- Created with Inkscape (http://www.inkscape.org/) -->

<svg
   width="140.71703mm"
   height="162.99002mm"
   viewBox="0 0 140.71703 162.99002"
   version="1.1"
   id="svg7302"
   sodipodi:docname="moa-schablone-100.svg"
   inkscape:version="1.2.2 (b0a8486541, 2022-12-01)"
   xmlns:inkscape="http://www.inkscape.org/namespaces/inkscape"
   xmlns:sodipodi="http://sodipodi.sourceforge.net/DTD/sodipodi-0.dtd"
   xmlns="http://www.w3.org/2000/svg"
   xmlns:svg="http://www.w3.org/2000/svg">
  <sodipodi:namedview
     id="namedview7304"
     pagecolor="#ffffff"
     bordercolor="#666666"
     borderopacity="1.0"
     inkscape:showpageshadow="2"
     inkscape:pageopacity="0.0"
     inkscape:pagecheckerboard="0"
     inkscape:deskcolor="#d1d1d1"
     inkscape:document-units="mm"
     showgrid="true"
     inkscape:zoom="1.1288313"
     inkscape:cx="422.118"
     inkscape:cy="369.85155"
     inkscape:window-width="1920"
     inkscape:window-height="1030"
     inkscape:window-x="0"
     inkscape:window-y="0"
     inkscape:window-maximized="1"
     inkscape:current-layer="layer1">
    <inkscape:grid
       type="xygrid"
       id="grid8240" />
  </sodipodi:namedview>
  <defs
     id="defs7299">
    <inkscape:path-effect
       effect="ruler"
       id="path-effect2904"
       is_visible="true"
       lpeversion="1"
       unit="in"
       mark_distance="0.2"
       mark_length="0.2"
       minor_mark_length="0.1"
       major_mark_steps="5"
       shift="0"
       offset="0"
       mark_dir="both"
       border_marks="both" />
    <inkscape:path-effect
       effect="ruler"
       id="path-effect2898"
       is_visible="true"
       lpeversion="1"
       unit="cm"
       mark_distance="0.5"
       mark_length="0.5"
       minor_mark_length="0.3"
       major_mark_steps="2"
       shift="0"
       offset="0"
       mark_dir="both"
       border_marks="both" />
  </defs>
  <g
     inkscape:label="Ebene 1"
     inkscape:groupmode="layer"
     id="layer1"
     transform="translate(-30.295781,-16.926641)">
    <text
       xml:space="preserve"
       style="font-style:normal;font-variant:normal;font-weight:normal;font-stretch:normal;font-size:2.82222px;line-height:1.25;font-family:FreeMono;-inkscape-font-specification:FreeMono;fill:#000000;fill-opacity:1;stroke:none;stroke-width:0.264583"
       x="-153.3483"
       y="163.17839"
       id="text3620"
       transform="scale(-1,1)"><tspan
         sodipodi:role="line"
         id="tspan3618"
         style="font-style:normal;font-variant:normal;font-weight:normal;font-stretch:normal;font-size:2.82222px;font-family:FreeMono;-inkscape-font-specification:FreeMono;stroke-width:0.264583"
         x="-153.3483"
         y="163.17839" /></text>
    <text
       xml:space="preserve"
       style="font-style:normal;font-variant:normal;font-weight:normal;font-stretch:normal;font-size:2.82222px;line-height:1.25;font-family:FreeMono;-inkscape-font-specification:FreeMono;fill:#000000;fill-opacity:1;stroke:none;stroke-width:0.264583"
       x="-153.3483"
       y="163.17839"
       id="text3624"
       transform="scale(-1,1)"><tspan
         sodipodi:role="line"
         id="tspan3622"
         style="font-style:normal;font-variant:normal;font-weight:normal;font-stretch:normal;font-size:2.82222px;font-family:FreeMono;-inkscape-font-specification:FreeMono;stroke-width:0.264583"
         x="-153.3483"
         y="163.17839" /></text>
    <g
       id="g1971">
      <g
         aria-label="MOA 100m"
         transform="scale(-1,1)"
         id="text113"
         style="font-weight:bold;font-size:8.11389px;line-height:1.25;font-family:FreeMono;-inkscape-font-specification:'FreeMono Bold';stroke-width:0.264583">
        <path
           d="m -117.11205,31.972422 q 0,-0.186619 0.12171,-0.2921 0.12982,-0.113594 0.33267,-0.113594 h 0.36513 v -2.344914 l -0.90065,2.0447 h -0.73836 l -0.95744,-2.036587 v 2.336801 h 0.36513 q 0.19473,0 0.32455,0.113594 0.12982,0.105481 0.12982,0.2921 0,0.405695 -0.45437,0.405695 h -1.12783 q -0.38947,0 -0.38947,-0.405695 0,-0.405694 0.34078,-0.405694 v -3.099506 q -0.34078,-0.06491 -0.34078,-0.413809 0,-0.405694 0.42192,-0.405694 h 0.91687 l 1.11972,2.417939 1.09537,-2.417939 h 0.89253 q 0.21908,0 0.31644,0.08925 0.10548,0.08114 0.10548,0.316441 0,0.324556 -0.30832,0.405695 v 3.10762 q 0.12982,0 0.21907,0.113594 0.0892,0.105481 0.0892,0.2921 0,0.405695 -0.34889,0.405695 h -1.13595 q -0.45438,0 -0.45438,-0.405695 z"
           id="path1756" />
        <path
           d="m -112.73866,27.534124 q 0.17851,0 0.42193,0.0568 0.24341,0.04868 0.57608,0.219075 0.34078,0.170391 0.60854,0.430036 0.27588,0.259644 0.46249,0.738364 0.19474,0.470605 0.19474,1.071033 0,0.998009 -0.67345,1.720145 -0.66534,0.722136 -1.59033,0.722136 -0.94121,0 -1.60655,-0.722136 -0.65722,-0.73025 -0.65722,-1.760714 0,-1.02235 0.66534,-1.744486 0.66534,-0.730251 1.59843,-0.730251 z m 0,0.811389 q -0.59231,0 -1.02235,0.494948 -0.43003,0.486833 -0.43003,1.1684 0,0.68968 0.42192,1.184628 0.43004,0.486833 1.03046,0.486833 0.59232,0 1.02235,-0.486833 0.43004,-0.486834 0.43004,-1.160287 0,-0.697794 -0.43004,-1.192741 -0.42192,-0.494948 -1.02235,-0.494948 z"
           id="path1758" />
        <path
           d="m -107.46463,31.972422 q 0,-0.405694 0.53552,-0.405694 h 0.18662 l -0.18662,-0.470606 h -1.9311 l -0.18662,0.470606 h 0.18662 q 0.53551,0 0.53551,0.405694 0,0.210961 -0.12171,0.308328 -0.11359,0.09737 -0.4138,0.09737 h -0.99801 q -0.44627,0 -0.44627,-0.405695 0,-0.194733 0.10548,-0.300214 0.10548,-0.10548 0.26776,-0.10548 l 1.25765,-3.10762 h -0.51117 q -0.54363,0 -0.54363,-0.405695 0,-0.243416 0.13794,-0.324555 0.14605,-0.08114 0.40569,-0.08114 h 1.7526 l 1.61466,3.919009 q 0.18662,0 0.28399,0.08925 0.0974,0.08925 0.0974,0.316442 0,0.235303 -0.10548,0.324556 -0.10548,0.08114 -0.34079,0.08114 h -1.04669 q -0.31644,0 -0.43004,-0.09737 -0.10548,-0.09737 -0.10548,-0.308328 z m 0.20285,-1.687689 -0.63288,-1.557867 -0.641,1.557867 z"
           id="path1760" />
        <path
           d="m -99.894361,31.972422 q 0,-0.235303 0.137936,-0.316442 0.137936,-0.08925 0.397581,-0.08925 h 0.819503 v -3.472745 l -0.665339,0.470605 q -0.121709,0.105481 -0.33267,0.105481 -0.137936,0 -0.243417,-0.08925 -0.09737,-0.08925 -0.09737,-0.235303 0,-0.129822 0.0568,-0.210961 0.0568,-0.08925 0.194733,-0.186619 l 1.095375,-0.746478 h 0.803276 v 4.365273 h 0.819502 q 0.535517,0 0.535517,0.405694 0,0.405695 -0.535517,0.405695 h -2.450394 q -0.535517,0 -0.535517,-0.405695 z"
           id="path1762" />
        <path
           d="m -93.265311,27.201455 q 0.860072,0 1.306336,0.657225 0.454378,0.657225 0.454378,1.60655 v 0.77082 q 0,0.608541 -0.18662,1.111603 -0.178505,0.494947 -0.592314,0.827616 -0.405694,0.324556 -0.98178,0.324556 -0.860073,0 -1.31445,-0.657225 -0.446264,-0.657225 -0.446264,-1.60655 v -0.77082 q 0,-0.608542 0.178505,-1.103489 0.18662,-0.503061 0.592314,-0.827617 0.413809,-0.332669 0.989895,-0.332669 z m -0.949325,2.206978 v 0.884414 q 0,0.632883 0.259644,1.014236 0.259645,0.381353 0.689681,0.381353 0.430036,0 0.68968,-0.381353 0.259645,-0.381353 0.259645,-1.014236 v -0.884414 q 0,-0.632883 -0.259645,-1.014236 -0.259644,-0.381353 -0.68968,-0.381353 -0.430036,0 -0.689681,0.381353 -0.259644,0.381353 -0.259644,1.014236 z"
           id="path1764" />
        <path
           d="m -88.396974,27.201455 q 0.860073,0 1.306337,0.657225 0.454377,0.657225 0.454377,1.60655 v 0.77082 q 0,0.608541 -0.186619,1.111603 -0.178506,0.494947 -0.592314,0.827616 -0.405694,0.324556 -0.981781,0.324556 -0.860072,0 -1.31445,-0.657225 -0.446264,-0.657225 -0.446264,-1.60655 v -0.77082 q 0,-0.608542 0.178506,-1.103489 0.186619,-0.503061 0.592314,-0.827617 0.413808,-0.332669 0.989894,-0.332669 z m -0.949325,2.206978 v 0.884414 q 0,0.632883 0.259645,1.014236 0.259644,0.381353 0.68968,0.381353 0.430037,0 0.689681,-0.381353 0.259644,-0.381353 0.259644,-1.014236 v -0.884414 q 0,-0.632883 -0.259644,-1.014236 -0.259644,-0.381353 -0.689681,-0.381353 -0.430036,0 -0.68968,0.381353 -0.259645,0.381353 -0.259645,1.014236 z"
           id="path1766" />
        <path
           d="m -85.573336,32.378117 q -0.389467,0 -0.389467,-0.405695 0,-0.405694 0.33267,-0.405694 v -1.922992 q -0.324556,0 -0.324556,-0.405695 0,-0.405694 0.381353,-0.405694 h 0.754592 v 0.194733 q 0.227188,-0.178505 0.348897,-0.235303 0.121708,-0.06491 0.300214,-0.06491 0.462491,0 0.827616,0.397581 0.365126,-0.397581 0.803276,-0.397581 0.454377,0 0.754591,0.308328 0.308328,0.300214 0.308328,0.754592 v 1.776942 q 0.14605,0 0.259645,0.113594 0.121708,0.105481 0.121708,0.2921 0,0.18662 -0.129822,0.300214 -0.129823,0.105481 -0.300214,0.105481 h -0.762706 v -2.52342 q 0,-0.316442 -0.283986,-0.316442 -0.154164,0 -0.259644,0.07303 -0.09737,0.06491 -0.316442,0.2921 v 1.663348 q 0.446264,0 0.446264,0.405694 0,0.405695 -0.494948,0.405695 h -0.762705 v -2.52342 q 0,-0.316442 -0.283986,-0.316442 -0.162278,0 -0.275873,0.07303 -0.113594,0.07302 -0.300213,0.2921 v 1.663348 q 0.186619,0 0.300213,0.10548 0.113595,0.105481 0.113595,0.300214 0,0.194733 -0.121708,0.300214 -0.121709,0.105481 -0.33267,0.105481 z"
           id="path1768" />
      </g>
      <g
         id="g1892">
        <path
           id="path1056"
           style="fill:none;fill-opacity:0;stroke:#000000;stroke-width:0.352778"
           transform="scale(-1,1)"
           d="m -42.055759,111.219 a 58.077778,58.077782 0 0 1 -58.077781,58.07778 58.077778,58.077782 0 0 1 -58.07778,-58.07778 58.077778,58.077782 0 0 1 58.07778,-58.07778 58.077778,58.077782 0 0 1 58.077781,58.07778 z" />
        <path
           id="path2510"
           style="fill:none;fill-opacity:0;stroke:#000000;stroke-width:0.352778"
           transform="scale(-1,1)"
           d="m -56.477459,111.34194 a 43.533138,43.533134 0 0 1 -43.533141,43.53314 43.533138,43.533134 0 0 1 -43.53314,-43.53314 43.533138,43.533134 0 0 1 43.53314,-43.533133 43.533138,43.533134 0 0 1 43.533141,43.533133 z" />
        <path
           id="path3238"
           style="fill:none;fill-opacity:0;stroke:#000000;stroke-width:0.352778"
           transform="scale(-1,1)"
           d="m -71.023615,111.34024 a 28.988684,28.988684 0 0 1 -28.988685,28.98868 28.988684,28.988684 0 0 1 -28.98868,-28.98868 28.988684,28.988684 0 0 1 28.98868,-28.988683 28.988684,28.988684 0 0 1 28.988685,28.988683 z" />
        <path
           id="path4692"
           style="fill:none;fill-opacity:0;stroke:#000000;stroke-width:0.352778"
           transform="scale(-1,1)"
           d="m -85.626047,111.28195 a 14.44454,14.44454 0 0 1 -14.444543,14.44454 14.44454,14.44454 0 0 1 -14.44454,-14.44454 14.44454,14.44454 0 0 1 14.44454,-14.444538 14.44454,14.44454 0 0 1 14.444543,14.444538 z" />
        <path
           id="path7598"
           style="fill:none;fill-opacity:0;stroke:#000000;stroke-width:0.352778"
           transform="scale(-1,1)"
           d="m -92.841484,111.34194 a 7.1691132,7.1691136 0 0 1 -7.169116,7.16912 7.1691132,7.1691136 0 0 1 -7.16911,-7.16912 7.1691132,7.1691136 0 0 1 7.16911,-7.16911 7.1691132,7.1691136 0 0 1 7.169116,7.16911 z" />
        <path
           id="path7600"
           style="fill:none;fill-opacity:0;stroke:#000000;stroke-width:0.352778"
           transform="scale(-1,1)"
           d="m -95.72827,111.36313 a 4.2628345,4.2628345 0 0 1 -4.262834,4.26283 4.2628345,4.2628345 0 0 1 -4.262836,-4.26283 4.2628345,4.2628345 0 0 1 4.262836,-4.26284 4.2628345,4.2628345 0 0 1 4.262834,4.26284 z" />
        <g
           aria-label=".3"
           transform="scale(-1,1)"
           id="text8330"
           style="font-size:3.52778px;line-height:1.25;font-family:FreeMono;-inkscape-font-specification:FreeMono;stroke-width:0.352778">
          <path
             d="m -101.24873,112.03157 h 0.0353 q 0.10231,0 0.17287,0.067 0.0705,0.0635 0.0705,0.16228 0,0.0988 -0.0705,0.16581 -0.0706,0.067 -0.17287,0.067 h -0.0353 q -0.10231,0 -0.17286,-0.067 -0.0706,-0.067 -0.0706,-0.16581 0,-0.0988 0.0706,-0.16228 0.0705,-0.067 0.17286,-0.067 z"
             id="path1979" />
          <path
             d="m -99.731787,110.57812 q 0,-0.0388 0.06703,-0.10936 0.07056,-0.0706 0.22225,-0.13758 0.151695,-0.0706 0.331612,-0.0706 0.264583,0 0.440972,0.15875 0.179917,0.15522 0.179917,0.38453 0,0.20461 -0.112889,0.32455 -0.112889,0.11995 -0.250473,0.15523 0.208139,0.0847 0.324556,0.23636 0.116417,0.14816 0.116417,0.32808 0,0.26811 -0.218722,0.45861 -0.215195,0.18697 -0.518584,0.18697 -0.208139,0 -0.448028,-0.1023 -0.236361,-0.10583 -0.236361,-0.19403 0,-0.0247 0.02117,-0.0459 0.02117,-0.0212 0.04586,-0.0212 0.0247,0 0.09878,0.0564 0.07408,0.0529 0.211667,0.10936 0.137583,0.0529 0.310445,0.0529 0.239889,0 0.41275,-0.14817 0.176389,-0.14817 0.176389,-0.35278 0,-0.20814 -0.186972,-0.3563 -0.186973,-0.1517 -0.444501,-0.1517 -0.09525,0 -0.09525,-0.0741 0,-0.0706 0.09525,-0.0706 0.553862,0 0.553862,-0.38805 0,-0.17287 -0.137584,-0.28575 -0.137583,-0.11642 -0.342194,-0.11642 -0.148167,0 -0.254,0.0388 -0.102306,0.0353 -0.144639,0.0811 -0.03881,0.0459 -0.07761,0.0847 -0.0388,0.0353 -0.07055,0.0353 -0.02822,0 -0.04939,-0.0176 -0.02117,-0.0212 -0.02117,-0.0494 z"
             id="path1981" />
        </g>
        <g
           aria-label=".5"
           transform="scale(-1,1)"
           id="text8334"
           style="font-size:3.52778px;line-height:1.25;font-family:FreeMono;-inkscape-font-specification:FreeMono;stroke-width:0.352778">
          <path
             d="m -101.2073,117.68887 h 0.0353 q 0.10231,0 0.17286,0.067 0.0706,0.0635 0.0706,0.16227 0,0.0988 -0.0706,0.16581 -0.0705,0.067 -0.17286,0.067 h -0.0353 q -0.1023,0 -0.17286,-0.067 -0.0706,-0.067 -0.0706,-0.16581 0,-0.0988 0.0706,-0.16227 0.0706,-0.067 0.17286,-0.067 z"
             id="path1984" />
          <path
             d="m -99.016546,116.84926 q -0.137583,0 -0.246944,0.0353 -0.109361,0.0353 -0.176389,0.0741 -0.06703,0.0353 -0.09878,0.0353 -0.06703,0 -0.06703,-0.0776 v -0.94897 h 0.994834 q 0.09878,0 0.09878,0.0706 0,0.0741 -0.09878,0.0741 h -0.850195 v 0.6985 q 0.257528,-0.10583 0.465667,-0.10583 0.271639,0 0.448028,0.19403 0.176389,0.19402 0.176389,0.49036 0,0.33161 -0.204611,0.5468 -0.201084,0.2152 -0.515056,0.2152 -0.137583,0 -0.275167,-0.0423 -0.134055,-0.0423 -0.225778,-0.0988 -0.08819,-0.06 -0.144639,-0.11642 -0.05644,-0.0564 -0.05644,-0.0847 0,-0.0282 0.02117,-0.0494 0.02117,-0.0212 0.04939,-0.0212 0.0247,0 0.09878,0.067 0.07408,0.067 0.211667,0.13405 0.137584,0.067 0.313973,0.067 0.257527,0 0.419805,-0.17286 0.162278,-0.17286 0.162278,-0.45156 0,-0.23636 -0.141111,-0.38453 -0.137583,-0.14816 -0.359834,-0.14816 z"
             id="path1986" />
        </g>
        <g
           aria-label="1"
           transform="scale(-1,1)"
           id="text8338"
           style="font-size:5.64444px;line-height:1.25;font-family:FreeMono;-inkscape-font-specification:FreeMono;stroke-width:0.352778">
          <path
             d="m -99.664041,120.66984 v 3.22298 h 0.784577 q 0.1524,0 0.1524,0.11288 0,0.11854 -0.1524,0.11854 h -1.800576 q -0.15804,0 -0.15804,-0.11854 0,-0.11288 0.15804,-0.11288 h 0.784577 v -2.91818 l -0.637817,0.63782 q -0.0452,0.0452 -0.11854,0.0452 -0.0451,0 -0.079,-0.0339 -0.0282,-0.0395 -0.0282,-0.096 0,-0.0508 0.0621,-0.11288 l 0.745062,-0.74507 z"
             id="path1989" />
        </g>
        <g
           aria-label="2"
           transform="scale(-1,1)"
           id="text8342"
           style="font-size:5.64444px;line-height:1.25;font-family:FreeMono;-inkscape-font-specification:FreeMono;stroke-width:0.352778">
          <path
             d="m -100.78346,132.02135 q 0,-0.254 0.3048,-0.54186 0.31044,-0.29351 0.745064,-0.29351 0.412044,0 0.722489,0.29351 0.316088,0.29351 0.316088,0.67733 0,0.254 -0.1524,0.47978 -0.146755,0.22013 -0.660399,0.69991 l -1.168402,1.08937 v 0.0169 h 1.772357 v -0.2032 q 0,-0.1524 0.118533,-0.1524 0.112889,0 0.112889,0.1524 v 0.43462 h -2.223909 v -0.33867 l 1.332087,-1.25306 q 0.395111,-0.38947 0.513645,-0.56445 0.124177,-0.17497 0.124177,-0.36688 0,-0.29352 -0.242711,-0.51365 -0.242711,-0.22013 -0.564444,-0.22013 -0.287864,0 -0.524934,0.16933 -0.23142,0.16933 -0.29915,0.42333 -0.0339,0.11289 -0.11854,0.11289 -0.0395,0 -0.0734,-0.0282 -0.0339,-0.0339 -0.0339,-0.0734 z"
             id="path1992" />
        </g>
        <g
           aria-label="3"
           transform="scale(-1,1)"
           id="text8346"
           style="font-size:5.64444px;line-height:1.25;font-family:FreeMono;-inkscape-font-specification:FreeMono;stroke-width:0.352778">
          <path
             d="m -100.74305,146.72988 q 0,-0.0621 0.10725,-0.17498 0.11289,-0.11289 0.3556,-0.22013 0.24271,-0.11289 0.530576,-0.11289 0.423333,0 0.705555,0.254 0.287866,0.24836 0.287866,0.61524 0,0.32738 -0.180622,0.51929 -0.180622,0.19191 -0.400755,0.24836 0.333022,0.13546 0.519288,0.37818 0.186267,0.23706 0.186267,0.52493 0,0.42898 -0.349955,0.73378 -0.344311,0.29915 -0.829733,0.29915 -0.333027,0 -0.716847,-0.16369 -0.37817,-0.16933 -0.37817,-0.31044 0,-0.0395 0.0339,-0.0734 0.0339,-0.0339 0.0734,-0.0339 0.0395,0 0.15804,0.0903 0.11854,0.0847 0.33867,0.17498 0.22013,0.0847 0.496711,0.0847 0.383822,0 0.6604,-0.23707 0.282222,-0.23706 0.282222,-0.56444 0,-0.33302 -0.299155,-0.57009 -0.299156,-0.24271 -0.7112,-0.24271 -0.152398,0 -0.152398,-0.11853 0,-0.11289 0.152398,-0.11289 0.886177,0 0.886177,-0.62089 0,-0.27658 -0.220133,-0.4572 -0.220133,-0.18627 -0.547511,-0.18627 -0.237066,0 -0.406401,0.0621 -0.16369,0.0565 -0.23142,0.12982 -0.0621,0.0734 -0.12418,0.13547 -0.0621,0.0564 -0.11289,0.0564 -0.0451,0 -0.079,-0.0282 -0.0339,-0.0339 -0.0339,-0.079 z"
             id="path1995" />
        </g>
        <g
           aria-label="4"
           transform="scale(-1,1)"
           id="text8350"
           style="font-size:5.64444px;line-height:1.25;font-family:FreeMono;-inkscape-font-specification:FreeMono;stroke-width:0.352778">
          <path
             d="m -99.29897,163.03816 v -1.99248 h -0.135467 l -1.174043,1.99248 z m 0,0.23143 h -1.52964 v -0.26529 l 1.286929,-2.19005 h 0.474133 v 2.22391 h 0.191911 q 0.152399,0 0.152399,0.11854 0,0.11289 -0.152399,0.11289 h -0.191911 v 0.72248 h 0.191911 q 0.152399,0 0.152399,0.11289 0,0.11854 -0.152399,0.11854 h -0.852311 q -0.1524,0 -0.1524,-0.11854 0,-0.11289 0.1524,-0.11289 h 0.428978 z"
             id="path1998" />
        </g>
      </g>
      <path
         style="color:#000000;fill:none;stroke-width:0.00035278;stroke-dasharray:none;stroke:#ff0000;stroke-opacity:1"
         d="m 160.35742,16.925781 c 5.90345,0 10.65625,4.555038 10.65625,10.212891 V 169.70312 c 0,5.65786 -4.7528,10.2129 -10.65625,10.2129 H 40.953122 c -5.90345,0 -10.6582,-4.55504 -10.6582,-10.2129 V 27.138672 c 0,-5.657854 4.75475,-10.212891 10.6582,-10.212891 z m 0.006,0.01953 h -0.006 -119.404298 c -5.89305,0 -10.63867,4.546133 -10.63867,10.19336 V 169.70312 c 0,5.64723 4.74563,10.19532 10.63867,10.19532 H 160.35742 c 5.89304,0 10.63672,-4.54809 10.63672,-10.19532 V 27.138672 c 0,-5.645306 -4.7406,-10.190266 -10.63086,-10.19336 z"
         id="rect8238" />
      <path
         id="path9698"
         style="fill:none;fill-opacity:0.166656;stroke:#ff0000;stroke-width:0.00035278;stroke-dasharray:none"
         d="m 44.032662,168.26829 a 2.9971681,2.9971681 0 0 1 -2.99717,2.99716 2.9971681,2.9971681 0 0 1 -2.99717,-2.99716 2.9971681,2.9971681 0 0 1 2.99717,-2.99717 2.9971681,2.9971681 0 0 1 2.99717,2.99717 z" />
      <path
         id="path9698-3"
         style="fill:none;fill-opacity:0.166656;stroke:#ff0000;stroke-width:0.00035278;stroke-dasharray:none"
         d="m 163.07531,168.44614 a 2.9971681,2.9971681 0 0 1 -2.99717,2.99717 2.9971681,2.9971681 0 0 1 -2.99717,-2.99717 2.9971681,2.9971681 0 0 1 2.99717,-2.99717 2.9971681,2.9971681 0 0 1 2.99717,2.99717 z" />
      <path
         id="path9698-3-2"
         style="fill:none;fill-opacity:0.166656;stroke:#ff0000;stroke-width:0.00035278;stroke-dasharray:none"
         d="m 163.00098,27.929685 a 2.9971681,2.9971681 0 0 1 -2.99717,2.99717 2.9971681,2.9971681 0 0 1 -2.99717,-2.99717 2.9971681,2.9971681 0 0 1 2.99717,-2.99717 2.9971681,2.9971681 0 0 1 2.99717,2.99717 z" />
      <path
         id="path9698-3-8"
         style="fill:none;fill-opacity:0.166656;stroke:#ff0000;stroke-width:0.00035278;stroke-dasharray:none"
         d="m 44.621012,27.633677 a 2.9971681,2.9971681 0 0 1 -2.99717,2.99717 2.9971681,2.9971681 0 0 1 -2.99717,-2.99717 2.9971681,2.9971681 0 0 1 2.99717,-2.99717 2.9971681,2.9971681 0 0 1 2.99717,2.99717 z" />
      <g
         id="g4055"
         transform="matrix(-1,0,0,1,201.30859,-3.5064733)">
        <g
           id="g3784">
          <path
             style="fill:none;stroke:#000000;stroke-width:0.332854px;stroke-linecap:butt;stroke-linejoin:miter;stroke-opacity:1"
             d="m 167.94391,36.109464 -0.0691,126.660816 m -2.4709,-126.662202 5.08,0.0028 m -3.81277,5.07792 2.54,0.0014 m -2.54277,5.078614 2.54,0.0014 m -2.54277,5.078614 2.54,0.0014 m -2.54278,5.078613 2.54,0.0014 m -3.81277,5.077921 5.08,0.0028 m -3.81277,5.077921 2.54,0.0014 m -2.54277,5.078614 2.54,0.0014 m -2.54277,5.078613 2.54,0.0014 m -2.54277,5.078613 2.54,0.0014 m -3.81277,5.077921 5.08,0.0028 m -3.81278,5.077921 2.54,0.0014 m -2.54277,5.078613 2.54,0.0014 m -2.54277,5.078612 2.54,0.001 m -2.54277,5.07861 2.54,0.001 m -3.81277,5.07792 5.08,0.003 m -3.81277,5.07792 2.54,0.001 m -2.54277,5.07862 2.54,0.001 m -2.54278,5.07862 2.54,0.001 m -2.54277,5.07862 2.54,0.001 m -3.81277,5.07792 5.08,0.003 m -3.81277,5.07793 2.54,0.001 m -2.54277,5.07861 2.54,0.001 m -2.54277,5.07861 2.54,0.001 m -2.54277,5.07861 2.54,0.001 m -3.81259,4.73875 5.08,0.003"
             id="path2902" />
          <g
             aria-label="in"
             transform="translate(44.88741,13.236525)"
             id="text3014"
             style="font-size:3.52778px;line-height:1.25;font-family:FreeMono;-inkscape-font-specification:FreeMono;white-space:pre;stroke-width:0.264583">
            <path
               d="m 121.99187,20.185508 v 0.366889 h -0.20813 v -0.366889 z m 0.007,0.73025 v 1.326446 h 0.56445 q 0.0988,0 0.0988,0.07055 0,0.07408 -0.0988,0.07408 h -1.27353 q -0.0953,0 -0.0953,-0.07408 0,-0.07055 0.0953,-0.07055 h 0.56444 v -1.181807 h -0.41628 q -0.0953,0 -0.0953,-0.07408 0,-0.07056 0.0953,-0.07056 z"
               id="path2001" />
            <path
               d="m 124.11207,21.011009 q -0.0635,0 -0.12347,0.01411 -0.0564,0.01058 -0.10936,0.0388 -0.0494,0.02469 -0.0847,0.04939 -0.0353,0.02117 -0.0776,0.0635 -0.0388,0.04233 -0.0564,0.0635 -0.0141,0.01764 -0.0494,0.0635 -0.0318,0.04233 -0.0353,0.04586 v 0.892529 h 0.15875 q 0.0952,0 0.0952,0.07055 0,0.07408 -0.0952,0.07408 h -0.46214 q -0.0988,0 -0.0988,-0.07408 0,-0.07055 0.0988,-0.07055 h 0.15875 v -1.181807 h -0.11994 q -0.0952,0 -0.0952,-0.07408 0,-0.07056 0.0952,-0.07056 h 0.26458 v 0.243417 q 0.15169,-0.169333 0.26811,-0.229305 0.11642,-0.0635 0.28222,-0.0635 0.23636,0 0.39511,0.137583 0.15875,0.137583 0.15875,0.342195 v 0.896056 h 0.11995 q 0.0953,0 0.0953,0.07055 0,0.07408 -0.0953,0.07408 h -0.38453 q -0.0952,0 -0.0952,-0.07408 0,-0.07055 0.0952,-0.07055 h 0.11995 v -0.871362 q 0,-0.151694 -0.11642,-0.254 -0.11289,-0.105833 -0.30692,-0.105833 z"
               id="path2003" />
          </g>
          <g
             aria-label="1
"
             id="text3266"
             style="font-size:2.82222px;line-height:1.25;font-family:FreeMono;-inkscape-font-specification:FreeMono;stroke-width:0.264583">
            <path
               d="m 168.90689,61.868092 v 1.611488 h 0.39229 q 0.0762,0 0.0762,0.05645 0,0.05927 -0.0762,0.05927 h -0.90029 q -0.079,0 -0.079,-0.05927 0,-0.05645 0.079,-0.05645 h 0.39229 v -1.459088 l -0.31891,0.318911 q -0.0226,0.02258 -0.0593,0.02258 -0.0226,0 -0.0395,-0.01693 -0.0141,-0.01976 -0.0141,-0.04798 0,-0.0254 0.0311,-0.05644 l 0.37253,-0.372533 z"
               id="path2006" />
          </g>
          <g
             aria-label="2"
             id="text3272"
             style="font-size:2.82222px;line-height:1.25;font-family:FreeMono;-inkscape-font-specification:FreeMono;stroke-width:0.264583">
            <path
               d="m 168.35212,87.703166 q 0,-0.127 0.1524,-0.270933 0.15522,-0.146755 0.37253,-0.146755 0.20602,0 0.36125,0.146755 0.15804,0.146756 0.15804,0.338667 0,0.126999 -0.0762,0.239888 -0.0734,0.110067 -0.3302,0.349956 l -0.5842,0.544688 v 0.0085 h 0.88618 v -0.1016 q 0,-0.0762 0.0593,-0.0762 0.0564,0 0.0564,0.0762 v 0.217311 h -1.11195 v -0.169334 l 0.66604,-0.626532 q 0.19755,-0.194734 0.25682,-0.282222 0.0621,-0.08749 0.0621,-0.183445 0,-0.146755 -0.12136,-0.256822 -0.12135,-0.110066 -0.28222,-0.110066 -0.14393,0 -0.26246,0.08467 -0.11571,0.08467 -0.14958,0.211667 -0.0169,0.05644 -0.0593,0.05644 -0.0198,0 -0.0367,-0.01411 -0.0169,-0.01693 -0.0169,-0.03669 z"
               id="path2009" />
          </g>
          <g
             aria-label="3"
             id="text3276"
             style="font-size:2.82222px;line-height:1.25;font-family:FreeMono;-inkscape-font-specification:FreeMono;stroke-width:0.264583">
            <path
               d="m 168.29423,112.94039 q 0,-0.031 0.0536,-0.0875 0.0565,-0.0564 0.1778,-0.11007 0.12136,-0.0564 0.26529,-0.0564 0.21167,0 0.35278,0.127 0.14393,0.12418 0.14393,0.30763 0,0.16369 -0.0903,0.25964 -0.0903,0.096 -0.20038,0.12418 0.16651,0.0677 0.25965,0.18909 0.0931,0.11853 0.0931,0.26246 0,0.21449 -0.17498,0.36689 -0.17215,0.14958 -0.41486,0.14958 -0.16652,0 -0.35843,-0.0818 -0.18908,-0.0847 -0.18908,-0.15523 0,-0.0197 0.0169,-0.0367 0.0169,-0.0169 0.0367,-0.0169 0.0198,0 0.079,0.0452 0.0593,0.0423 0.16933,0.0875 0.11007,0.0423 0.24836,0.0423 0.19191,0 0.3302,-0.11853 0.14111,-0.11854 0.14111,-0.28223 0,-0.16651 -0.14958,-0.28504 -0.14958,-0.12136 -0.3556,-0.12136 -0.0762,0 -0.0762,-0.0593 0,-0.0564 0.0762,-0.0564 0.44309,0 0.44309,-0.31044 0,-0.13829 -0.11007,-0.2286 -0.11006,-0.0931 -0.27375,-0.0931 -0.11854,0 -0.2032,0.031 -0.0819,0.0282 -0.11571,0.0649 -0.031,0.0367 -0.0621,0.0677 -0.031,0.0282 -0.0564,0.0282 -0.0226,0 -0.0395,-0.0141 -0.0169,-0.0169 -0.0169,-0.0395 z"
               id="path2012" />
          </g>
          <g
             aria-label="4"
             id="text3770"
             style="font-size:2.82222px;line-height:1.25;font-family:FreeMono;-inkscape-font-specification:FreeMono;stroke-width:0.264583">
            <path
               d="m 169.06695,139.27733 v -0.99624 h -0.0677 l -0.58702,0.99624 z m 0,0.11571 h -0.76482 v -0.13264 l 0.64347,-1.09503 h 0.23706 v 1.11196 h 0.096 q 0.0762,0 0.0762,0.0593 0,0.0564 -0.0762,0.0564 h -0.096 v 0.36124 h 0.096 q 0.0762,0 0.0762,0.0565 0,0.0593 -0.0762,0.0593 h -0.42616 q -0.0762,0 -0.0762,-0.0593 0,-0.0565 0.0762,-0.0565 h 0.21449 z"
               id="path2015" />
          </g>
        </g>
      </g>
      <g
         id="g1853"
         transform="translate(0,-3.1750001)">
        <g
           aria-label="cm"
           transform="scale(-1,1)"
           id="text2960"
           style="font-size:2.82222px;line-height:1.25;font-family:FreeMono;-inkscape-font-specification:FreeMono;stroke-width:0.264583">
          <path
             d="m -168.27225,34.919957 q 0,0.0254 -0.048,0.07338 -0.048,0.04516 -0.12699,0.09596 -0.0762,0.0508 -0.2032,0.08749 -0.127,0.03669 -0.25965,0.03669 -0.27658,0 -0.4572,-0.174978 -0.1778,-0.174978 -0.1778,-0.445911 0,-0.2794 0.18345,-0.460022 0.18344,-0.180622 0.46566,-0.180622 0.26247,0 0.44027,0.155222 v -0.03669 q 0,-0.07902 0.0593,-0.07902 0.0564,0 0.0564,0.07902 v 0.256822 q 0,0.0762 -0.0564,0.0762 -0.0508,0 -0.0593,-0.06773 -0.008,-0.112889 -0.14111,-0.189089 -0.12982,-0.07902 -0.30762,-0.07902 -0.23425,0 -0.381,0.146756 -0.14394,0.143933 -0.14394,0.375355 0,0.222955 0.14676,0.366889 0.14675,0.141111 0.37818,0.141111 0.30762,0 0.52775,-0.2032 0.0282,-0.02822 0.0508,-0.02822 0.0226,0 0.0367,0.01693 0.0169,0.01411 0.0169,0.03669 z"
             id="path2018" />
          <path
             d="m -167.77271,33.991446 v 0.146756 q 0.0705,-0.1016 0.13829,-0.143933 0.0677,-0.04233 0.15804,-0.04233 0.18062,0 0.27376,0.200378 0.15522,-0.200378 0.31891,-0.200378 0.12135,0 0.20884,0.09031 0.0875,0.09031 0.0875,0.214489 v 0.795866 h 0.0959 q 0.0762,0 0.0762,0.05644 0,0.05927 -0.0762,0.05927 h -0.20884 v -0.900288 q 0,-0.07902 -0.0564,-0.138289 -0.0565,-0.06209 -0.12983,-0.06209 -0.14111,0 -0.29351,0.231422 v 0.753533 h 0.096 q 0.0762,0 0.0762,0.05644 0,0.05927 -0.0762,0.05927 h -0.20885 v -0.891821 q 0,-0.08185 -0.0564,-0.143934 -0.0536,-0.06491 -0.127,-0.06491 -0.14111,0 -0.29633,0.231422 v 0.753533 h 0.0959 q 0.0762,0 0.0762,0.05644 0,0.05927 -0.0762,0.05927 h -0.30762 q -0.0734,0 -0.0734,-0.05927 0,-0.05644 0.0762,-0.05644 h 0.096 v -0.945444 h -0.096 q -0.0762,0 -0.0762,-0.05927 0,-0.05644 0.0762,-0.05644 z"
             id="path2020" />
        </g>
        <g
           id="g3988"
           transform="matrix(-1,0,0,1,202.04464,0)">
          <path
             style="fill:none;stroke:#000000;stroke-width:0.277909px;stroke-linecap:butt;stroke-linejoin:miter;stroke-opacity:1"
             d="m 34.099066,35.80376 v 139.72209 m -2.5,-139.72209 h 5 m -4,5 h 3 m -4,5 h 5 m -4,5 h 3 m -4,5 h 5 m -4,5 h 3 m -4,5 h 5 m -4,5 h 3 m -4,5 h 5 m -4,5 h 3 m -4,5 h 5 m -4,5 h 3 m -4,5 h 5 m -4,5 h 3 m -4,5 h 5 m -4,5 h 3 m -4,5 h 5 m -4,5 h 3 m -4,5 h 5 m -4,5 h 3 m -4,5 h 5 m -4,5 h 3 m -4,5 h 5 m -4,5 h 3 m -4,5 h 5 m -4,5 h 3 m -4,5 h 5 m -4,5 h 3 m -4,4.72209 h 5"
             id="path2842" />
          <g
             aria-label="1"
             id="text3150"
             style="font-size:2.82222px;line-height:1.25;font-family:FreeMono;-inkscape-font-specification:FreeMono;stroke-width:0.264583">
            <path
               d="m 34.997737,46.100491 v 1.611488 h 0.392289 q 0.0762,0 0.0762,0.05645 0,0.05927 -0.0762,0.05927 h -0.900288 q -0.07902,0 -0.07902,-0.05927 0,-0.05645 0.07902,-0.05645 h 0.392288 v -1.459088 l -0.318911,0.318911 q -0.02258,0.02258 -0.05927,0.02258 -0.02258,0 -0.03951,-0.01693 -0.01411,-0.01976 -0.01411,-0.04798 0,-0.0254 0.03104,-0.05644 l 0.372533,-0.372533 z"
               id="path2023" />
          </g>
          <g
             aria-label="2"
             id="text3154"
             style="font-size:2.82222px;line-height:1.25;font-family:FreeMono;-inkscape-font-specification:FreeMono;stroke-width:0.264583">
            <path
               d="m 34.456944,56.548534 q 0,-0.127 0.1524,-0.270933 0.155222,-0.146756 0.372533,-0.146756 0.206022,0 0.361244,0.146756 0.158044,0.146755 0.158044,0.338666 0,0.127 -0.0762,0.239889 -0.07338,0.110066 -0.330199,0.349955 l -0.5842,0.544688 v 0.0085 h 0.886177 v -0.1016 q 0,-0.0762 0.05927,-0.0762 0.05644,0 0.05644,0.0762 v 0.217311 H 34.4005 v -0.169333 l 0.666044,-0.626533 q 0.197555,-0.194733 0.256822,-0.282222 0.06209,-0.08749 0.06209,-0.183444 0,-0.146756 -0.121355,-0.256822 -0.121356,-0.110067 -0.282222,-0.110067 -0.143933,0 -0.262467,0.08467 -0.115711,0.08467 -0.149577,0.211666 -0.01693,0.05644 -0.05927,0.05644 -0.01975,0 -0.03669,-0.01411 -0.01693,-0.01693 -0.01693,-0.03669 z"
               id="path2026" />
          </g>
          <g
             aria-label="3"
             id="text3158"
             style="font-size:2.82222px;line-height:1.25;font-family:FreeMono;-inkscape-font-specification:FreeMono;stroke-width:0.264583">
            <path
               d="m 34.500399,66.369868 q 0,-0.03104 0.05362,-0.08749 0.05644,-0.05644 0.1778,-0.110067 0.121355,-0.05644 0.265288,-0.05644 0.211667,0 0.352778,0.127 0.143933,0.124177 0.143933,0.307621 0,0.163689 -0.09031,0.259645 -0.09031,0.09596 -0.200378,0.124177 0.166511,0.06773 0.259645,0.189089 0.09313,0.118533 0.09313,0.262467 0,0.214488 -0.174978,0.366888 -0.172155,0.149578 -0.414866,0.149578 -0.166511,0 -0.358422,-0.08184 -0.189089,-0.08467 -0.189089,-0.155223 0,-0.01976 0.01693,-0.03669 0.01693,-0.01693 0.03669,-0.01693 0.01976,0 0.07902,0.04516 0.05927,0.04233 0.169333,0.08749 0.110066,0.04233 0.248355,0.04233 0.191911,0 0.3302,-0.118533 0.141111,-0.118534 0.141111,-0.282222 0,-0.166511 -0.149578,-0.285045 -0.149577,-0.121355 -0.355599,-0.121355 -0.0762,0 -0.0762,-0.05927 0,-0.05644 0.0762,-0.05644 0.443088,0 0.443088,-0.310444 0,-0.138289 -0.110066,-0.2286 -0.110067,-0.09313 -0.273756,-0.09313 -0.118533,0 -0.2032,0.03104 -0.08184,0.02822 -0.115711,0.06491 -0.03104,0.03669 -0.06209,0.06773 -0.03104,0.02822 -0.05644,0.02822 -0.02258,0 -0.03951,-0.01411 -0.01693,-0.01693 -0.01693,-0.03951 z"
               id="path2029" />
          </g>
          <g
             aria-label="4"
             id="text3162"
             style="font-size:2.82222px;line-height:1.25;font-family:FreeMono;-inkscape-font-specification:FreeMono;stroke-width:0.264583">
            <path
               d="m 35.222936,77.215599 v -0.996243 h -0.06773 l -0.587022,0.996243 z m 0,0.115711 h -0.764822 v -0.132644 l 0.643467,-1.095021 h 0.237066 v 1.111954 h 0.09596 q 0.0762,0 0.0762,0.05927 0,0.05644 -0.0762,0.05644 h -0.09596 v 0.361245 h 0.09596 q 0.0762,0 0.0762,0.05644 0,0.05927 -0.0762,0.05927 h -0.426156 q -0.0762,0 -0.0762,-0.05927 0,-0.05644 0.0762,-0.05644 h 0.214489 z"
               id="path2032" />
          </g>
          <g
             aria-label="5"
             id="text3166"
             style="font-size:2.82222px;line-height:1.25;font-family:FreeMono;-inkscape-font-specification:FreeMono;stroke-width:0.264583">
            <path
               d="m 35.047236,86.808612 q -0.110066,0 -0.197555,0.02822 -0.08749,0.02822 -0.141111,0.05927 -0.05362,0.02822 -0.07902,0.02822 -0.05362,0 -0.05362,-0.06209 v -0.759177 h 0.795866 q 0.07902,0 0.07902,0.05644 0,0.05927 -0.07902,0.05927 h -0.680155 v 0.5588 q 0.206022,-0.08467 0.372533,-0.08467 0.217311,0 0.358422,0.155222 0.141111,0.155222 0.141111,0.392289 0,0.265289 -0.163688,0.437444 -0.160867,0.172156 -0.412044,0.172156 -0.110067,0 -0.220134,-0.03387 -0.107244,-0.03387 -0.180622,-0.07902 -0.07056,-0.04798 -0.115711,-0.09313 -0.04516,-0.04516 -0.04516,-0.06773 0,-0.02258 0.01693,-0.03951 0.01693,-0.01693 0.03951,-0.01693 0.01976,0 0.07902,0.05362 0.05927,0.05362 0.169333,0.107244 0.110067,0.05362 0.251178,0.05362 0.206022,0 0.335844,-0.138289 0.129822,-0.138289 0.129822,-0.361244 0,-0.189089 -0.112888,-0.307622 -0.110067,-0.118534 -0.287867,-0.118534 z"
               id="path2035" />
          </g>
          <g
             aria-label="6"
             id="text3170"
             style="font-size:2.82222px;line-height:1.25;font-family:FreeMono;-inkscape-font-specification:FreeMono;stroke-width:0.264583">
            <path
               d="m 34.535837,97.323106 q 0.05927,0.2286 0.163689,0.344311 0.104422,0.112889 0.273755,0.112889 0.158045,0 0.262467,-0.124178 0.107244,-0.124178 0.107244,-0.3048 0,-0.166511 -0.107244,-0.287866 -0.104422,-0.121356 -0.251178,-0.121356 -0.07055,0 -0.141111,0.03387 -0.06773,0.03387 -0.110066,0.07056 -0.04233,0.03387 -0.09313,0.104422 -0.04798,0.06773 -0.06209,0.09031 -0.01129,0.02258 -0.04233,0.08184 z m 0.860777,-1.058332 q -0.0085,0 -0.05644,-0.01976 -0.04516,-0.01976 -0.124178,-0.01976 -0.112888,0 -0.231422,0.05362 -0.118533,0.0508 -0.225777,0.146755 -0.107245,0.09596 -0.1778,0.259644 -0.06773,0.163689 -0.06773,0.364067 0,0.01411 0.0056,0.121355 0.172155,-0.344311 0.468489,-0.344311 0.19191,0 0.330199,0.155222 0.141111,0.155223 0.141111,0.369711 0,0.2286 -0.141111,0.386644 -0.141111,0.158045 -0.347133,0.158045 -0.251177,0 -0.409222,-0.234244 -0.158044,-0.234245 -0.158044,-0.603956 0,-0.42051 0.237066,-0.682977 0.239889,-0.265289 0.587022,-0.265289 0.09031,0 0.155222,0.03105 0.06773,0.02822 0.06773,0.06773 0,0.02258 -0.01693,0.03951 -0.01411,0.01693 -0.03669,0.01693 z"
               id="path2038" />
          </g>
          <g
             aria-label="7"
             id="text3174"
             style="font-size:2.82222px;line-height:1.25;font-family:FreeMono;-inkscape-font-specification:FreeMono;stroke-width:0.264583">
            <path
               d="m 35.378604,106.2961 v -0.0508 h -0.821266 v 0.0988 q 0,0.079 -0.05644,0.079 -0.05927,0 -0.05927,-0.079 v -0.21449 h 1.052688 v 0.18345 l -0.460021,1.46473 q -0.01976,0.0593 -0.05645,0.0593 -0.02258,0 -0.03951,-0.0169 -0.01693,-0.0169 -0.01693,-0.0395 0,-0.0141 0.0056,-0.0367 z"
               id="path2041" />
          </g>
          <g
             aria-label="8"
             id="text3178"
             style="font-size:2.82222px;line-height:1.25;font-family:FreeMono;-inkscape-font-specification:FreeMono;stroke-width:0.264583">
            <path
               d="m 34.938554,117.03842 q -0.172155,0 -0.29351,0.10725 -0.118534,0.10724 -0.118534,0.26529 0,0.15804 0.118534,0.27093 0.121355,0.11007 0.29351,0.11007 0.169334,0 0.290689,-0.11007 0.121356,-0.11289 0.121356,-0.26811 0,-0.16087 -0.118534,-0.26811 -0.118533,-0.10725 -0.293511,-0.10725 z m 0.270934,-0.69709 q -0.110067,-0.10442 -0.270934,-0.10442 -0.160866,0 -0.273755,0.10442 -0.110066,0.1016 -0.110066,0.25118 0,0.13829 0.110066,0.23707 0.112889,0.0959 0.273755,0.0959 0.158045,0 0.270934,-0.0959 0.112888,-0.096 0.112888,-0.23425 0,-0.14957 -0.112888,-0.254 z m -0.05927,0.64065 q 0.316089,0.14393 0.316089,0.42898 0,0.20602 -0.155222,0.35277 -0.155223,0.14394 -0.372534,0.14394 -0.21731,0 -0.372533,-0.14394 -0.155222,-0.14675 -0.155222,-0.35277 0,-0.28223 0.316089,-0.42898 -0.287867,-0.14676 -0.287867,-0.39511 0,-0.18909 0.146756,-0.32738 0.149578,-0.13829 0.352777,-0.13829 0.2032,0 0.349956,0.13829 0.149577,0.13829 0.149577,0.32738 0,0.24835 -0.287866,0.39511 z"
               id="path2044" />
          </g>
        </g>
        <g
           aria-label="9"
           transform="scale(-1,1)"
           id="text3992"
           style="font-size:2.82222px;line-height:1.25;font-family:FreeMono;-inkscape-font-specification:FreeMono;stroke-width:0.264583">
          <path
             d="m -166.64831,126.67443 q -0.0593,-0.2286 -0.16369,-0.34149 -0.10442,-0.11571 -0.27376,-0.11571 -0.15804,0 -0.26529,0.12418 -0.10442,0.12417 -0.10442,0.3048 0,0.16651 0.10442,0.28786 0.10725,0.12136 0.254,0.12136 0.0706,0 0.13829,-0.0339 0.0706,-0.0339 0.11289,-0.0677 0.0423,-0.0367 0.0903,-0.10442 0.0508,-0.0706 0.0621,-0.0931 0.0141,-0.0226 0.0452,-0.0818 z m -0.86078,1.05833 q 0.008,0 0.0536,0.0198 0.048,0.0198 0.127,0.0198 0.11289,0 0.23142,-0.0508 0.11854,-0.0536 0.22578,-0.14958 0.10725,-0.096 0.17498,-0.25964 0.0705,-0.16369 0.0705,-0.36407 0,-0.0141 -0.006,-0.12135 -0.17216,0.34431 -0.46849,0.34431 -0.19191,0 -0.33302,-0.15522 -0.13829,-0.15523 -0.13829,-0.36971 0,-0.2286 0.14111,-0.38665 0.14111,-0.15804 0.34713,-0.15804 0.25118,0 0.40923,0.23424 0.15804,0.23425 0.15804,0.60396 0,0.42051 -0.23989,0.6858 -0.23706,0.26246 -0.5842,0.26246 -0.0903,0 -0.15804,-0.031 -0.0649,-0.0282 -0.0649,-0.0677 0,-0.0226 0.0141,-0.0395 0.0169,-0.0169 0.0395,-0.0169 z"
             id="path2047" />
        </g>
        <g
           aria-label="10"
           transform="scale(-1,1)"
           id="text3996"
           style="font-size:2.82222px;line-height:1.25;font-family:FreeMono;-inkscape-font-specification:FreeMono;stroke-width:0.264583">
          <path
             d="m -166.95729,136.22318 v 1.61149 h 0.39229 q 0.0762,0 0.0762,0.0564 0,0.0593 -0.0762,0.0593 h -0.90029 q -0.079,0 -0.079,-0.0593 0,-0.0564 0.079,-0.0564 h 0.39229 v -1.45909 l -0.31891,0.31891 q -0.0226,0.0226 -0.0593,0.0226 -0.0226,0 -0.0395,-0.0169 -0.0141,-0.0197 -0.0141,-0.048 0,-0.0254 0.031,-0.0565 l 0.37253,-0.37253 z"
             id="path2050" />
          <path
             d="m -165.32322,136.32196 q -0.19191,0 -0.30198,0.19473 -0.11007,0.19191 -0.11007,0.4572 v 0.25118 q 0,0.27658 0.11289,0.46566 0.11571,0.18627 0.29916,0.18627 0.19191,0 0.30198,-0.19191 0.11006,-0.19473 0.11006,-0.46002 v -0.25118 q 0,-0.27658 -0.11571,-0.46284 -0.11289,-0.18909 -0.29633,-0.18909 z m 0.52775,0.63782 v 0.28222 q 0,0.33302 -0.14675,0.54187 -0.14676,0.20884 -0.381,0.20884 -0.23425,0 -0.381,-0.20884 -0.14676,-0.20885 -0.14676,-0.54187 v -0.28222 q 0,-0.33585 0.14676,-0.54469 0.14675,-0.20884 0.381,-0.20884 0.23424,0 0.381,0.20884 0.14675,0.20884 0.14675,0.54469 z"
             id="path2052" />
        </g>
        <g
           aria-label="11"
           transform="scale(-1,1)"
           id="text4000"
           style="font-size:2.82222px;line-height:1.25;font-family:FreeMono;-inkscape-font-specification:FreeMono;stroke-width:0.264583">
          <path
             d="m -166.95729,146.24633 v 1.61148 h 0.39229 q 0.0762,0 0.0762,0.0565 0,0.0593 -0.0762,0.0593 h -0.90029 q -0.079,0 -0.079,-0.0593 0,-0.0565 0.079,-0.0565 h 0.39229 v -1.45908 l -0.31891,0.31891 q -0.0226,0.0226 -0.0593,0.0226 -0.0226,0 -0.0395,-0.0169 -0.0141,-0.0197 -0.0141,-0.048 0,-0.0254 0.031,-0.0564 l 0.37253,-0.37253 z"
             id="path2055" />
          <path
             d="m -165.26395,146.24633 v 1.61148 h 0.39228 q 0.0762,0 0.0762,0.0565 0,0.0593 -0.0762,0.0593 h -0.90028 q -0.079,0 -0.079,-0.0593 0,-0.0565 0.079,-0.0565 h 0.39228 v -1.45908 l -0.31891,0.31891 q -0.0226,0.0226 -0.0593,0.0226 -0.0226,0 -0.0395,-0.0169 -0.0141,-0.0197 -0.0141,-0.048 0,-0.0254 0.0311,-0.0564 l 0.37253,-0.37253 z"
             id="path2057" />
        </g>
        <g
           aria-label="12"
           transform="scale(-1,1)"
           id="text4004"
           style="font-size:2.82222px;line-height:1.25;font-family:FreeMono;-inkscape-font-specification:FreeMono;stroke-width:0.264583">
          <path
             d="m -166.98932,156.23272 v 1.61148 h 0.39229 q 0.0762,0 0.0762,0.0565 0,0.0593 -0.0762,0.0593 h -0.90029 q -0.079,0 -0.079,-0.0593 0,-0.0565 0.079,-0.0565 h 0.39229 v -1.45908 l -0.31891,0.31891 q -0.0226,0.0226 -0.0593,0.0226 -0.0226,0 -0.0395,-0.0169 -0.0141,-0.0197 -0.0141,-0.048 0,-0.0254 0.0311,-0.0564 l 0.37253,-0.37253 z"
             id="path2060" />
          <path
             d="m -165.9084,156.63347 q 0,-0.127 0.1524,-0.27093 0.15522,-0.14676 0.37253,-0.14676 0.20602,0 0.36124,0.14676 0.15805,0.14675 0.15805,0.33867 0,0.12699 -0.0762,0.23988 -0.0734,0.11007 -0.3302,0.34996 l -0.5842,0.54469 v 0.008 h 0.88617 v -0.1016 q 0,-0.0762 0.0593,-0.0762 0.0564,0 0.0564,0.0762 v 0.21732 h -1.11196 v -0.16934 l 0.66605,-0.62653 q 0.19755,-0.19473 0.25682,-0.28222 0.0621,-0.0875 0.0621,-0.18345 0,-0.14675 -0.12136,-0.25682 -0.12135,-0.11007 -0.28222,-0.11007 -0.14393,0 -0.26247,0.0847 -0.11571,0.0847 -0.14958,0.21167 -0.0169,0.0564 -0.0593,0.0564 -0.0198,0 -0.0367,-0.0141 -0.0169,-0.0169 -0.0169,-0.0367 z"
             id="path2062" />
        </g>
        <g
           aria-label="13"
           transform="scale(-1,1)"
           id="text4008"
           style="font-size:2.82222px;line-height:1.25;font-family:FreeMono;-inkscape-font-specification:FreeMono;stroke-width:0.264583">
          <path
             d="m -166.99444,166.21369 v 1.61149 h 0.39229 q 0.0762,0 0.0762,0.0564 0,0.0593 -0.0762,0.0593 h -0.90029 q -0.079,0 -0.079,-0.0593 0,-0.0564 0.079,-0.0564 h 0.39229 v -1.45909 l -0.31891,0.31891 q -0.0226,0.0226 -0.0593,0.0226 -0.0226,0 -0.0395,-0.0169 -0.0141,-0.0197 -0.0141,-0.048 0,-0.0254 0.031,-0.0565 l 0.37253,-0.37253 z"
             id="path2065" />
          <path
             d="m -165.85426,166.45076 q 0,-0.031 0.0536,-0.0875 0.0564,-0.0565 0.1778,-0.11007 0.12135,-0.0564 0.26529,-0.0564 0.21166,0 0.35277,0.127 0.14394,0.12417 0.14394,0.30762 0,0.16369 -0.0903,0.25964 -0.0903,0.096 -0.20038,0.12418 0.16651,0.0677 0.25964,0.18909 0.0931,0.11853 0.0931,0.26246 0,0.21449 -0.17498,0.36689 -0.17216,0.14958 -0.41487,0.14958 -0.16651,0 -0.35842,-0.0818 -0.18909,-0.0847 -0.18909,-0.15523 0,-0.0197 0.0169,-0.0367 0.0169,-0.0169 0.0367,-0.0169 0.0198,0 0.079,0.0452 0.0593,0.0423 0.16933,0.0875 0.11007,0.0423 0.24835,0.0423 0.19191,0 0.3302,-0.11853 0.14111,-0.11854 0.14111,-0.28223 0,-0.16651 -0.14957,-0.28504 -0.14958,-0.12136 -0.3556,-0.12136 -0.0762,0 -0.0762,-0.0593 0,-0.0565 0.0762,-0.0565 0.44309,0 0.44309,-0.31044 0,-0.13829 -0.11007,-0.2286 -0.11007,-0.0931 -0.27376,-0.0931 -0.11853,0 -0.2032,0.031 -0.0818,0.0282 -0.11571,0.0649 -0.031,0.0367 -0.0621,0.0677 -0.031,0.0282 -0.0564,0.0282 -0.0226,0 -0.0395,-0.0141 -0.0169,-0.0169 -0.0169,-0.0395 z"
             id="path2067" />
        </g>
      </g>
    </g>
  </g>
</svg>
