<?xml version="1.0" encoding="UTF-8" standalone="no"?>
<!-- Created with Inkscape (http://www.inkscape.org/) -->

<svg
   width="88.010002mm"
   height="109.54125mm"
   viewBox="0 0 88.010002 109.54125"
   version="1.1"
   id="svg916"
   sodipodi:docname="mrad-schablone-100.svg"
   inkscape:version="1.2.2 (b0a8486541, 2022-12-01)"
   xmlns:inkscape="http://www.inkscape.org/namespaces/inkscape"
   xmlns:sodipodi="http://sodipodi.sourceforge.net/DTD/sodipodi-0.dtd"
   xmlns="http://www.w3.org/2000/svg"
   xmlns:svg="http://www.w3.org/2000/svg">
  <sodipodi:namedview
     id="namedview918"
     pagecolor="#ffffff"
     bordercolor="#666666"
     borderopacity="1.0"
     inkscape:showpageshadow="2"
     inkscape:pageopacity="0.0"
     inkscape:pagecheckerboard="0"
     inkscape:deskcolor="#d1d1d1"
     inkscape:document-units="mm"
     showgrid="true"
     inkscape:zoom="1.4568633"
     inkscape:cx="202.14662"
     inkscape:cy="198.71459"
     inkscape:window-width="1920"
     inkscape:window-height="1030"
     inkscape:window-x="0"
     inkscape:window-y="0"
     inkscape:window-maximized="1"
     inkscape:current-layer="layer1"
     showguides="true">
    <inkscape:grid
       type="xygrid"
       id="grid6463" />
  </sodipodi:namedview>
  <defs
     id="defs913">
    <inkscape:path-effect
       effect="ruler"
       id="path-effect2898"
       is_visible="true"
       lpeversion="1"
       unit="cm"
       mark_distance="0.5"
       mark_length="0.5"
       minor_mark_length="0.3"
       major_mark_steps="2"
       shift="0"
       offset="0"
       mark_dir="both"
       border_marks="both" />
    <inkscape:path-effect
       effect="ruler"
       id="path-effect2904"
       is_visible="true"
       lpeversion="1"
       unit="in"
       mark_distance="0.2"
       mark_length="0.2"
       minor_mark_length="0.1"
       major_mark_steps="5"
       shift="0"
       offset="0"
       mark_dir="both"
       border_marks="both" />
    <inkscape:path-effect
       effect="ruler"
       id="path-effect2898-3"
       is_visible="true"
       lpeversion="1"
       unit="cm"
       mark_distance="0.5"
       mark_length="0.5"
       minor_mark_length="0.3"
       major_mark_steps="2"
       shift="0"
       offset="0"
       mark_dir="both"
       border_marks="both" />
    <inkscape:path-effect
       effect="ruler"
       id="path-effect2904-6"
       is_visible="true"
       lpeversion="1"
       unit="in"
       mark_distance="0.2"
       mark_length="0.2"
       minor_mark_length="0.1"
       major_mark_steps="5"
       shift="0"
       offset="0"
       mark_dir="both"
       border_marks="both" />
  </defs>
  <g
     inkscape:label="Ebene 1"
     inkscape:groupmode="layer"
     id="layer1"
     transform="translate(-31.239141,-38.969609)">
    <g
       id="g8853">
      <g
         aria-label="MRAD 100m"
         transform="scale(-0.84638745,1.181492)"
         id="text113"
         style="font-size:8.39374px;line-height:1.25;stroke-width:0.209844">
        <path
           d="m -108.53332,44.800009 q 0,-0.193056 0.1259,-0.302175 0.1343,-0.117512 0.34415,-0.117512 h 0.37772 v -2.425791 l -0.93171,2.115223 h -0.76383 l -0.99046,-2.106829 v 2.417397 h 0.37772 q 0.20145,0 0.33575,0.117512 0.1343,0.109119 0.1343,0.302175 0,0.419687 -0.47005,0.419687 h -1.16673 q -0.4029,0 -0.4029,-0.419687 0,-0.419687 0.35254,-0.419687 v -3.206408 q -0.35254,-0.06715 -0.35254,-0.428081 0,-0.419687 0.43647,-0.419687 h 0.9485 l 1.15833,2.501334 1.13316,-2.501334 h 0.92331 q 0.22663,0 0.32735,0.09233 0.10912,0.08394 0.10912,0.327356 0,0.335749 -0.31896,0.419687 v 3.214802 q 0.1343,0 0.22663,0.117512 0.0923,0.109119 0.0923,0.302175 0,0.419687 -0.36093,0.419687 h -1.17512 q -0.47005,0 -0.47005,-0.419687 z"
           style="font-weight:bold;font-family:FreeMono;-inkscape-font-specification:'FreeMono Bold'"
           id="path8541" />
        <path
           d="m -101.50776,44.800009 q 0,0.20145 -0.1259,0.310568 -0.12591,0.109119 -0.33575,0.109119 h -0.66311 q -0.31057,-0.604349 -0.7974,-1.183517 -0.47845,-0.587562 -0.74705,-0.679893 h -0.8058 v 1.024036 h 0.29378 q 0.25182,0 0.4029,0.117512 0.15109,0.109119 0.15109,0.302175 0,0.20145 -0.15109,0.310568 -0.15108,0.109119 -0.4029,0.109119 h -1.25906 q -0.55398,0 -0.55398,-0.419687 0,-0.419687 0.55398,-0.419687 h 0.12591 V 41.16552 h -0.12591 q -0.55398,0 -0.55398,-0.419687 0,-0.243419 0.14269,-0.327356 0.14269,-0.09233 0.41129,-0.09233 h 1.87181 q 0.81419,0 1.32621,0.419687 0.52041,0.411293 0.52041,1.074398 0,0.772225 -0.90652,1.267455 0.54559,0.478443 1.05761,1.292636 0.29378,0 0.42808,0.09233 0.14269,0.09233 0.14269,0.327356 z m -3.47501,-2.283097 h 0.63793 q 0.5288,0 0.87295,-0.20145 0.35253,-0.209843 0.35253,-0.520412 0,-0.268599 -0.2602,-0.444868 -0.26021,-0.184662 -0.66311,-0.184662 h -0.9401 z"
           style="font-weight:bold;font-family:FreeMono;-inkscape-font-specification:'FreeMono Bold'"
           id="path8543" />
        <path
           d="m -98.553158,44.800009 q 0,-0.419687 0.553987,-0.419687 h 0.193056 l -0.193056,-0.486837 h -1.99771 l -0.193059,0.486837 h 0.193059 q 0.553987,0 0.553987,0.419687 0,0.218237 -0.125906,0.318962 -0.117513,0.100725 -0.428081,0.100725 h -1.032429 q -0.46166,0 -0.46166,-0.419687 0,-0.20145 0.10912,-0.310568 0.10912,-0.109119 0.277,-0.109119 l 1.301025,-3.214802 h -0.528805 q -0.56238,0 -0.56238,-0.419687 0,-0.251812 0.14269,-0.33575 0.15109,-0.08394 0.41969,-0.08394 h 1.813047 l 1.670354,4.054176 q 0.193056,0 0.293781,0.09233 0.100725,0.09233 0.100725,0.327356 0,0.243419 -0.109119,0.33575 -0.109118,0.08394 -0.352537,0.08394 h -1.082792 q -0.327356,0 -0.444868,-0.100725 -0.109119,-0.100725 -0.109119,-0.318962 z m 0.209844,-1.745898 -0.654712,-1.611598 -0.663106,1.611598 z"
           style="font-weight:bold;font-family:FreeMono;-inkscape-font-specification:'FreeMono Bold'"
           id="path8545" />
        <path
           d="m -95.78322,45.219696 q -0.562381,0 -0.562381,-0.419687 0,-0.20145 0.1343,-0.310568 0.1343,-0.109119 0.377718,-0.109119 V 41.16552 q -0.512018,0 -0.512018,-0.419687 0,-0.251812 0.142694,-0.33575 0.151087,-0.08394 0.419687,-0.08394 h 1.779472 q 0.914918,0 1.536055,0.671499 0.62953,0.671499 0.62953,1.66196 v 0.394506 q 0,0.982068 -0.612743,1.578023 -0.604349,0.587562 -1.619991,0.587562 z m 3.105683,-2.576878 q 0,-0.629531 -0.386112,-1.049218 -0.377718,-0.42808 -1.007248,-0.42808 h -0.923312 v 3.214802 h 0.931705 q 0.419687,0 0.705074,-0.125906 0.293781,-0.125906 0.428081,-0.344143 0.142694,-0.218238 0.193056,-0.428081 0.05876,-0.209844 0.05876,-0.453262 z"
           style="font-weight:bold;font-family:FreeMono;-inkscape-font-specification:'FreeMono Bold'"
           id="path8547" />
        <path
           d="m -85.685545,44.800009 q 0,-0.243418 0.142694,-0.327356 0.142694,-0.09233 0.411293,-0.09233 h 0.847768 v -3.592521 l -0.688287,0.486837 q -0.125906,0.109119 -0.344143,0.109119 -0.142694,0 -0.251812,-0.09233 -0.100725,-0.09233 -0.100725,-0.243419 0,-0.134299 0.05876,-0.218237 0.05876,-0.09233 0.20145,-0.193056 l 1.133155,-0.772224 h 0.83098 v 4.515832 h 0.847768 q 0.553986,0 0.553986,0.419687 0,0.419687 -0.553986,0.419687 h -2.53491 q -0.553987,0 -0.553987,-0.419687 z"
           style="font-weight:bold;font-family:FreeMono;-inkscape-font-specification:'FreeMono Bold'"
           id="path8549" />
        <path
           d="m -78.827856,39.86449 q 0.889737,0 1.351392,0.679893 0.47005,0.679893 0.47005,1.66196 v 0.797406 q 0,0.62953 -0.193056,1.149942 -0.184663,0.512018 -0.612743,0.856162 -0.419687,0.335749 -1.015643,0.335749 -0.889736,0 -1.359786,-0.679893 -0.461655,-0.679893 -0.461655,-1.66196 v -0.797406 q 0,-0.62953 0.184662,-1.141548 0.193056,-0.520412 0.612743,-0.856162 0.428081,-0.344143 1.024036,-0.344143 z m -0.982067,2.283097 v 0.914918 q 0,0.654712 0.268599,1.049217 0.2686,0.394506 0.713468,0.394506 0.444868,0 0.713468,-0.394506 0.2686,-0.394505 0.2686,-1.049217 v -0.914918 q 0,-0.654711 -0.2686,-1.049217 -0.2686,-0.394506 -0.713468,-0.394506 -0.444868,0 -0.713468,0.394506 -0.268599,0.394506 -0.268599,1.049217 z"
           style="font-weight:bold;font-family:FreeMono;-inkscape-font-specification:'FreeMono Bold'"
           id="path8551" />
        <path
           d="m -73.791609,39.86449 q 0.889737,0 1.351392,0.679893 0.47005,0.679893 0.47005,1.66196 v 0.797406 q 0,0.62953 -0.193056,1.149942 -0.184662,0.512018 -0.612743,0.856162 -0.419687,0.335749 -1.015643,0.335749 -0.889736,0 -1.359785,-0.679893 -0.461656,-0.679893 -0.461656,-1.66196 v -0.797406 q 0,-0.62953 0.184662,-1.141548 0.193056,-0.520412 0.612743,-0.856162 0.428081,-0.344143 1.024036,-0.344143 z m -0.982067,2.283097 v 0.914918 q 0,0.654712 0.2686,1.049217 0.268599,0.394506 0.713467,0.394506 0.444869,0 0.713468,-0.394506 0.2686,-0.394505 0.2686,-1.049217 v -0.914918 q 0,-0.654711 -0.2686,-1.049217 -0.268599,-0.394506 -0.713468,-0.394506 -0.444868,0 -0.713467,0.394506 -0.2686,0.394506 -0.2686,1.049217 z"
           style="font-weight:bold;font-family:FreeMono;-inkscape-font-specification:'FreeMono Bold'"
           id="path8553" />
        <path
           d="m -70.870584,45.219696 q -0.402899,0 -0.402899,-0.419687 0,-0.419687 0.344143,-0.419687 v -1.989316 q -0.33575,0 -0.33575,-0.419687 0,-0.419687 0.394506,-0.419687 h 0.780618 v 0.20145 q 0.235025,-0.184663 0.360931,-0.243419 0.125906,-0.06715 0.310568,-0.06715 0.478443,0 0.856162,0.411293 0.377718,-0.411293 0.83098,-0.411293 0.470049,0 0.780618,0.318962 0.318962,0.310569 0.318962,0.780618 v 1.838229 q 0.151087,0 0.268599,0.117512 0.125907,0.109119 0.125907,0.302175 0,0.193056 -0.1343,0.310568 -0.1343,0.109119 -0.310569,0.109119 h -0.789011 v -2.610453 q 0,-0.327356 -0.293781,-0.327356 -0.159481,0 -0.2686,0.07554 -0.100725,0.06715 -0.327356,0.302174 v 1.720717 q 0.461656,0 0.461656,0.419687 0,0.419687 -0.512018,0.419687 h -0.789012 v -2.610453 q 0,-0.327356 -0.29378,-0.327356 -0.167875,0 -0.285388,0.07554 -0.117512,0.07554 -0.310568,0.302174 v 1.720717 q 0.193056,0 0.310568,0.109119 0.117513,0.109118 0.117513,0.310568 0,0.20145 -0.125906,0.310568 -0.125906,0.109119 -0.344144,0.109119 z"
           style="font-weight:bold;font-family:FreeMono;-inkscape-font-specification:'FreeMono Bold'"
           id="path8555" />
      </g>
      <path
         id="path7598"
         style="fill:none;fill-opacity:0;stroke:#000000;stroke-width:0.2"
         transform="scale(-1,1)"
         d="m -70.469451,100.26186 a 4.9006205,4.9006205 0 0 1 -4.90062,4.90062 4.9006205,4.9006205 0 0 1 -4.900621,-4.90062 4.9006205,4.9006205 0 0 1 4.900621,-4.900617 4.9006205,4.9006205 0 0 1 4.90062,4.900617 z" />
      <path
         id="path7600"
         style="fill:none;fill-opacity:0;stroke:#000000;stroke-width:0.200767"
         transform="scale(-1,1)"
         d="m -72.960903,100.27142 a 2.3996165,2.3996165 0 0 1 -2.399616,2.39962 2.3996165,2.3996165 0 0 1 -2.399617,-2.39962 2.3996165,2.3996165 0 0 1 2.399617,-2.399613 2.3996165,2.3996165 0 0 1 2.399616,2.399613 z" />
      <g
         id="path6142"
         transform="translate(-0.43132785,0.68104356)"
         style="stroke:#ff0000;stroke-width:0.00035278;stroke-dasharray:none;stroke-opacity:1">
        <path
           style="color:#000000;fill:#ff0000;fill-opacity:0.00774159;stroke:#ff0000;stroke-width:0.00035278;stroke-dasharray:none;stroke-opacity:1"
           d="m 111.79528,138.45567 a 2.9953923,2.9953923 0 0 1 -2.99539,2.9954 2.9953923,2.9953923 0 0 1 -2.99539,-2.9954 2.9953923,2.9953923 0 0 1 2.99539,-2.99539 2.9953923,2.9953923 0 0 1 2.99539,2.99539 z"
           id="path343" />
        <path
           style="color:#000000;fill:#ff0000;stroke:#ff0000;stroke-width:0.00035278;stroke-dasharray:none;stroke-opacity:1"
           d="m 108.80078,135.45508 c -1.65701,0 -3.00195,1.34299 -3.00195,3 0,1.65701 1.34494,3.00195 3.00195,3.00195 1.65701,0 3,-1.34494 3,-3.00195 0,-1.65701 -1.34299,-3 -3,-3 z m 0,0.01 c 1.65161,0 2.99024,1.33863 2.99024,2.99024 0,1.6516 -1.33863,2.99023 -2.99024,2.99023 -1.6516,0 -2.99219,-1.33863 -2.99219,-2.99023 0,-1.65161 1.34059,-2.99024 2.99219,-2.99024 z"
           id="path345" />
      </g>
      <g
         id="path6142-1"
         transform="translate(-67.925119,-89.870755)"
         style="stroke:#ff0000;stroke-opacity:1;stroke-width:0.00035278;stroke-dasharray:none">
        <path
           style="color:#000000;fill:#ff0000;fill-opacity:0.00774159;stroke-width:0.00035278;stroke:#ff0000;stroke-opacity:1;stroke-dasharray:none"
           d="m 111.79528,138.45567 a 2.9953923,2.9953923 0 0 1 -2.99539,2.9954 2.9953923,2.9953923 0 0 1 -2.99539,-2.9954 2.9953923,2.9953923 0 0 1 2.99539,-2.99539 2.9953923,2.9953923 0 0 1 2.99539,2.99539 z"
           id="path343-2" />
        <path
           style="color:#000000;fill:#ff0000;stroke:#ff0000;stroke-opacity:1;stroke-width:0.00035278;stroke-dasharray:none"
           d="m 108.80078,135.45508 c -1.65701,0 -3.00195,1.34299 -3.00195,3 0,1.65701 1.34494,3.00195 3.00195,3.00195 1.65701,0 3,-1.34494 3,-3.00195 0,-1.65701 -1.34299,-3 -3,-3 z m 0,0.01 c 1.65161,0 2.99024,1.33863 2.99024,2.99024 0,1.6516 -1.33863,2.99023 -2.99024,2.99023 -1.6516,0 -2.99219,-1.33863 -2.99219,-2.99023 0,-1.65161 1.34059,-2.99024 2.99219,-2.99024 z"
           id="path345-9" />
      </g>
      <g
         id="path6142-3"
         transform="translate(0.91526831,-89.870753)"
         style="stroke-width:0.00035278;stroke-dasharray:none;stroke:#ff0000;stroke-opacity:1">
        <path
           style="color:#000000;fill:#ff0000;fill-opacity:0.00774159;stroke-width:0.00035278;stroke-dasharray:none;stroke:#ff0000;stroke-opacity:1"
           d="m 111.79528,138.45567 a 2.9953923,2.9953923 0 0 1 -2.99539,2.9954 2.9953923,2.9953923 0 0 1 -2.99539,-2.9954 2.9953923,2.9953923 0 0 1 2.99539,-2.99539 2.9953923,2.9953923 0 0 1 2.99539,2.99539 z"
           id="path343-1" />
        <path
           style="color:#000000;fill:#ff0000;stroke-width:0.00035278;stroke-dasharray:none;stroke:#ff0000;stroke-opacity:1"
           d="m 108.80078,135.45508 c -1.65701,0 -3.00195,1.34299 -3.00195,3 0,1.65701 1.34494,3.00195 3.00195,3.00195 1.65701,0 3,-1.34494 3,-3.00195 0,-1.65701 -1.34299,-3 -3,-3 z m 0,0.01 c 1.65161,0 2.99024,1.33863 2.99024,2.99024 0,1.6516 -1.33863,2.99023 -2.99024,2.99023 -1.6516,0 -2.99219,-1.33863 -2.99219,-2.99023 0,-1.65161 1.34059,-2.99024 2.99219,-2.99024 z"
           id="path345-94" />
      </g>
      <path
         style="color:#000000;fill:none;stroke-width:0.00035278;stroke-dasharray:none;stroke:#ff0000;stroke-opacity:1"
         d="m 41.896484,38.96875 c -5.903257,0 -10.658203,4.752993 -10.658203,10.65625 v 88.22852 c 0,5.90324 4.754945,10.6582 10.658203,10.6582 h 66.697266 c 5.90326,0 10.65625,-4.75496 10.65625,-10.6582 V 49.625 c 0,-5.903256 -4.75299,-10.65625 -10.65625,-10.65625 z m 0,0.01953 h 0.0059 66.691406 c 5.89322,0 10.63672,4.7435 10.63672,10.636719 v 88.22852 c 0,5.89321 -4.7435,10.63671 -10.63672,10.63671 H 41.896484 c -5.89322,0 -10.636718,-4.7435 -10.636718,-10.63671 V 49.625 c 0,-5.893219 4.743498,-10.636719 10.636718,-10.636719 z"
         id="path6408" />
      <path
         id="path1020"
         style="fill:none;fill-opacity:0.166656;stroke:#000000;stroke-width:0.199464"
         transform="scale(-1,1)"
         d="m -67.989983,100.24168 a 7.4002681,7.4002681 0 0 1 -7.400268,7.40026 7.4002681,7.4002681 0 0 1 -7.400268,-7.40026 7.4002681,7.4002681 0 0 1 7.400268,-7.400272 7.4002681,7.4002681 0 0 1 7.400268,7.400272 z" />
      <path
         id="path1126"
         style="fill:none;fill-opacity:0.166656;stroke:#000000;stroke-width:0.199742"
         transform="scale(-1,1)"
         d="m -65.482874,100.24892 a 9.9001293,9.9001293 0 0 1 -9.900129,9.90013 9.9001293,9.9001293 0 0 1 -9.90013,-9.90013 9.9001293,9.9001293 0 0 1 9.90013,-9.900133 9.9001293,9.9001293 0 0 1 9.900129,9.900133 z" />
      <path
         id="path1128"
         style="fill:none;fill-opacity:0.166656;stroke:#000000;stroke-width:0.199766"
         transform="scale(-1,1)"
         d="m -62.990134,100.24168 a 12.400117,12.400117 0 0 1 -12.400117,12.40011 12.400117,12.400117 0 0 1 -12.400117,-12.40011 12.400117,12.400117 0 0 1 12.400117,-12.400121 12.400117,12.400117 0 0 1 12.400117,12.400121 z" />
      <g
         aria-label="0.05"
         transform="scale(-1,1)"
         id="text1858"
         style="font-size:1.41111px;line-height:1.25;stroke-width:0.264583">
        <path
           d="m -76.016689,100.26789 q 0,0.16228 -0.03387,0.2794 -0.03387,0.11571 -0.107244,0.1778 -0.07338,0.0621 -0.194733,0.0621 -0.170745,0 -0.252589,-0.13688 -0.08043,-0.13828 -0.08043,-0.38241 0,-0.16368 0.03245,-0.279396 0.03387,-0.115711 0.107245,-0.176389 0.07338,-0.06209 0.193322,-0.06209 0.169333,0 0.252588,0.136877 0.08326,0.135466 0.08326,0.380996 z m -0.544689,0 q 0,0.20744 0.04657,0.31045 0.04798,0.10301 0.162278,0.10301 0.112888,0 0.160866,-0.1016 0.04939,-0.10301 0.04939,-0.31186 0,-0.20602 -0.04939,-0.309029 -0.04798,-0.103011 -0.160866,-0.103011 -0.1143,0 -0.162278,0.103011 -0.04657,0.103009 -0.04657,0.309029 z"
           id="path8563" />
        <path
           d="m -75.845944,100.69687 q 0,-0.0522 0.0254,-0.0734 0.0254,-0.0212 0.06068,-0.0212 0.03669,0 0.06209,0.0212 0.02681,0.0212 0.02681,0.0734 0,0.0508 -0.02681,0.0734 -0.0254,0.0226 -0.06209,0.0226 -0.03528,0 -0.06068,-0.0226 -0.0254,-0.0226 -0.0254,-0.0734 z"
           id="path8565" />
        <path
           d="m -74.831356,100.26789 q 0,0.16228 -0.03387,0.2794 -0.03387,0.11571 -0.107245,0.1778 -0.07338,0.0621 -0.194733,0.0621 -0.170744,0 -0.252588,-0.13688 -0.08043,-0.13828 -0.08043,-0.38241 0,-0.16368 0.03246,-0.279396 0.03387,-0.115711 0.107244,-0.176389 0.07338,-0.06209 0.193322,-0.06209 0.169334,0 0.252589,0.136877 0.08326,0.135466 0.08326,0.380996 z m -0.544689,0 q 0,0.20744 0.04657,0.31045 0.04798,0.10301 0.162277,0.10301 0.112889,0 0.160867,-0.1016 0.04939,-0.10301 0.04939,-0.31186 0,-0.20602 -0.04939,-0.309029 -0.04798,-0.103011 -0.160867,-0.103011 -0.1143,0 -0.162277,0.103011 -0.04657,0.103009 -0.04657,0.309029 z"
           id="path8567" />
        <path
           d="m -74.374156,100.15501 q 0.155222,0 0.246944,0.0776 0.09172,0.0776 0.09172,0.21872 0,0.15663 -0.100188,0.24694 -0.09878,0.0889 -0.276578,0.0889 -0.07761,0 -0.146755,-0.0141 -0.06773,-0.0141 -0.1143,-0.0409 v -0.11712 q 0.0508,0.031 0.122766,0.0494 0.07338,0.0169 0.1397,0.0169 0.111478,0 0.179211,-0.0522 0.06914,-0.0536 0.06914,-0.1651 0,-0.0988 -0.06068,-0.15099 -0.06068,-0.0536 -0.191911,-0.0536 -0.03951,0 -0.09031,0.007 -0.0508,0.007 -0.08185,0.0141 l -0.06209,-0.0395 0.0381,-0.475541 h 0.505178 v 0.112889 h -0.399344 l -0.02399,0.292102 q 0.02399,-0.004 0.06491,-0.01 0.04092,-0.006 0.09031,-0.006 z"
           id="path8569" />
      </g>
      <g
         aria-label="0.1"
         transform="scale(-1,1)"
         id="text1862"
         style="font-size:2.11667px;line-height:1.25;stroke-width:0.264583">
        <path
           d="m -75.570068,103.8223 q 0,0.24342 -0.0508,0.4191 -0.0508,0.17357 -0.160867,0.2667 -0.110066,0.0931 -0.2921,0.0931 -0.256117,0 -0.378884,-0.20532 -0.12065,-0.20743 -0.12065,-0.57362 0,-0.24553 0.04868,-0.4191 0.0508,-0.17356 0.160867,-0.26458 0.110067,-0.0931 0.289984,-0.0931 0.254,0 0.378884,0.20532 0.124883,0.2032 0.124883,0.5715 z m -0.817034,0 q 0,0.31115 0.06985,0.46567 0.07197,0.15452 0.243417,0.15452 0.169334,0 0.2413,-0.1524 0.07408,-0.15452 0.07408,-0.46779 0,-0.30903 -0.07408,-0.46355 -0.07197,-0.15451 -0.2413,-0.15451 -0.17145,0 -0.243417,0.15451 -0.06985,0.15452 -0.06985,0.46355 z"
           id="path8572" />
        <path
           d="m -75.313949,104.46577 q 0,-0.0783 0.0381,-0.11007 0.0381,-0.0318 0.09102,-0.0318 0.05503,0 0.09313,0.0318 0.04022,0.0318 0.04022,0.11007 0,0.0762 -0.04022,0.11007 -0.0381,0.0339 -0.09313,0.0339 -0.05292,0 -0.09102,-0.0339 -0.0381,-0.0339 -0.0381,-0.11007 z"
           id="path8574" />
        <path
           d="m -74.147665,104.58007 h -0.182034 v -1.05622 q 0,-0.091 0.0021,-0.14605 0.0021,-0.055 0.0064,-0.1143 -0.03387,0.0339 -0.06138,0.0572 -0.02752,0.0233 -0.06985,0.0593 l -0.160866,0.13123 -0.09737,-0.12488 0.408517,-0.3175 h 0.154517 z"
           id="path8576" />
      </g>
      <g
         aria-label="0.2"
         transform="scale(-1,1)"
         id="text1866"
         style="font-size:2.11667px;line-height:1.25;stroke-width:0.264583">
        <path
           d="m -75.579352,106.32666 q 0,0.24342 -0.0508,0.4191 -0.0508,0.17357 -0.160866,0.2667 -0.110067,0.0931 -0.292101,0.0931 -0.256117,0 -0.378884,-0.20531 -0.12065,-0.20744 -0.12065,-0.57362 0,-0.24553 0.04868,-0.4191 0.0508,-0.17357 0.160867,-0.26459 0.110067,-0.0931 0.289984,-0.0931 0.254,0 0.378884,0.20532 0.124884,0.2032 0.124884,0.5715 z m -0.817035,0 q 0,0.31115 0.06985,0.46567 0.07197,0.15451 0.243417,0.15451 0.169334,0 0.2413,-0.1524 0.07408,-0.15451 0.07408,-0.46778 0,-0.30903 -0.07408,-0.46355 -0.07197,-0.15452 -0.2413,-0.15452 -0.17145,0 -0.243417,0.15452 -0.06985,0.15452 -0.06985,0.46355 z"
           id="path8579" />
        <path
           d="m -75.323234,106.97013 q 0,-0.0783 0.0381,-0.11007 0.0381,-0.0318 0.09102,-0.0318 0.05503,0 0.09313,0.0318 0.04022,0.0318 0.04022,0.11007 0,0.0762 -0.04022,0.11006 -0.0381,0.0339 -0.09313,0.0339 -0.05292,0 -0.09102,-0.0339 -0.0381,-0.0339 -0.0381,-0.11006 z"
           id="path8581" />
        <path
           d="m -73.8077,107.08443 h -0.999068 v -0.15452 l 0.395818,-0.40005 q 0.1143,-0.1143 0.192617,-0.2032 0.07832,-0.0889 0.118533,-0.17357 0.04022,-0.0868 0.04022,-0.18838 0,-0.12489 -0.07408,-0.18839 -0.07408,-0.0656 -0.192617,-0.0656 -0.110066,0 -0.194733,0.0381 -0.08255,0.0381 -0.169334,0.10583 l -0.09948,-0.12488 q 0.0889,-0.0741 0.2032,-0.12489 0.116417,-0.0529 0.26035,-0.0529 0.211667,0 0.334434,0.10795 0.122767,0.10583 0.122767,0.29422 0,0.11853 -0.04868,0.22225 -0.04868,0.10371 -0.135467,0.20531 -0.08678,0.0995 -0.203201,0.21379 l -0.315383,0.31115 v 0.008 h 0.764117 z"
           id="path8583" />
      </g>
      <g
         aria-label="0.3"
         transform="scale(-1,1)"
         id="text1870"
         style="font-size:2.11667px;line-height:1.25;stroke-width:0.264583">
        <path
           d="m -75.574058,108.83102 q 0,0.24342 -0.0508,0.4191 -0.0508,0.17357 -0.160867,0.2667 -0.110067,0.0931 -0.2921,0.0931 -0.256117,0 -0.378884,-0.20532 -0.12065,-0.20743 -0.12065,-0.57362 0,-0.24553 0.04868,-0.4191 0.0508,-0.17356 0.160867,-0.26458 0.110067,-0.0931 0.289984,-0.0931 0.254,0 0.378884,0.20531 0.124883,0.2032 0.124883,0.5715 z m -0.817034,0 q 0,0.31115 0.06985,0.46567 0.07197,0.15452 0.243417,0.15452 0.169333,0 0.2413,-0.1524 0.07408,-0.15452 0.07408,-0.46779 0,-0.30903 -0.07408,-0.46355 -0.07197,-0.15451 -0.2413,-0.15451 -0.17145,0 -0.243417,0.15451 -0.06985,0.15452 -0.06985,0.46355 z"
           id="path8586" />
        <path
           d="m -75.31794,109.47449 q 0,-0.0783 0.0381,-0.11007 0.0381,-0.0318 0.09102,-0.0318 0.05503,0 0.09313,0.0318 0.04022,0.0318 0.04022,0.11007 0,0.0762 -0.04022,0.11007 -0.0381,0.0339 -0.09313,0.0339 -0.05292,0 -0.09102,-0.0339 -0.0381,-0.0339 -0.0381,-0.11007 z"
           id="path8588" />
        <path
           d="m -73.859555,108.43097 q 0,0.1524 -0.08467,0.24342 -0.08467,0.0889 -0.2286,0.11853 v 0.008 q 0.182034,0.0212 0.270934,0.1143 0.0889,0.0931 0.0889,0.24342 0,0.13123 -0.06138,0.23495 -0.06138,0.1016 -0.1905,0.15875 -0.127,0.0572 -0.328084,0.0572 -0.118533,0 -0.220133,-0.0191 -0.1016,-0.0169 -0.194734,-0.0635 v -0.17357 q 0.09525,0.0466 0.205317,0.0741 0.110067,0.0254 0.211667,0.0254 0.2032,0 0.2921,-0.0783 0.09102,-0.0804 0.09102,-0.22014 0,-0.14181 -0.112183,-0.2032 -0.110067,-0.0635 -0.311151,-0.0635 h -0.14605 v -0.15875 h 0.148167 q 0.186267,0 0.281517,-0.0783 0.09737,-0.0783 0.09737,-0.20744 0,-0.11006 -0.07408,-0.16933 -0.07408,-0.0614 -0.201083,-0.0614 -0.122767,0 -0.209551,0.036 -0.08678,0.036 -0.17145,0.091 l -0.09313,-0.127 q 0.08043,-0.0635 0.198967,-0.11007 0.12065,-0.0466 0.27305,-0.0466 0.237067,0 0.351367,0.10584 0.116417,0.10583 0.116417,0.26881 z"
           id="path8590" />
      </g>
      <g
         aria-label="0.4"
         transform="scale(-1,1)"
         id="text2600"
         style="font-size:2.11667px;line-height:1.25;stroke-width:0.264583">
        <path
           d="m -75.580192,111.47179 q 0,0.24341 -0.0508,0.4191 -0.0508,0.17356 -0.160867,0.2667 -0.110067,0.0931 -0.2921,0.0931 -0.256117,0 -0.378884,-0.20532 -0.12065,-0.20743 -0.12065,-0.57361 0,-0.24554 0.04868,-0.41911 0.0508,-0.17356 0.160867,-0.26458 0.110067,-0.0931 0.289984,-0.0931 0.254,0 0.378884,0.20531 0.124883,0.2032 0.124883,0.57151 z m -0.817034,0 q 0,0.31115 0.06985,0.46566 0.07197,0.15452 0.243417,0.15452 0.169333,0 0.2413,-0.1524 0.07408,-0.15452 0.07408,-0.46778 0,-0.30904 -0.07408,-0.46356 -0.07197,-0.15451 -0.2413,-0.15451 -0.17145,0 -0.243417,0.15451 -0.06985,0.15452 -0.06985,0.46356 z"
           id="path8593" />
        <path
           d="m -75.324074,112.11525 q 0,-0.0783 0.0381,-0.11006 0.0381,-0.0318 0.09102,-0.0318 0.05503,0 0.09313,0.0318 0.04022,0.0318 0.04022,0.11006 0,0.0762 -0.04022,0.11007 -0.0381,0.0339 -0.09313,0.0339 -0.05292,0 -0.09102,-0.0339 -0.0381,-0.0339 -0.0381,-0.11007 z"
           id="path8595" />
        <path
           d="m -73.740805,111.88665 h -0.220134 v 0.3429 h -0.179917 v -0.3429 h -0.723901 v -0.15875 l 0.711201,-1.01812 h 0.192617 v 1.00966 h 0.220134 z m -0.400051,-0.64346 q 0,-0.11007 0.0042,-0.18627 0.0042,-0.0783 0.0063,-0.14817 h -0.0085 q -0.01693,0.0402 -0.04233,0.0868 -0.0254,0.0466 -0.04868,0.0783 l -0.452967,0.64559 h 0.541867 z"
           id="path8597" />
      </g>
      <path
         id="path2602"
         style="fill:none;fill-opacity:0.166656;stroke:#000000;stroke-width:0.2"
         transform="scale(-1,1)"
         d="m -60.459094,100.24168 a 14.901425,14.901425 0 0 1 -14.901425,14.90142 14.901425,14.901425 0 0 1 -14.901426,-14.90142 14.901425,14.901425 0 0 1 14.901426,-14.901429 14.901425,14.901425 0 0 1 14.901425,14.901429 z" />
      <path
         id="path2604"
         style="fill:none;fill-opacity:0.166656;stroke:#000000;stroke-width:0.2"
         transform="scale(-1,1)"
         d="m -57.955881,100.24168 a 17.404638,17.404638 0 0 1 -17.404638,17.40463 17.404638,17.404638 0 0 1 -17.404639,-17.40463 17.404638,17.404638 0 0 1 17.404639,-17.404642 17.404638,17.404638 0 0 1 17.404638,17.404642 z" />
      <path
         id="path2606"
         style="fill:none;fill-opacity:0.166656;stroke:#000000;stroke-width:0.19983"
         transform="scale(-1,1)"
         d="m -55.460434,100.24168 a 19.900085,19.900085 0 0 1 -19.900085,19.90008 19.900085,19.900085 0 0 1 -19.900086,-19.90008 19.900085,19.900085 0 0 1 19.900086,-19.900089 19.900085,19.900085 0 0 1 19.900085,19.900089 z" />
      <path
         id="path2608"
         style="fill:none;fill-opacity:0.166656;stroke:#000000;stroke-width:0.199934"
         transform="scale(-1,1)"
         d="m -52.982969,100.26186 a 22.400034,22.400032 0 0 1 -22.400034,22.40004 22.400034,22.400032 0 0 1 -22.400034,-22.40004 22.400034,22.400032 0 0 1 22.400034,-22.400028 22.400034,22.400032 0 0 1 22.400034,22.400028 z" />
      <g
         aria-label="0.5"
         transform="scale(-1,1)"
         id="text2612"
         style="font-size:2.11667px;line-height:1.25;stroke-width:0.264583">
        <path
           d="m -75.597839,113.85308 q 0,0.24342 -0.0508,0.4191 -0.0508,0.17357 -0.160867,0.2667 -0.110066,0.0931 -0.2921,0.0931 -0.256117,0 -0.378884,-0.20531 -0.12065,-0.20744 -0.12065,-0.57362 0,-0.24553 0.04868,-0.4191 0.0508,-0.17357 0.160867,-0.26458 0.110067,-0.0931 0.289984,-0.0931 0.254,0 0.378884,0.20532 0.124883,0.2032 0.124883,0.5715 z m -0.817034,0 q 0,0.31115 0.06985,0.46567 0.07197,0.15451 0.243417,0.15451 0.169334,0 0.2413,-0.1524 0.07408,-0.15451 0.07408,-0.46778 0,-0.30903 -0.07408,-0.46355 -0.07197,-0.15452 -0.2413,-0.15452 -0.17145,0 -0.243417,0.15452 -0.06985,0.15452 -0.06985,0.46355 z"
           id="path8604" />
        <path
           d="m -75.34172,114.49655 q 0,-0.0783 0.0381,-0.11007 0.0381,-0.0318 0.09102,-0.0318 0.05503,0 0.09313,0.0318 0.04022,0.0317 0.04022,0.11007 0,0.0762 -0.04022,0.11006 -0.0381,0.0339 -0.09313,0.0339 -0.05292,0 -0.09102,-0.0339 -0.0381,-0.0339 -0.0381,-0.11006 z"
           id="path8606" />
        <path
           d="m -74.34477,113.68375 q 0.232834,0 0.370418,0.11641 0.137583,0.11642 0.137583,0.32809 0,0.23495 -0.150283,0.37041 -0.148167,0.13335 -0.414868,0.13335 -0.116417,0 -0.220133,-0.0212 -0.101601,-0.0212 -0.171451,-0.0614 v -0.17568 q 0.0762,0.0466 0.184151,0.0741 0.110066,0.0254 0.20955,0.0254 0.167217,0 0.268817,-0.0783 0.103717,-0.0804 0.103717,-0.24765 0,-0.14817 -0.09102,-0.22649 -0.09102,-0.0804 -0.287867,-0.0804 -0.05927,0 -0.135467,0.0106 -0.0762,0.0106 -0.122767,0.0212 l -0.09313,-0.0593 0.05715,-0.71331 h 0.757768 v 0.16933 h -0.599018 l -0.03598,0.43815 q 0.03598,-0.006 0.09737,-0.0148 0.06138,-0.008 0.135467,-0.008 z"
           id="path8608" />
      </g>
      <g
         aria-label="0.6"
         transform="scale(-1,1)"
         id="text2620"
         style="font-size:2.11667px;line-height:1.25;stroke-width:0.264583">
        <path
           d="m -75.595718,116.33351 q 0,0.24342 -0.0508,0.4191 -0.0508,0.17357 -0.160867,0.2667 -0.110066,0.0931 -0.2921,0.0931 -0.256117,0 -0.378884,-0.20531 -0.12065,-0.20744 -0.12065,-0.57362 0,-0.24553 0.04868,-0.4191 0.0508,-0.17357 0.160867,-0.26458 0.110067,-0.0931 0.289984,-0.0931 0.254,0 0.378884,0.20532 0.124883,0.2032 0.124883,0.5715 z m -0.817034,0 q 0,0.31115 0.06985,0.46567 0.07197,0.15451 0.243417,0.15451 0.169334,0 0.2413,-0.1524 0.07408,-0.15451 0.07408,-0.46778 0,-0.30903 -0.07408,-0.46355 -0.07197,-0.15452 -0.2413,-0.15452 -0.17145,0 -0.243417,0.15452 -0.06985,0.15452 -0.06985,0.46355 z"
           id="path8611" />
        <path
           d="m -75.339599,116.97698 q 0,-0.0783 0.0381,-0.11007 0.0381,-0.0318 0.09102,-0.0318 0.05503,0 0.09313,0.0318 0.04022,0.0318 0.04022,0.11007 0,0.0762 -0.04022,0.11006 -0.0381,0.0339 -0.09313,0.0339 -0.05292,0 -0.09102,-0.0339 -0.0381,-0.0339 -0.0381,-0.11006 z"
           id="path8613" />
        <path
           d="m -74.808316,116.44569 q 0,-0.16298 0.02752,-0.31961 0.02963,-0.15875 0.103716,-0.28575 0.0762,-0.12912 0.211667,-0.20532 0.135467,-0.0762 0.349251,-0.0762 0.04445,0 0.09737,0.004 0.05503,0.004 0.0889,0.0148 v 0.15875 q -0.0381,-0.0127 -0.08678,-0.019 -0.04657,-0.006 -0.09525,-0.006 -0.14605,0 -0.243417,0.0487 -0.09737,0.0487 -0.154517,0.13335 -0.05503,0.0847 -0.08043,0.19474 -0.0254,0.11006 -0.03175,0.23495 h 0.0127 q 0.04868,-0.0741 0.135467,-0.12489 0.08678,-0.0529 0.22225,-0.0529 0.19685,0 0.317501,0.12065 0.12065,0.11853 0.12065,0.33866 0,0.23707 -0.131234,0.37254 -0.129117,0.13546 -0.34925,0.13546 -0.143934,0 -0.260351,-0.072 -0.116417,-0.072 -0.186267,-0.22014 -0.06773,-0.14816 -0.06773,-0.37465 z m 0.512234,0.51012 q 0.13335,0 0.2159,-0.0847 0.08255,-0.0868 0.08255,-0.2667 0,-0.14393 -0.07408,-0.2286 -0.07197,-0.0847 -0.218017,-0.0847 -0.09948,0 -0.173567,0.0423 -0.07408,0.0402 -0.116417,0.10372 -0.04022,0.0635 -0.04022,0.13123 0,0.091 0.03598,0.18203 0.03598,0.0889 0.10795,0.14817 0.07197,0.0571 0.179917,0.0571 z"
           id="path8615" />
      </g>
      <g
         aria-label="0.8"
         transform="scale(-1,1)"
         id="text2624"
         style="font-size:2.11667px;line-height:1.25;stroke-width:0.264583">
        <path
           d="m -75.594657,118.81394 q 0,0.24342 -0.0508,0.4191 -0.0508,0.17357 -0.160867,0.2667 -0.110067,0.0931 -0.2921,0.0931 -0.256118,0 -0.378884,-0.20532 -0.120651,-0.20744 -0.120651,-0.57362 0,-0.24553 0.04868,-0.4191 0.0508,-0.17357 0.160867,-0.26458 0.110067,-0.0931 0.289984,-0.0931 0.254,0 0.378883,0.20532 0.124884,0.2032 0.124884,0.5715 z m -0.817035,0 q 0,0.31115 0.06985,0.46567 0.07197,0.15452 0.243418,0.15452 0.169333,0 0.2413,-0.15241 0.07408,-0.15451 0.07408,-0.46778 0,-0.30903 -0.07408,-0.46355 -0.07197,-0.15452 -0.2413,-0.15452 -0.171451,0 -0.243418,0.15452 -0.06985,0.15452 -0.06985,0.46355 z"
           id="path8618" />
        <path
           d="m -75.338539,119.45741 q 0,-0.0783 0.0381,-0.11007 0.0381,-0.0318 0.09102,-0.0318 0.05503,0 0.09313,0.0318 0.04022,0.0318 0.04022,0.11007 0,0.0762 -0.04022,0.11007 -0.0381,0.0339 -0.09313,0.0339 -0.05292,0 -0.09102,-0.0339 -0.0381,-0.0339 -0.0381,-0.11007 z"
           id="path8620" />
        <path
           d="m -74.320422,118.03924 q 0.198967,0 0.325968,0.0931 0.127,0.0931 0.127,0.26882 0,0.091 -0.04022,0.15875 -0.0381,0.0677 -0.103717,0.12065 -0.06562,0.0508 -0.143933,0.091 0.09313,0.0444 0.169333,0.1016 0.0762,0.055 0.120651,0.12911 0.04657,0.0741 0.04657,0.1778 0,0.19051 -0.135467,0.30269 -0.13335,0.11007 -0.359834,0.11007 -0.243417,0 -0.37465,-0.10584 -0.131234,-0.10795 -0.131234,-0.30057 0,-0.10371 0.04233,-0.17991 0.04445,-0.0762 0.116417,-0.13124 0.07197,-0.055 0.154517,-0.0931 -0.110067,-0.0635 -0.188384,-0.1524 -0.0762,-0.091 -0.0762,-0.23072 0,-0.11641 0.05927,-0.19473 0.05927,-0.0804 0.160866,-0.12277 0.101601,-0.0423 0.230717,-0.0423 z m -0.0021,0.15028 q -0.116417,0 -0.192617,0.0571 -0.07408,0.055 -0.07408,0.16087 0,0.0783 0.03598,0.13123 0.0381,0.0529 0.1016,0.091 0.0635,0.036 0.1397,0.0699 0.110067,-0.0466 0.18415,-0.11218 0.0762,-0.0656 0.0762,-0.17992 0,-0.10583 -0.07408,-0.16087 -0.07408,-0.0571 -0.19685,-0.0571 z m -0.315384,0.99907 q 0,0.11007 0.07832,0.18415 0.07832,0.072 0.2413,0.072 0.154517,0 0.234951,-0.072 0.08255,-0.0741 0.08255,-0.1905 0,-0.11007 -0.08678,-0.18203 -0.08678,-0.0741 -0.230717,-0.12912 l -0.03387,-0.0127 q -0.1397,0.0593 -0.213783,0.13758 -0.07197,0.0762 -0.07197,0.19262 z"
           id="path8622" />
      </g>
      <g
         aria-label="0.9"
         transform="scale(-1,1)"
         id="text2628"
         style="font-size:2.11667px;line-height:1.25;stroke-width:0.264583">
        <path
           d="m -75.592536,121.29437 q 0,0.24342 -0.0508,0.4191 -0.0508,0.17357 -0.160867,0.2667 -0.110067,0.0931 -0.292101,0.0931 -0.256117,0 -0.378883,-0.20532 -0.120651,-0.20743 -0.120651,-0.57362 0,-0.24553 0.04868,-0.4191 0.0508,-0.17357 0.160867,-0.26458 0.110067,-0.0931 0.289983,-0.0931 0.254001,0 0.378884,0.20532 0.124884,0.2032 0.124884,0.5715 z m -0.817035,0 q 0,0.31115 0.06985,0.46567 0.07197,0.15452 0.243417,0.15452 0.169334,0 0.241301,-0.1524 0.07408,-0.15452 0.07408,-0.46779 0,-0.30903 -0.07408,-0.46355 -0.07197,-0.15452 -0.241301,-0.15452 -0.17145,0 -0.243417,0.15452 -0.06985,0.15452 -0.06985,0.46355 z"
           id="path8625" />
        <path
           d="m -75.336418,121.93784 q 0,-0.0783 0.0381,-0.11007 0.0381,-0.0318 0.09102,-0.0318 0.05503,0 0.09313,0.0318 0.04022,0.0318 0.04022,0.11007 0,0.0762 -0.04022,0.11007 -0.0381,0.0339 -0.09313,0.0339 -0.05292,0 -0.09102,-0.0339 -0.0381,-0.0339 -0.0381,-0.11007 z"
           id="path8627" />
        <path
           d="m -73.820883,121.18642 q 0,0.16298 -0.02963,0.32174 -0.02752,0.15663 -0.103717,0.28575 -0.07408,0.127 -0.211667,0.2032 -0.135467,0.0762 -0.349251,0.0762 -0.04233,0 -0.09948,-0.006 -0.05503,-0.004 -0.09102,-0.0148 v -0.15875 q 0.08255,0.0275 0.186267,0.0275 0.148167,0 0.243417,-0.0487 0.09737,-0.0487 0.154517,-0.13123 0.05715,-0.0847 0.08255,-0.19473 0.0254,-0.11219 0.02963,-0.23496 h -0.0127 q -0.04657,0.072 -0.135467,0.12489 -0.08678,0.0508 -0.224367,0.0508 -0.194733,0 -0.315383,-0.11854 -0.118534,-0.12065 -0.118534,-0.33866 0,-0.15875 0.05927,-0.27305 0.06138,-0.1143 0.169333,-0.17569 0.107951,-0.0614 0.254001,-0.0614 0.143933,0 0.26035,0.0741 0.116417,0.072 0.18415,0.22014 0.06773,0.14605 0.06773,0.37253 z m -0.512234,-0.51012 q -0.131234,0 -0.215901,0.0868 -0.08255,0.0868 -0.08255,0.26458 0,0.14605 0.06985,0.23072 0.07197,0.0825 0.220134,0.0825 0.1016,0 0.175684,-0.0402 0.07408,-0.0423 0.1143,-0.10583 0.04233,-0.0635 0.04233,-0.13124 0,-0.091 -0.03598,-0.17991 -0.03598,-0.0889 -0.10795,-0.14817 -0.07197,-0.0593 -0.179917,-0.0593 z"
           id="path8629" />
      </g>
      <path
         id="path2630"
         style="fill:none;fill-opacity:0.166656;stroke:#000000;stroke-width:0.19993"
         transform="scale(-1,1)"
         d="m -50.460485,100.24168 a 24.900034,24.900036 0 0 1 -24.900034,24.90003 24.900034,24.900036 0 0 1 -24.900031,-24.90003 24.900034,24.900036 0 0 1 24.900031,-24.90004 24.900034,24.900036 0 0 1 24.900034,24.90004 z" />
      <path
         id="path2632"
         style="fill:none;fill-opacity:0.166656;stroke:#000000;stroke-width:0.200004"
         transform="scale(-1,1)"
         d="m -47.96052,100.27142 a 27.4,27.399998 0 0 1 -27.399999,27.4 27.4,27.399998 0 0 1 -27.400001,-27.4 27.4,27.399998 0 0 1 27.400001,-27.399994 27.4,27.399998 0 0 1 27.399999,27.399994 z" />
      <path
         id="path2634"
         style="fill:none;fill-opacity:0.166656;stroke:#000000;stroke-width:0.199978"
         transform="scale(-1,1)"
         d="m -45.482992,100.27142 a 29.900011,29.900011 0 0 1 -29.900011,29.90001 29.900011,29.900011 0 0 1 -29.900007,-29.90001 29.900011,29.900011 0 0 1 29.900007,-29.900008 29.900011,29.900011 0 0 1 29.900011,29.900008 z" />
      <path
         id="path2636"
         style="fill:none;fill-opacity:0.166656;stroke:#000000;stroke-width:0.19999"
         transform="scale(-1,1)"
         d="m -42.960514,100.27142 a 32.400005,32.400005 0 0 1 -32.400005,32.40001 32.400005,32.400005 0 0 1 -32.400001,-32.40001 32.400005,32.400005 0 0 1 32.400001,-32.400002 32.400005,32.400005 0 0 1 32.400005,32.400002 z" />
      <path
         id="path2638"
         style="fill:none;fill-opacity:0.166656;stroke:#000000;stroke-width:0.199998"
         transform="scale(-1,1)"
         d="m -40.295174,100.55241 a 34.900002,34.900002 0 0 1 -34.900001,34.9 34.900002,34.900002 0 0 1 -34.900005,-34.9 34.900002,34.900002 0 0 1 34.900005,-34.900005 34.900002,34.900002 0 0 1 34.900001,34.900005 z" />
      <path
         id="path2640"
         style="fill:none;fill-opacity:0.166656;stroke:#000000;stroke-width:0.200006"
         transform="scale(-1,1)"
         d="m -37.795177,100.55241 a 37.399998,37.399998 0 0 1 -37.399998,37.39999 37.399998,37.399998 0 0 1 -37.399995,-37.39999 37.399998,37.399998 0 0 1 37.399995,-37.400001 37.399998,37.399998 0 0 1 37.399998,37.400001 z" />
      <g
         aria-label="1.0"
         transform="scale(-1,1)"
         id="text2644"
         style="font-size:2.11667px;line-height:1.25;stroke-width:0.264583">
        <path
           d="m -75.901338,124.66711 h -0.182034 v -1.05622 q 0,-0.091 0.0021,-0.14605 0.0021,-0.055 0.0063,-0.1143 -0.03387,0.0339 -0.06138,0.0572 -0.02752,0.0233 -0.06985,0.0593 l -0.160867,0.13124 -0.09737,-0.12489 0.408517,-0.3175 h 0.154517 z"
           id="path8638" />
        <path
           d="m -75.289619,124.55281 q 0,-0.0783 0.0381,-0.11007 0.0381,-0.0318 0.09102,-0.0318 0.05503,0 0.09313,0.0318 0.04022,0.0318 0.04022,0.11007 0,0.0762 -0.04022,0.11006 -0.0381,0.0339 -0.09313,0.0339 -0.05292,0 -0.09102,-0.0339 -0.0381,-0.0339 -0.0381,-0.11006 z"
           id="path8640" />
        <path
           d="m -73.767734,123.90934 q 0,0.24342 -0.0508,0.4191 -0.0508,0.17357 -0.160867,0.2667 -0.110067,0.0931 -0.292101,0.0931 -0.256117,0 -0.378884,-0.20531 -0.12065,-0.20744 -0.12065,-0.57362 0,-0.24553 0.04868,-0.4191 0.0508,-0.17357 0.160867,-0.26459 0.110067,-0.0931 0.289984,-0.0931 0.254001,0 0.378884,0.20532 0.124884,0.2032 0.124884,0.5715 z m -0.817035,0 q 0,0.31115 0.06985,0.46567 0.07197,0.15451 0.243417,0.15451 0.169334,0 0.241301,-0.1524 0.07408,-0.15451 0.07408,-0.46778 0,-0.30903 -0.07408,-0.46355 -0.07197,-0.15452 -0.241301,-0.15452 -0.17145,0 -0.243417,0.15452 -0.06985,0.15452 -0.06985,0.46355 z"
           id="path8642" />
      </g>
      <g
         aria-label="1.1"
         transform="scale(-1,1)"
         id="text2648"
         style="font-size:2.11667px;line-height:1.25;stroke-width:0.264583">
        <path
           d="m -75.815843,127.11226 h -0.182034 v -1.05622 q 0,-0.091 0.0021,-0.14605 0.0021,-0.055 0.0063,-0.1143 -0.03387,0.0339 -0.06138,0.0572 -0.02752,0.0233 -0.06985,0.0593 l -0.160867,0.13123 -0.09737,-0.12488 0.408517,-0.3175 h 0.154517 z"
           id="path8645" />
        <path
           d="m -75.204124,126.99796 q 0,-0.0783 0.0381,-0.11007 0.0381,-0.0318 0.09102,-0.0318 0.05503,0 0.09313,0.0318 0.04022,0.0318 0.04022,0.11007 0,0.0762 -0.04022,0.11007 -0.0381,0.0339 -0.09313,0.0339 -0.05292,0 -0.09102,-0.0339 -0.0381,-0.0339 -0.0381,-0.11007 z"
           id="path8647" />
        <path
           d="m -74.03784,127.11226 h -0.182034 v -1.05622 q 0,-0.091 0.0021,-0.14605 0.0021,-0.055 0.0064,-0.1143 -0.03387,0.0339 -0.06138,0.0572 -0.02752,0.0233 -0.06985,0.0593 l -0.160867,0.13123 -0.09737,-0.12488 0.408517,-0.3175 h 0.154517 z"
           id="path8649" />
      </g>
      <g
         aria-label="1.2"
         transform="scale(-1,1)"
         id="text2652"
         style="font-size:2.11667px;line-height:1.25;stroke-width:0.264583">
        <path
           d="m -75.849702,129.65019 h -0.182034 v -1.05622 q 0,-0.091 0.0021,-0.14605 0.0021,-0.055 0.0063,-0.1143 -0.03387,0.0339 -0.06138,0.0572 -0.02752,0.0233 -0.06985,0.0593 l -0.160867,0.13123 -0.09737,-0.12488 0.408517,-0.3175 h 0.154517 z"
           id="path8652" />
        <path
           d="m -75.237983,129.53589 q 0,-0.0783 0.0381,-0.11006 0.0381,-0.0317 0.09102,-0.0317 0.05503,0 0.09313,0.0317 0.04022,0.0318 0.04022,0.11006 0,0.0762 -0.04022,0.11007 -0.0381,0.0339 -0.09313,0.0339 -0.05292,0 -0.09102,-0.0339 -0.0381,-0.0339 -0.0381,-0.11007 z"
           id="path8654" />
        <path
           d="m -73.722449,129.65019 h -0.999068 v -0.15451 l 0.395817,-0.40006 q 0.114301,-0.1143 0.192617,-0.2032 0.07832,-0.0889 0.118534,-0.17356 0.04022,-0.0868 0.04022,-0.18839 0,-0.12488 -0.07408,-0.18838 -0.07408,-0.0656 -0.192617,-0.0656 -0.110067,0 -0.194733,0.0381 -0.08255,0.0381 -0.169334,0.10584 l -0.09948,-0.12489 q 0.0889,-0.0741 0.203201,-0.12488 0.116417,-0.0529 0.26035,-0.0529 0.211667,0 0.334434,0.10795 0.122767,0.10584 0.122767,0.29422 0,0.11853 -0.04868,0.22225 -0.04868,0.10372 -0.135466,0.20532 -0.08678,0.0995 -0.203201,0.21378 l -0.315384,0.31115 v 0.008 h 0.764118 z"
           id="path8656" />
      </g>
      <g
         aria-label="1.3"
         transform="scale(-1,1)"
         id="text2656"
         style="font-size:2.11667px;line-height:1.25;stroke-width:0.264583">
        <path
           d="m -75.874322,132.21396 h -0.182034 v -1.05622 q 0,-0.091 0.0021,-0.14605 0.0021,-0.055 0.0063,-0.1143 -0.03387,0.0339 -0.06138,0.0572 -0.02752,0.0233 -0.06985,0.0593 l -0.160867,0.13123 -0.09737,-0.12488 0.408517,-0.3175 h 0.154517 z"
           id="path8659" />
        <path
           d="m -75.262604,132.09966 q 0,-0.0783 0.0381,-0.11007 0.0381,-0.0317 0.09102,-0.0317 0.05503,0 0.09313,0.0317 0.04022,0.0318 0.04022,0.11007 0,0.0762 -0.04022,0.11007 -0.0381,0.0339 -0.09313,0.0339 -0.05292,0 -0.09102,-0.0339 -0.0381,-0.0339 -0.0381,-0.11007 z"
           id="path8661" />
        <path
           d="m -73.804219,131.05614 q 0,0.1524 -0.08467,0.24342 -0.08467,0.0889 -0.2286,0.11853 v 0.008 q 0.182034,0.0212 0.270934,0.1143 0.0889,0.0931 0.0889,0.24341 0,0.13124 -0.06138,0.23496 -0.06138,0.1016 -0.1905,0.15875 -0.127,0.0572 -0.328084,0.0572 -0.118533,0 -0.220133,-0.019 -0.1016,-0.0169 -0.194734,-0.0635 v -0.17357 q 0.09525,0.0466 0.205317,0.0741 0.110067,0.0254 0.211667,0.0254 0.2032,0 0.2921,-0.0783 0.09102,-0.0804 0.09102,-0.22014 0,-0.14182 -0.112183,-0.2032 -0.110067,-0.0635 -0.311151,-0.0635 h -0.14605 v -0.15875 h 0.148167 q 0.186267,0 0.281517,-0.0783 0.09737,-0.0783 0.09737,-0.20743 0,-0.11007 -0.07408,-0.16933 -0.07408,-0.0614 -0.201083,-0.0614 -0.122767,0 -0.209551,0.036 -0.08678,0.036 -0.17145,0.091 l -0.09313,-0.127 q 0.08043,-0.0635 0.198967,-0.11006 0.12065,-0.0466 0.27305,-0.0466 0.237067,0 0.351367,0.10583 0.116417,0.10584 0.116417,0.26882 z"
           id="path8663" />
      </g>
      <g
         aria-label="1.4"
         transform="scale(-1,1)"
         id="text2660"
         style="font-size:2.11667px;line-height:1.25;stroke-width:0.264583">
        <path
           d="m -75.844407,134.86194 h -0.182034 v -1.05622 q 0,-0.091 0.0021,-0.14605 0.0021,-0.055 0.0063,-0.1143 -0.03387,0.0339 -0.06138,0.0572 -0.02752,0.0233 -0.06985,0.0593 l -0.160867,0.13123 -0.09737,-0.12488 0.408518,-0.3175 h 0.154517 z"
           id="path8666" />
        <path
           d="m -75.232689,134.74764 q 0,-0.0783 0.0381,-0.11007 0.0381,-0.0318 0.09102,-0.0318 0.05503,0 0.09313,0.0318 0.04022,0.0317 0.04022,0.11007 0,0.0762 -0.04022,0.11007 -0.0381,0.0339 -0.09313,0.0339 -0.05292,0 -0.09102,-0.0339 -0.0381,-0.0339 -0.0381,-0.11007 z"
           id="path8668" />
        <path
           d="m -73.64942,134.51904 h -0.220134 v 0.3429 h -0.179917 v -0.3429 h -0.723901 v -0.15875 l 0.711201,-1.01812 h 0.192617 v 1.00965 h 0.220134 z m -0.400051,-0.64347 q 0,-0.11007 0.0042,-0.18627 0.0042,-0.0783 0.0063,-0.14816 h -0.0085 q -0.01693,0.0402 -0.04233,0.0868 -0.0254,0.0466 -0.04868,0.0783 l -0.452968,0.64558 h 0.541868 z"
           id="path8670" />
      </g>
      <g
         aria-label="1.5"
         transform="scale(-1,1)"
         id="text2664"
         style="font-size:2.11667px;line-height:1.25;stroke-width:0.264583">
        <path
           d="m -75.815828,137.58133 h -0.182033 v -1.05622 q 0,-0.091 0.0021,-0.14605 0.0021,-0.055 0.0063,-0.1143 -0.03387,0.0339 -0.06138,0.0572 -0.02752,0.0233 -0.06985,0.0593 l -0.160867,0.13123 -0.09737,-0.12488 0.408517,-0.3175 h 0.154517 z"
           id="path8673" />
        <path
           d="m -75.204109,137.46703 q 0,-0.0783 0.0381,-0.11007 0.0381,-0.0317 0.09102,-0.0317 0.05503,0 0.09313,0.0317 0.04022,0.0318 0.04022,0.11007 0,0.0762 -0.04022,0.11007 -0.0381,0.0339 -0.09313,0.0339 -0.05292,0 -0.09102,-0.0339 -0.0381,-0.0339 -0.0381,-0.11007 z"
           id="path8675" />
        <path
           d="m -74.207158,136.65423 q 0.232833,0 0.370417,0.11641 0.137583,0.11642 0.137583,0.32809 0,0.23495 -0.150283,0.37042 -0.148167,0.13335 -0.414867,0.13335 -0.116417,0 -0.220134,-0.0212 -0.1016,-0.0212 -0.17145,-0.0614 v -0.17569 q 0.0762,0.0466 0.18415,0.0741 0.110067,0.0254 0.20955,0.0254 0.167217,0 0.268817,-0.0783 0.103717,-0.0804 0.103717,-0.24765 0,-0.14817 -0.09102,-0.22649 -0.09102,-0.0804 -0.287867,-0.0804 -0.05927,0 -0.135467,0.0106 -0.0762,0.0106 -0.122766,0.0212 l -0.09313,-0.0593 0.05715,-0.71331 h 0.757768 v 0.16933 h -0.599018 l -0.03598,0.43815 q 0.03598,-0.006 0.09737,-0.0148 0.06138,-0.008 0.135467,-0.008 z"
           id="path8677" />
      </g>
      <g
         id="g3297"
         transform="matrix(-1,0,0,1,157.07112,26.934859)"
         style="stroke-width:0.35277778;stroke-dasharray:none">
        <path
           style="fill:none;stroke:#000000;stroke-width:0.35277778;stroke-linecap:butt;stroke-linejoin:miter;stroke-opacity:1;stroke-dasharray:none"
           d="m 40.881976,22.751407 v 89.777233 m -2.5,-89.777233 h 5 m -4,5 h 3 m -4,5 h 5 m -4,5 h 3 m -4,5 h 5 m -4,5 h 3 m -4,5 h 5 m -4,5 h 3 m -4,5 h 5 m -4,5 h 3 m -4,5 h 5 m -4,5 h 3 m -4,5 h 5 m -4,5 h 3 m -4,5 h 5 m -4,5 h 3 m -4,5.000003 h 5 m -4,5 h 3 m -4,4.77723 h 5"
           id="path2842" />
        <g
           aria-label="cm"
           id="text2960"
           style="font-size:3.52778px;line-height:1.25">
          <path
             d="m 40.523936,22.013738 q 0,0.03175 -0.05997,0.09172 -0.05997,0.05645 -0.15875,0.119945 -0.09525,0.0635 -0.254,0.109361 -0.158751,0.04586 -0.324556,0.04586 -0.345723,0 -0.571501,-0.218722 -0.22225,-0.218723 -0.22225,-0.55739 0,-0.34925 0.229306,-0.575028 0.229306,-0.225778 0.582084,-0.225778 0.328083,0 0.550333,0.194028 v -0.04586 q 0,-0.09878 0.07408,-0.09878 0.07056,0 0.07056,0.09878 v 0.321028 q 0,0.09525 -0.07056,0.09525 -0.0635,0 -0.07408,-0.08467 -0.01058,-0.141111 -0.176389,-0.236361 -0.162277,-0.09878 -0.384528,-0.09878 -0.292805,0 -0.47625,0.183445 -0.179917,0.179917 -0.179917,0.469195 0,0.278694 0.183445,0.458611 0.183444,0.176389 0.472722,0.176389 0.384528,0 0.659695,-0.254 0.03528,-0.03528 0.0635,-0.03528 0.02822,0 0.04586,0.02117 0.02117,0.01764 0.02117,0.04586 z"
             style="font-family:FreeMono;-inkscape-font-specification:FreeMono"
             id="path8680" />
          <path
             d="m 41.148355,20.853098 v 0.183445 q 0.08819,-0.127 0.172861,-0.179917 0.08467,-0.05292 0.197555,-0.05292 0.225778,0 0.342195,0.250473 0.194028,-0.250473 0.398639,-0.250473 0.151695,0 0.261056,0.112889 0.109361,0.112889 0.109361,0.268112 v 0.994834 h 0.119945 q 0.09525,0 0.09525,0.07055 0,0.07408 -0.09525,0.07408 h -0.261056 v -1.125362 q 0,-0.09878 -0.07056,-0.172862 -0.07055,-0.07761 -0.162277,-0.07761 -0.176389,0 -0.36689,0.289278 v 0.941918 h 0.119945 q 0.09525,0 0.09525,0.07055 0,0.07408 -0.09525,0.07408 h -0.261056 v -1.114779 q 0,-0.102306 -0.07055,-0.179917 -0.06703,-0.08114 -0.158751,-0.08114 -0.176389,0 -0.370416,0.289278 v 0.941918 h 0.119944 q 0.09525,0 0.09525,0.07055 0,0.07408 -0.09525,0.07408 h -0.384528 q -0.09172,0 -0.09172,-0.07408 0,-0.07055 0.09525,-0.07055 h 0.119944 v -1.181807 h -0.119944 q -0.09525,0 -0.09525,-0.07408 0,-0.07056 0.09525,-0.07056 z"
             style="font-family:FreeMono;-inkscape-font-specification:FreeMono"
             id="path8682" />
        </g>
        <g
           aria-label="1"
           id="text3150"
           style="font-size:2.82222px;line-height:1.25;font-family:FreeMono;-inkscape-font-specification:FreeMono">
          <path
             d="m 41.780647,33.075707 v 1.611488 h 0.392288 q 0.0762,0 0.0762,0.05644 0,0.05927 -0.0762,0.05927 h -0.900288 q -0.07902,0 -0.07902,-0.05927 0,-0.05644 0.07902,-0.05644 h 0.392289 v -1.459088 l -0.318911,0.318911 q -0.02258,0.02258 -0.05927,0.02258 -0.02258,0 -0.03951,-0.01693 -0.01411,-0.01976 -0.01411,-0.04798 0,-0.0254 0.03104,-0.05645 l 0.372533,-0.372533 z"
             id="path8685" />
        </g>
        <g
           aria-label="2"
           id="text3154"
           style="font-size:2.82222px;line-height:1.25;font-family:FreeMono;-inkscape-font-specification:FreeMono">
          <path
             d="m 41.239853,43.52375 q 0,-0.127 0.1524,-0.270934 0.155222,-0.146755 0.372533,-0.146755 0.206022,0 0.361244,0.146755 0.158045,0.146756 0.158045,0.338667 0,0.127 -0.0762,0.239889 -0.07338,0.110066 -0.3302,0.349955 l -0.584199,0.544688 v 0.0085 h 0.886177 v -0.1016 q 0,-0.0762 0.05927,-0.0762 0.05644,0 0.05644,0.0762 v 0.217311 H 41.183409 V 44.68086 l 0.666044,-0.626533 q 0.197555,-0.194733 0.256822,-0.282222 0.06209,-0.08749 0.06209,-0.183444 0,-0.146756 -0.121356,-0.256822 -0.121355,-0.110067 -0.282222,-0.110067 -0.143933,0 -0.262466,0.08467 -0.115711,0.08467 -0.149578,0.211666 -0.01693,0.05645 -0.05927,0.05645 -0.01976,0 -0.03669,-0.01411 -0.01693,-0.01693 -0.01693,-0.03669 z"
             id="path8688" />
        </g>
        <g
           aria-label="3"
           id="text3158"
           style="font-size:2.82222px;line-height:1.25;font-family:FreeMono;-inkscape-font-specification:FreeMono">
          <path
             d="m 41.283308,53.345084 q 0,-0.03104 0.05362,-0.08749 0.05644,-0.05644 0.1778,-0.110066 0.121356,-0.05644 0.265289,-0.05644 0.211666,0 0.352777,0.126999 0.143934,0.124178 0.143934,0.307622 0,0.163689 -0.09031,0.259645 -0.09031,0.09596 -0.200377,0.124177 0.166511,0.06773 0.259644,0.189089 0.09313,0.118533 0.09313,0.262467 0,0.214488 -0.174977,0.366888 -0.172156,0.149578 -0.414867,0.149578 -0.166511,0 -0.358422,-0.08185 -0.189088,-0.08467 -0.189088,-0.155222 0,-0.01976 0.01693,-0.03669 0.01693,-0.01693 0.03669,-0.01693 0.01976,0 0.07902,0.04516 0.05927,0.04233 0.169333,0.08749 0.110067,0.04233 0.248356,0.04233 0.191911,0 0.330199,-0.118533 0.141111,-0.118534 0.141111,-0.282222 0,-0.166511 -0.149577,-0.285045 -0.149578,-0.121355 -0.3556,-0.121355 -0.0762,0 -0.0762,-0.05927 0,-0.05644 0.0762,-0.05644 0.443089,0 0.443089,-0.310444 0,-0.138289 -0.110067,-0.2286 -0.110067,-0.09313 -0.273755,-0.09313 -0.118534,0 -0.2032,0.03104 -0.08185,0.02822 -0.115711,0.06491 -0.03104,0.03669 -0.06209,0.06773 -0.03104,0.02822 -0.05645,0.02822 -0.02258,0 -0.03951,-0.01411 -0.01693,-0.01693 -0.01693,-0.03951 z"
             id="path8691" />
        </g>
        <g
           aria-label="4"
           id="text3162"
           style="font-size:2.82222px;line-height:1.25;font-family:FreeMono;-inkscape-font-specification:FreeMono">
          <path
             d="m 42.005845,64.190819 v -0.996243 h -0.06773 l -0.587022,0.996243 z m 0,0.115711 h -0.764821 v -0.132644 l 0.643466,-1.095022 h 0.237066 v 1.111955 h 0.09596 q 0.0762,0 0.0762,0.05927 0,0.05644 -0.0762,0.05644 h -0.09596 v 0.361244 h 0.09596 q 0.0762,0 0.0762,0.05645 0,0.05927 -0.0762,0.05927 h -0.426155 q -0.0762,0 -0.0762,-0.05927 0,-0.05645 0.0762,-0.05645 h 0.214488 z"
             id="path8694" />
        </g>
        <g
           aria-label="5"
           id="text3166"
           style="font-size:2.82222px;line-height:1.25;font-family:FreeMono;-inkscape-font-specification:FreeMono">
          <path
             d="m 41.830146,73.783832 q -0.110067,0 -0.197556,0.02822 -0.08749,0.02822 -0.141111,0.05927 -0.05362,0.02822 -0.07902,0.02822 -0.05362,0 -0.05362,-0.06209 v -0.759177 h 0.795866 q 0.07902,0 0.07902,0.05644 0,0.05927 -0.07902,0.05927 h -0.680155 v 0.5588 q 0.206022,-0.08467 0.372533,-0.08467 0.217311,0 0.358422,0.155222 0.141111,0.155222 0.141111,0.392289 0,0.265288 -0.163689,0.437444 -0.160867,0.172155 -0.412044,0.172155 -0.110067,0 -0.220133,-0.03387 -0.107245,-0.03387 -0.180622,-0.07902 -0.07056,-0.04798 -0.115711,-0.09313 -0.04516,-0.04515 -0.04516,-0.06773 0,-0.02258 0.01693,-0.03951 0.01693,-0.01693 0.03951,-0.01693 0.01976,0 0.07902,0.05362 0.05927,0.05362 0.169333,0.107244 0.110066,0.05362 0.251177,0.05362 0.206023,0 0.335845,-0.138289 0.129822,-0.138288 0.129822,-0.361244 0,-0.189088 -0.112889,-0.307622 -0.110067,-0.118533 -0.287866,-0.118533 z"
             id="path8697" />
        </g>
        <g
           aria-label="6"
           id="text3170"
           style="font-size:2.82222px;line-height:1.25;font-family:FreeMono;-inkscape-font-specification:FreeMono">
          <path
             d="m 41.318747,84.298326 q 0.05927,0.2286 0.163688,0.344311 0.104423,0.112888 0.273756,0.112888 0.158044,0 0.262466,-0.124177 0.107245,-0.124178 0.107245,-0.3048 0,-0.166511 -0.107245,-0.287866 -0.104422,-0.121356 -0.251177,-0.121356 -0.07056,0 -0.141111,0.03387 -0.06773,0.03387 -0.110067,0.07055 -0.04233,0.03387 -0.09313,0.104422 -0.04798,0.06773 -0.06209,0.09031 -0.01129,0.02258 -0.04233,0.08185 z m 0.860777,-1.058333 q -0.0085,0 -0.05645,-0.01976 -0.04515,-0.01976 -0.124177,-0.01976 -0.112889,0 -0.231422,0.05362 -0.118534,0.0508 -0.225778,0.146756 -0.107244,0.09596 -0.1778,0.259644 -0.06773,0.163689 -0.06773,0.364066 0,0.01411 0.0056,0.121356 0.172156,-0.344311 0.468489,-0.344311 0.191911,0 0.3302,0.155222 0.141111,0.155222 0.141111,0.369711 0,0.2286 -0.141111,0.386644 -0.141111,0.158044 -0.347133,0.158044 -0.251178,0 -0.409222,-0.234244 -0.158045,-0.234244 -0.158045,-0.603955 0,-0.420511 0.237067,-0.682977 0.239889,-0.265289 0.587022,-0.265289 0.09031,0 0.155222,0.03104 0.06773,0.02822 0.06773,0.06773 0,0.02258 -0.01693,0.03951 -0.01411,0.01693 -0.03669,0.01693 z"
             id="path8700" />
        </g>
        <g
           aria-label="7"
           id="text3174"
           style="font-size:2.82222px;line-height:1.25;font-family:FreeMono;-inkscape-font-specification:FreeMono">
          <path
             d="m 42.161514,93.271315 v -0.0508 h -0.821266 v 0.09878 q 0,0.07902 -0.05645,0.07902 -0.05927,0 -0.05927,-0.07902 v -0.214489 h 1.052688 v 0.183445 l -0.460022,1.464732 q -0.01976,0.05927 -0.05644,0.05927 -0.02258,0 -0.03951,-0.01693 -0.01693,-0.01693 -0.01693,-0.03951 0,-0.01411 0.0056,-0.03669 z"
             id="path8703" />
        </g>
        <g
           aria-label="8"
           id="text3178"
           style="font-size:2.82222px;line-height:1.25;font-family:FreeMono;-inkscape-font-specification:FreeMono">
          <path
             d="m 41.721464,104.01364 q -0.172156,0 -0.293511,0.10725 -0.118533,0.10724 -0.118533,0.26529 0,0.15804 0.118533,0.27093 0.121355,0.11007 0.293511,0.11007 0.169333,0 0.290689,-0.11007 0.121355,-0.11289 0.121355,-0.26811 0,-0.16087 -0.118533,-0.26811 -0.118534,-0.10725 -0.293511,-0.10725 z m 0.270933,-0.69709 q -0.110067,-0.10442 -0.270933,-0.10442 -0.160867,0 -0.273756,0.10442 -0.110066,0.1016 -0.110066,0.25118 0,0.13829 0.110066,0.23707 0.112889,0.096 0.273756,0.096 0.158044,0 0.270933,-0.096 0.112889,-0.096 0.112889,-0.23425 0,-0.14957 -0.112889,-0.254 z m -0.05927,0.64065 q 0.316089,0.14393 0.316089,0.42898 0,0.20602 -0.155222,0.35277 -0.155222,0.14394 -0.372533,0.14394 -0.217311,0 -0.372533,-0.14394 -0.155222,-0.14675 -0.155222,-0.35277 0,-0.28223 0.316088,-0.42898 -0.287866,-0.14676 -0.287866,-0.39511 0,-0.18909 0.146755,-0.32738 0.149578,-0.13829 0.352778,-0.13829 0.2032,0 0.349955,0.13829 0.149578,0.13829 0.149578,0.32738 0,0.24835 -0.287867,0.39511 z"
             id="path8706" />
        </g>
      </g>
      <g
         id="g3309"
         transform="matrix(-1,0,0,1,157.10761,26.912677)"
         style="stroke-width:0.35277778;stroke-dasharray:none">
        <path
           style="fill:none;stroke:#000000;stroke-width:0.35277778;stroke-linecap:butt;stroke-linejoin:miter;stroke-opacity:1;stroke-dasharray:none"
           d="m 122.79842,22.781209 -0.0691,88.614371 m -2.4709,-88.616352 5.08,0.004 m -3.81396,5.077027 2.54,0.002 m -2.54396,5.078018 2.54,0.002 m -2.54396,5.078018 2.54,0.002 m -2.54396,5.078017 2.53999,0.002 m -3.81396,5.077028 5.08,0.004 m -3.81396,5.077027 2.54,0.002 m -2.54396,5.078018 2.54,0.002 m -2.54396,5.078017 2.54,0.002 m -2.54396,5.078018 2.54,0.002 m -3.81396,5.077028 5.08,0.004 m -3.81396,5.077028 2.54,0.002 m -2.54397,5.078018 2.54,0.002 m -2.54396,5.078018 2.54,0.002 m -2.54396,5.078018 2.54,0.002 m -3.81396,5.077027 5.08,0.004 m -3.81396,5.077024 2.54,0.002 m -2.54396,5.07802 2.54,0.002 m -3.81176,2.25143 5.08,0.004"
           id="path2902" />
        <g
           aria-label="in"
           transform="translate(-0.25808083,-0.06365776)"
           id="text3014"
           style="font-size:3.52778px;line-height:1.25;font-family:FreeMono;-inkscape-font-specification:FreeMono;white-space:pre">
          <path
             d="m 121.99187,20.185508 v 0.366889 h -0.20813 v -0.366889 z m 0.007,0.73025 v 1.326446 h 0.56445 q 0.0988,0 0.0988,0.07055 0,0.07408 -0.0988,0.07408 h -1.27353 q -0.0953,0 -0.0953,-0.07408 0,-0.07055 0.0953,-0.07055 h 0.56444 v -1.181807 h -0.41628 q -0.0953,0 -0.0953,-0.07408 0,-0.07056 0.0953,-0.07056 z"
             id="path8709" />
          <path
             d="m 124.11207,21.011009 q -0.0635,0 -0.12347,0.01411 -0.0564,0.01058 -0.10936,0.0388 -0.0494,0.02469 -0.0847,0.04939 -0.0353,0.02117 -0.0776,0.0635 -0.0388,0.04233 -0.0564,0.0635 -0.0141,0.01764 -0.0494,0.0635 -0.0318,0.04233 -0.0353,0.04586 v 0.892529 h 0.15875 q 0.0952,0 0.0952,0.07055 0,0.07408 -0.0952,0.07408 h -0.46214 q -0.0988,0 -0.0988,-0.07408 0,-0.07055 0.0988,-0.07055 h 0.15875 v -1.181807 h -0.11994 q -0.0952,0 -0.0952,-0.07408 0,-0.07056 0.0952,-0.07056 h 0.26458 v 0.243417 q 0.15169,-0.169333 0.26811,-0.229305 0.11642,-0.0635 0.28222,-0.0635 0.23636,0 0.39511,0.137583 0.15875,0.137583 0.15875,0.342195 v 0.896056 h 0.11995 q 0.0953,0 0.0953,0.07055 0,0.07408 -0.0953,0.07408 h -0.38453 q -0.0952,0 -0.0952,-0.07408 0,-0.07055 0.0952,-0.07055 h 0.11995 v -0.871362 q 0,-0.151694 -0.11642,-0.254 -0.11289,-0.105833 -0.30692,-0.105833 z"
             id="path8711" />
        </g>
        <g
           aria-label="1
"
           id="text3266"
           style="font-size:2.82222px;line-height:1.25;font-family:FreeMono;-inkscape-font-specification:FreeMono">
          <path
             d="m 123.76141,48.56791 v 1.611488 h 0.39229 q 0.0762,0 0.0762,0.05644 0,0.05927 -0.0762,0.05927 h -0.90029 q -0.079,0 -0.079,-0.05927 0,-0.05644 0.079,-0.05644 h 0.39229 V 48.72031 l -0.31891,0.318911 q -0.0226,0.02258 -0.0593,0.02258 -0.0226,0 -0.0395,-0.01693 -0.0141,-0.01976 -0.0141,-0.04798 0,-0.0254 0.031,-0.05644 l 0.37254,-0.372533 z"
             id="path8714" />
        </g>
        <g
           aria-label="2"
           id="text3272"
           style="font-size:2.82222px;line-height:1.25;font-family:FreeMono;-inkscape-font-specification:FreeMono">
          <path
             d="m 123.20663,74.40298 q 0,-0.127 0.1524,-0.270933 0.15522,-0.146755 0.37253,-0.146755 0.20602,0 0.36124,0.146755 0.15805,0.146755 0.15805,0.338666 0,0.127 -0.0762,0.239889 -0.0734,0.110067 -0.3302,0.349955 l -0.5842,0.544689 v 0.0085 h 0.88618 v -0.101599 q 0,-0.0762 0.0593,-0.0762 0.0564,0 0.0564,0.0762 v 0.217311 h -1.11196 V 75.56009 l 0.66605,-0.626533 q 0.19755,-0.194733 0.25682,-0.282222 0.0621,-0.08749 0.0621,-0.183444 0,-0.146755 -0.12136,-0.256822 -0.12135,-0.110066 -0.28222,-0.110066 -0.14393,0 -0.26247,0.08467 -0.11571,0.08467 -0.14957,0.211667 -0.0169,0.05644 -0.0593,0.05644 -0.0198,0 -0.0367,-0.01411 -0.0169,-0.01693 -0.0169,-0.03669 z"
             id="path8717" />
        </g>
        <g
           aria-label="3"
           id="text3276"
           style="font-size:2.82222px;line-height:1.25;font-family:FreeMono;-inkscape-font-specification:FreeMono">
          <path
             d="m 123.14874,99.640208 q 0,-0.03104 0.0536,-0.08749 0.0564,-0.05644 0.1778,-0.110067 0.12135,-0.05644 0.26529,-0.05644 0.21166,0 0.35278,0.126999 0.14393,0.124178 0.14393,0.307622 0,0.163689 -0.0903,0.25964 -0.0903,0.096 -0.20038,0.12418 0.16651,0.0677 0.25964,0.18909 0.0931,0.11853 0.0931,0.26247 0,0.21449 -0.17498,0.36689 -0.17216,0.14957 -0.41487,0.14957 -0.16651,0 -0.35842,-0.0818 -0.18909,-0.0847 -0.18909,-0.15522 0,-0.0198 0.0169,-0.0367 0.0169,-0.0169 0.0367,-0.0169 0.0198,0 0.079,0.0451 0.0593,0.0423 0.16933,0.0875 0.11007,0.0423 0.24836,0.0423 0.19191,0 0.3302,-0.11853 0.14111,-0.11853 0.14111,-0.28222 0,-0.16651 -0.14958,-0.28505 -0.14958,-0.12135 -0.3556,-0.12135 -0.0762,0 -0.0762,-0.0593 0,-0.0564 0.0762,-0.0564 0.44309,0 0.44309,-0.310447 0,-0.138289 -0.11007,-0.2286 -0.11007,-0.09313 -0.27375,-0.09313 -0.11854,0 -0.2032,0.03104 -0.0819,0.02822 -0.11572,0.06491 -0.031,0.03669 -0.0621,0.06773 -0.031,0.02822 -0.0564,0.02822 -0.0226,0 -0.0395,-0.01411 -0.0169,-0.01693 -0.0169,-0.03951 z"
             id="path8720" />
        </g>
      </g>
      <g
         id="path6142-36"
         transform="translate(-66.705888,0.711559)"
         style="stroke:#ff0000;stroke-width:0.00035278;stroke-dasharray:none;stroke-opacity:1">
        <path
           style="color:#000000;fill:#ff0000;fill-opacity:0.00774159;stroke:#ff0000;stroke-width:0.00035278;stroke-dasharray:none;stroke-opacity:1"
           d="m 111.79528,138.45567 a 2.9953923,2.9953923 0 0 1 -2.99539,2.9954 2.9953923,2.9953923 0 0 1 -2.99539,-2.9954 2.9953923,2.9953923 0 0 1 2.99539,-2.99539 2.9953923,2.9953923 0 0 1 2.99539,2.99539 z"
           id="path343-12" />
        <path
           style="color:#000000;fill:#ff0000;stroke:#ff0000;stroke-width:0.00035278;stroke-dasharray:none;stroke-opacity:1"
           d="m 108.80078,135.45508 c -1.65701,0 -3.00195,1.34299 -3.00195,3 0,1.65701 1.34494,3.00195 3.00195,3.00195 1.65701,0 3,-1.34494 3,-3.00195 0,-1.65701 -1.34299,-3 -3,-3 z m 0,0.01 c 1.65161,0 2.99024,1.33863 2.99024,2.99024 0,1.6516 -1.33863,2.99023 -2.99024,2.99023 -1.6516,0 -2.99219,-1.33863 -2.99219,-2.99023 0,-1.65161 1.34059,-2.99024 2.99219,-2.99024 z"
           id="path345-93" />
      </g>
    </g>
  </g>
</svg>
