<?xml version="1.0" encoding="UTF-8" standalone="no"?>
<!-- Created with Inkscape (http://www.inkscape.org/) -->

<svg
   width="88.010002mm"
   height="109.54125mm"
   viewBox="0 0 88.010002 109.54125"
   version="1.1"
   id="svg916"
   sodipodi:docname="mrad-schablone-50.svg"
   inkscape:version="1.2.2 (b0a8486541, 2022-12-01)"
   xmlns:inkscape="http://www.inkscape.org/namespaces/inkscape"
   xmlns:sodipodi="http://sodipodi.sourceforge.net/DTD/sodipodi-0.dtd"
   xmlns="http://www.w3.org/2000/svg"
   xmlns:svg="http://www.w3.org/2000/svg">
  <sodipodi:namedview
     id="namedview55"
     pagecolor="#ffffff"
     bordercolor="#666666"
     borderopacity="1.0"
     inkscape:showpageshadow="2"
     inkscape:pageopacity="0.0"
     inkscape:pagecheckerboard="0"
     inkscape:deskcolor="#d1d1d1"
     inkscape:document-units="mm"
     showgrid="true"
     inkscape:zoom="1.5303043"
     inkscape:cx="187.21767"
     inkscape:cy="227.07902"
     inkscape:window-width="1920"
     inkscape:window-height="1030"
     inkscape:window-x="0"
     inkscape:window-y="0"
     inkscape:window-maximized="1"
     inkscape:current-layer="svg916">
    <inkscape:grid
       type="xygrid"
       id="grid4714" />
  </sodipodi:namedview>
  <defs
     id="defs913">
    <inkscape:path-effect
       effect="ruler"
       id="path-effect2898"
       is_visible="true"
       lpeversion="1"
       unit="cm"
       mark_distance="0.5"
       mark_length="0.5"
       minor_mark_length="0.3"
       major_mark_steps="2"
       shift="0"
       offset="0"
       mark_dir="both"
       border_marks="both" />
    <inkscape:path-effect
       effect="ruler"
       id="path-effect2904"
       is_visible="true"
       lpeversion="1"
       unit="in"
       mark_distance="0.2"
       mark_length="0.2"
       minor_mark_length="0.1"
       major_mark_steps="5"
       shift="0"
       offset="0"
       mark_dir="both"
       border_marks="both" />
  </defs>
  <g
     aria-label="MRAD 50m"
     transform="scale(-0.84638745,1.181492)"
     id="text113"
     style="font-size:8.39374px;line-height:1.25;stroke-width:0.209844">
    <path
       d="m -69.106266,10.691071 q 0,-0.193056 0.125906,-0.302175 0.1343,-0.117512 0.344144,-0.117512 h 0.377718 V 7.8455931 l -0.931705,2.1152224 h -0.763831 l -0.990461,-2.1068287 v 2.4173972 h 0.377718 q 0.20145,0 0.33575,0.117512 0.1343,0.109119 0.1343,0.302175 0,0.419687 -0.47005,0.419687 h -1.166729 q -0.4029,0 -0.4029,-0.419687 0,-0.419687 0.352537,-0.419687 V 7.0649753 q -0.352537,-0.06715 -0.352537,-0.4280807 0,-0.419687 0.436475,-0.419687 h 0.948492 l 1.158336,2.5013344 1.133155,-2.5013344 h 0.923311 q 0.226631,0 0.327356,0.092331 0.109119,0.083937 0.109119,0.3273559 0,0.3357496 -0.318962,0.419687 v 3.2148024 q 0.1343,0 0.226631,0.117512 0.09233,0.109119 0.09233,0.302175 0,0.419687 -0.360931,0.419687 h -1.175123 q -0.47005,0 -0.47005,-0.419687 z"
       style="font-weight:bold;font-family:FreeMono;-inkscape-font-specification:'FreeMono Bold'"
       id="path6379" />
    <path
       d="m -62.080702,10.691071 q 0,0.20145 -0.125906,0.310568 -0.125907,0.109119 -0.33575,0.109119 h -0.663105 q -0.310569,-0.604349 -0.797406,-1.1835175 -0.478443,-0.5875617 -0.747043,-0.6798929 h -0.805799 v 1.0240364 h 0.293781 q 0.251812,0 0.4029,0.117512 0.151087,0.109119 0.151087,0.302175 0,0.20145 -0.151087,0.310568 -0.151088,0.109119 -0.4029,0.109119 h -1.259061 q -0.553986,0 -0.553986,-0.419687 0,-0.419687 0.553986,-0.419687 h 0.125906 V 7.0565816 h -0.125906 q -0.553986,0 -0.553986,-0.419687 0,-0.2434185 0.142693,-0.3273559 0.142694,-0.092331 0.411293,-0.092331 h 1.871804 q 0.814193,0 1.326211,0.419687 0.520412,0.4112932 0.520412,1.0743986 0,0.7722241 -0.906524,1.2674547 0.545593,0.4784432 1.057611,1.2926361 0.293781,0 0.428081,0.09233 0.142694,0.09233 0.142694,0.327356 z m -3.475009,-2.2830974 h 0.637925 q 0.528805,0 0.872949,-0.2014497 0.352537,-0.2098435 0.352537,-0.5204119 0,-0.2685996 -0.260206,-0.4448682 -0.260206,-0.1846622 -0.663106,-0.1846622 h -0.940099 z"
       style="font-weight:bold;font-family:FreeMono;-inkscape-font-specification:'FreeMono Bold'"
       id="path6381" />
    <path
       d="m -59.126103,10.691071 q 0,-0.419687 0.553987,-0.419687 h 0.193056 l -0.193056,-0.486837 h -1.99771 l -0.193056,0.486837 h 0.193056 q 0.553987,0 0.553987,0.419687 0,0.218237 -0.125906,0.318962 -0.117512,0.100725 -0.428081,0.100725 h -1.03243 q -0.461655,0 -0.461655,-0.419687 0,-0.20145 0.109118,-0.310569 0.109119,-0.109118 0.276994,-0.109118 l 1.301029,-3.2148024 h -0.528805 q -0.562381,0 -0.562381,-0.419687 0,-0.2518122 0.142694,-0.3357496 0.151087,-0.083937 0.419687,-0.083937 h 1.813047 l 1.670355,4.0541764 q 0.193056,0 0.293781,0.09233 0.100724,0.09233 0.100724,0.327356 0,0.243418 -0.109118,0.335749 -0.109119,0.08394 -0.352537,0.08394 h -1.082793 q -0.327356,0 -0.444868,-0.100725 -0.109119,-0.100725 -0.109119,-0.318962 z m 0.209844,-1.745898 -0.654712,-1.611598 -0.663105,1.611598 z"
       style="font-weight:bold;font-family:FreeMono;-inkscape-font-specification:'FreeMono Bold'"
       id="path6383" />
    <path
       d="m -56.356165,11.110758 q -0.562381,0 -0.562381,-0.419687 0,-0.20145 0.1343,-0.310569 0.1343,-0.109118 0.377719,-0.109118 V 7.0565816 q -0.512019,0 -0.512019,-0.419687 0,-0.2518122 0.142694,-0.3357496 0.151087,-0.083937 0.419687,-0.083937 h 1.779473 q 0.914917,0 1.536054,0.6714992 0.629531,0.6714991 0.629531,1.6619604 V 8.945173 q 0,0.9820675 -0.612743,1.578023 -0.60435,0.587562 -1.619992,0.587562 z m 3.105684,-2.5768783 q 0,-0.6295304 -0.386112,-1.0492174 -0.377719,-0.4280807 -1.007249,-0.4280807 h -0.923311 v 3.2148024 h 0.931705 q 0.419687,0 0.705074,-0.125906 0.293781,-0.125906 0.42808,-0.3441436 0.142694,-0.2182372 0.193057,-0.4280807 0.05876,-0.2098435 0.05876,-0.4532619 z"
       style="font-weight:bold;font-family:FreeMono;-inkscape-font-specification:'FreeMono Bold'"
       id="path6385" />
    <path
       d="m -42.867418,6.3095387 q 0,0.419687 -0.553987,0.419687 h -1.695536 v 0.9652801 q 0.47005,-0.1426936 0.830981,-0.1426936 0.76383,0 1.267454,0.5288056 0.503625,0.5288056 0.503625,1.3346046 0,0.2350247 -0.05036,0.4616557 -0.04197,0.2266309 -0.184662,0.4868369 -0.1343,0.251812 -0.360931,0.436474 -0.218237,0.184663 -0.612743,0.310569 -0.386112,0.125906 -0.89813,0.125906 -0.755437,0 -1.267455,-0.235025 -0.512018,-0.243418 -0.512018,-0.595955 0,-0.167875 0.125906,-0.285387 0.125906,-0.1259066 0.293781,-0.1259066 0.109119,0 0.20145,0.06715 0.100725,0.05876 0.184662,0.1343 0.09233,0.07554 0.33575,0.142694 0.251812,0.05876 0.62953,0.05876 0.654712,0 0.96528,-0.235025 0.310569,-0.2434182 0.310569,-0.7386489 0,-0.4616556 -0.260206,-0.7470428 -0.260206,-0.2853871 -0.679893,-0.2853871 -0.344144,0 -0.763831,0.1762685 -0.419686,0.1762685 -0.478443,0.1762685 -0.184662,0 -0.302174,-0.1342998 -0.117513,-0.1342998 -0.117513,-0.3357496 V 5.8898517 h 2.53491 q 0.268599,0 0.411293,0.092331 0.142694,0.083937 0.142694,0.3273558 z"
       style="font-weight:bold;font-family:FreeMono;-inkscape-font-specification:'FreeMono Bold'"
       id="path6387" />
    <path
       d="m -39.400801,5.7555519 q 0.889737,0 1.351393,0.6798929 0.470049,0.6798929 0.470049,1.6619605 v 0.7974052 q 0,0.6295305 -0.193056,1.1499425 -0.184662,0.512018 -0.612743,0.856161 -0.419687,0.33575 -1.015643,0.33575 -0.889736,0 -1.359785,-0.679893 -0.461656,-0.6798929 -0.461656,-1.6619605 V 8.0974053 q 0,-0.6295305 0.184662,-1.1415486 0.193056,-0.5204119 0.612743,-0.8561615 0.428081,-0.3441433 1.024036,-0.3441433 z m -0.982067,2.2830972 v 0.9149176 q 0,0.6547117 0.2686,1.0492173 0.268599,0.394506 0.713467,0.394506 0.444869,0 0.713468,-0.394506 0.2686,-0.3945056 0.2686,-1.0492173 V 8.0386491 q 0,-0.6547117 -0.2686,-1.0492175 -0.268599,-0.3945057 -0.713468,-0.3945057 -0.444868,0 -0.713467,0.3945057 -0.2686,0.3945058 -0.2686,1.0492175 z"
       style="font-weight:bold;font-family:FreeMono;-inkscape-font-specification:'FreeMono Bold'"
       id="path6389" />
    <path
       d="m -36.479776,11.110758 q -0.402899,0 -0.402899,-0.419687 0,-0.419687 0.344143,-0.419687 V 8.2820675 q -0.335749,0 -0.335749,-0.4196869 0,-0.419687 0.394505,-0.419687 h 0.780618 v 0.2014497 q 0.235025,-0.1846622 0.360931,-0.2434184 0.125906,-0.06715 0.310568,-0.06715 0.478443,0 0.856162,0.4112932 0.377718,-0.4112932 0.83098,-0.4112932 0.470049,0 0.780618,0.3189621 0.318962,0.3105683 0.318962,0.7806178 v 1.8382291 q 0.151087,0 0.2686,0.117512 0.125906,0.109119 0.125906,0.302175 0,0.193056 -0.1343,0.310568 -0.1343,0.109119 -0.310569,0.109119 h -0.789011 V 8.5003048 q 0,-0.3273559 -0.293781,-0.3273559 -0.159481,0 -0.2686,0.075544 -0.100725,0.06715 -0.327355,0.3021746 v 1.7207168 q 0.461655,0 0.461655,0.419687 0,0.419687 -0.512018,0.419687 h -0.789011 V 8.5003048 q 0,-0.3273559 -0.293781,-0.3273559 -0.167875,0 -0.285388,0.075544 -0.117512,0.075544 -0.310568,0.3021746 v 1.7207168 q 0.193056,0 0.310568,0.109118 0.117513,0.109119 0.117513,0.310569 0,0.20145 -0.125906,0.310568 -0.125906,0.109119 -0.344144,0.109119 z"
       style="font-weight:bold;font-family:FreeMono;-inkscape-font-specification:'FreeMono Bold'"
       id="path6391" />
  </g>
  <path
     style="color:#000000;fill:none;stroke:#ff0000;stroke-opacity:1;stroke-width:0.00035278;stroke-dasharray:none"
     d="m 78.26274,97.177912 c -1.65701,0 -3,1.34299 -3,3.000008 0,1.65702 1.34299,3.00001 3,3.00001 1.65701,0 3,-1.34299 3,-3.00001 0,-1.657018 -1.34299,-3.000008 -3,-3.000008 z m 0,0.0098 c 1.651605,0 2.990234,1.338628 2.990234,2.990238 0,1.65161 -1.338629,2.99024 -2.990234,2.99024 -1.651606,0 -2.990235,-1.33863 -2.990235,-2.99024 0,-1.65161 1.338629,-2.990238 2.990235,-2.990238 z"
     id="path6142" />
  <path
     style="color:#000000;fill:none;stroke:#ff0000;stroke-opacity:1;stroke-width:0.00035278;stroke-dasharray:none"
     d="M 10.658203,0 C 4.7549458,0 0,4.7529926 0,10.65625 v 88.228516 c 0,5.903244 4.7549447,10.656254 10.658203,10.656254 h 66.697266 c 5.903258,0 10.654297,-4.75301 10.654297,-10.656254 V 10.65625 C 88.009766,4.7529937 83.258726,0 77.355469,0 Z m 0,0.01757813 h 0.0039 66.69336 c 5.89322,0 10.636718,4.74545337 10.636718,10.63867187 v 88.228516 c 0,5.893214 -4.743498,10.636714 -10.636718,10.636714 H 10.658203 c -5.8932204,0 -10.63867175,-4.7435 -10.63867175,-10.636714 V 10.65625 c 0,-5.8932185 4.74545135,-10.63867187 10.63867175,-10.63867187 z"
     id="path6408" />
  <g
     id="g4851"
     style="stroke-width:0.35277778;stroke-dasharray:none">
    <path
       id="path7598"
       style="fill:none;fill-opacity:0;stroke:#000000"
       transform="scale(-1,1)"
       d="m -39.230311,61.292255 a 4.9006205,4.9006205 0 0 1 -4.900621,4.900621 4.9006205,4.9006205 0 0 1 -4.90062,-4.900621 4.9006205,4.9006205 0 0 1 4.90062,-4.90062 4.9006205,4.9006205 0 0 1 4.900621,4.90062 z" />
    <path
       id="path7600"
       style="fill:none;fill-opacity:0;stroke:#000000"
       transform="scale(-1,1)"
       d="m -41.721763,61.301815 a 2.3996165,2.3996165 0 0 1 -2.399617,2.399617 2.3996165,2.3996165 0 0 1 -2.399616,-2.399617 2.3996165,2.3996165 0 0 1 2.399616,-2.399616 2.3996165,2.3996165 0 0 1 2.399617,2.399616 z" />
    <path
       id="path1020"
       style="fill:none;fill-opacity:0.166656;stroke:#000000"
       transform="scale(-1,1)"
       d="m -36.750844,61.272068 a 7.4002681,7.4002681 0 0 1 -7.400268,7.400268 7.4002681,7.4002681 0 0 1 -7.400268,-7.400268 7.4002681,7.4002681 0 0 1 7.400268,-7.400268 7.4002681,7.4002681 0 0 1 7.400268,7.400268 z" />
    <path
       id="path1126"
       style="fill:none;fill-opacity:0.166656;stroke:#000000"
       transform="scale(-1,1)"
       d="m -34.243734,61.279308 a 9.9001293,9.9001293 0 0 1 -9.90013,9.90013 9.9001293,9.9001293 0 0 1 -9.900129,-9.90013 9.9001293,9.9001293 0 0 1 9.900129,-9.900129 9.9001293,9.9001293 0 0 1 9.90013,9.900129 z" />
    <path
       id="path1128"
       style="fill:none;fill-opacity:0.166656;stroke:#000000"
       transform="scale(-1,1)"
       d="M -31.750995,61.272068 A 12.400117,12.400117 0 0 1 -44.151112,73.672185 12.400117,12.400117 0 0 1 -56.551229,61.272068 12.400117,12.400117 0 0 1 -44.151112,48.871951 12.400117,12.400117 0 0 1 -31.750995,61.272068 Z" />
    <g
       aria-label="0.1"
       transform="scale(-1,1)"
       id="text1858"
       style="font-size:2.11667px;line-height:1.25">
      <path
         d="m -44.320991,61.266772 q 0,0.243417 -0.0508,0.419101 -0.0508,0.173567 -0.160867,0.2667 -0.110067,0.09313 -0.2921,0.09313 -0.256117,0 -0.378884,-0.205317 -0.12065,-0.207434 -0.12065,-0.573618 0,-0.245534 0.04868,-0.419101 0.0508,-0.173566 0.160867,-0.264583 0.110067,-0.09313 0.289984,-0.09313 0.254,0 0.378884,0.205317 0.124883,0.203201 0.124883,0.571501 z m -0.817034,0 q 0,0.311151 0.06985,0.465668 0.07197,0.154516 0.243417,0.154516 0.169333,0 0.2413,-0.1524 0.07408,-0.154517 0.07408,-0.467784 0,-0.309034 -0.07408,-0.463551 -0.07197,-0.154516 -0.2413,-0.154516 -0.17145,0 -0.243417,0.154516 -0.06985,0.154517 -0.06985,0.463551 z"
         id="path6399" />
      <path
         d="m -44.064873,61.91024 q 0,-0.07832 0.0381,-0.110067 0.0381,-0.03175 0.09102,-0.03175 0.05503,0 0.09313,0.03175 0.04022,0.03175 0.04022,0.110067 0,0.0762 -0.04022,0.110067 -0.0381,0.03387 -0.09313,0.03387 -0.05292,0 -0.09102,-0.03387 -0.0381,-0.03387 -0.0381,-0.110067 z"
         id="path6401" />
      <path
         d="m -42.898588,62.02454 h -0.182034 v -1.056218 q 0,-0.09102 0.0021,-0.146051 0.0021,-0.05503 0.0063,-0.1143 -0.03387,0.03387 -0.06138,0.05715 -0.02752,0.02328 -0.06985,0.05927 l -0.160867,0.131234 -0.09737,-0.124884 0.408517,-0.3175 h 0.154517 z"
         id="path6403" />
    </g>
    <g
       aria-label="0.2"
       transform="scale(-1,1)"
       id="text1862"
       style="font-size:2.11667px;line-height:1.25">
      <path
         d="m -44.525947,64.873168 q 0,0.243417 -0.0508,0.4191 -0.0508,0.173567 -0.160867,0.266701 -0.110067,0.09313 -0.2921,0.09313 -0.256117,0 -0.378884,-0.205317 -0.12065,-0.207433 -0.12065,-0.573617 0,-0.245534 0.04868,-0.419101 0.0508,-0.173567 0.160867,-0.264584 0.110067,-0.09313 0.289984,-0.09313 0.254,0 0.378884,0.205317 0.124883,0.2032 0.124883,0.571501 z m -0.817034,0 q 0,0.31115 0.06985,0.465667 0.07197,0.154517 0.243417,0.154517 0.169333,0 0.2413,-0.1524 0.07408,-0.154517 0.07408,-0.467784 0,-0.309034 -0.07408,-0.463551 -0.07197,-0.154517 -0.2413,-0.154517 -0.17145,0 -0.243417,0.154517 -0.06985,0.154517 -0.06985,0.463551 z"
         id="path6406" />
      <path
         d="m -44.269829,65.516635 q 0,-0.07832 0.0381,-0.110066 0.0381,-0.03175 0.09102,-0.03175 0.05503,0 0.09313,0.03175 0.04022,0.03175 0.04022,0.110066 0,0.0762 -0.04022,0.110067 -0.0381,0.03387 -0.09313,0.03387 -0.05292,0 -0.09102,-0.03387 -0.0381,-0.03387 -0.0381,-0.110067 z"
         id="path6409" />
      <path
         d="m -42.754294,65.630936 h -0.999068 v -0.154517 l 0.395817,-0.400051 q 0.1143,-0.1143 0.192617,-0.2032 0.07832,-0.0889 0.118534,-0.173567 0.04022,-0.08678 0.04022,-0.188384 0,-0.124883 -0.07408,-0.188383 -0.07408,-0.06562 -0.192617,-0.06562 -0.110067,0 -0.194734,0.0381 -0.08255,0.0381 -0.169333,0.105833 l -0.09948,-0.124883 q 0.0889,-0.07408 0.203201,-0.124884 0.116417,-0.05292 0.26035,-0.05292 0.211667,0 0.334434,0.10795 0.122767,0.105833 0.122767,0.294217 0,0.118533 -0.04868,0.22225 -0.04868,0.103717 -0.135466,0.205317 -0.08678,0.09948 -0.203201,0.213784 l -0.315384,0.31115 v 0.0085 h 0.764118 z"
         id="path6411" />
    </g>
    <g
       aria-label="0.3"
       transform="scale(-1,1)"
       id="text1866"
       style="font-size:2.11667px;line-height:1.25">
      <path
         d="m -44.477801,67.442168 q 0,0.243417 -0.0508,0.419101 -0.0508,0.173567 -0.160866,0.2667 -0.110067,0.09313 -0.292101,0.09313 -0.256117,0 -0.378884,-0.205317 -0.12065,-0.207434 -0.12065,-0.573618 0,-0.245534 0.04868,-0.419101 0.0508,-0.173566 0.160867,-0.264583 0.110067,-0.09313 0.289984,-0.09313 0.254001,0 0.378884,0.205317 0.124884,0.203201 0.124884,0.571501 z m -0.817035,0 q 0,0.311151 0.06985,0.465667 0.07197,0.154517 0.243417,0.154517 0.169334,0 0.2413,-0.1524 0.07408,-0.154517 0.07408,-0.467784 0,-0.309034 -0.07408,-0.463551 -0.07197,-0.154517 -0.2413,-0.154517 -0.17145,0 -0.243417,0.154517 -0.06985,0.154517 -0.06985,0.463551 z"
         id="path6414" />
      <path
         d="m -44.221683,68.085636 q 0,-0.07832 0.0381,-0.110067 0.0381,-0.03175 0.09102,-0.03175 0.05503,0 0.09313,0.03175 0.04022,0.03175 0.04022,0.110067 0,0.0762 -0.04022,0.110067 -0.0381,0.03387 -0.09313,0.03387 -0.05292,0 -0.09102,-0.03387 -0.0381,-0.03387 -0.0381,-0.110067 z"
         id="path6416" />
      <path
         d="m -42.763299,67.042117 q 0,0.152401 -0.08467,0.243418 -0.08467,0.0889 -0.228601,0.118533 v 0.0085 q 0.182034,0.02117 0.270934,0.1143 0.0889,0.09313 0.0889,0.243417 0,0.131233 -0.06138,0.23495 -0.06138,0.1016 -0.190501,0.158751 -0.127,0.05715 -0.328083,0.05715 -0.118534,0 -0.220134,-0.01905 -0.1016,-0.01693 -0.194734,-0.0635 v -0.173566 q 0.09525,0.04657 0.205317,0.07408 0.110067,0.0254 0.211667,0.0254 0.203201,0 0.292101,-0.07832 0.09102,-0.08043 0.09102,-0.220133 0,-0.141817 -0.112184,-0.203201 -0.110067,-0.0635 -0.31115,-0.0635 h -0.146051 v -0.15875 h 0.148167 q 0.186267,0 0.281517,-0.07832 0.09737,-0.07832 0.09737,-0.207433 0,-0.110067 -0.07408,-0.169334 -0.07408,-0.06138 -0.201084,-0.06138 -0.122767,0 -0.20955,0.03598 -0.08678,0.03598 -0.171451,0.09102 L -43.7031,66.8241 q 0.08043,-0.0635 0.198967,-0.110066 0.12065,-0.04657 0.27305,-0.04657 0.237067,0 0.351368,0.105833 0.116416,0.105834 0.116416,0.268817 z"
         id="path6418" />
    </g>
    <g
       aria-label="0.4"
       transform="scale(-1,1)"
       id="text1870"
       style="font-size:2.11667px;line-height:1.25">
      <path
         d="m -44.52777,69.922606 q 0,0.243417 -0.0508,0.419101 -0.0508,0.173567 -0.160867,0.2667 -0.110067,0.09313 -0.292101,0.09313 -0.256117,0 -0.378884,-0.205317 -0.12065,-0.207434 -0.12065,-0.573618 0,-0.245533 0.04868,-0.4191 0.0508,-0.173567 0.160867,-0.264584 0.110066,-0.09313 0.289983,-0.09313 0.254001,0 0.378884,0.205317 0.124884,0.203201 0.124884,0.571501 z m -0.817035,0 q 0,0.311151 0.06985,0.465668 0.07197,0.154517 0.243417,0.154517 0.169334,0 0.241301,-0.152401 0.07408,-0.154517 0.07408,-0.467784 0,-0.309033 -0.07408,-0.46355 -0.07197,-0.154517 -0.241301,-0.154517 -0.17145,0 -0.243417,0.154517 -0.06985,0.154517 -0.06985,0.46355 z"
         id="path6421" />
      <path
         d="m -44.271652,70.566074 q 0,-0.07832 0.0381,-0.110067 0.0381,-0.03175 0.09102,-0.03175 0.05503,0 0.09313,0.03175 0.04022,0.03175 0.04022,0.110067 0,0.0762 -0.04022,0.110067 -0.0381,0.03387 -0.09313,0.03387 -0.05292,0 -0.09102,-0.03387 -0.0381,-0.03387 -0.0381,-0.110067 z"
         id="path6423" />
      <path
         d="m -42.688384,70.337474 h -0.220133 v 0.3429 h -0.179917 v -0.3429 h -0.723901 v -0.158751 l 0.711201,-1.018118 h 0.192617 v 1.009652 h 0.220133 z m -0.40005,-0.643468 q 0,-0.110067 0.0042,-0.186267 0.0042,-0.07832 0.0063,-0.148167 h -0.0085 q -0.01693,0.04022 -0.04233,0.08678 -0.0254,0.04657 -0.04868,0.07832 l -0.452967,0.645585 h 0.541868 z"
         id="path6425" />
    </g>
    <g
       aria-label="0.5"
       transform="scale(-1,1)"
       id="text2600"
       style="font-size:2.11667px;line-height:1.25">
      <path
         d="m -44.499416,72.403037 q 0,0.243417 -0.0508,0.419101 -0.0508,0.173566 -0.160867,0.2667 -0.110066,0.09313 -0.2921,0.09313 -0.256117,0 -0.378884,-0.205317 -0.12065,-0.207433 -0.12065,-0.573617 0,-0.245534 0.04868,-0.419101 0.0508,-0.173567 0.160867,-0.264583 0.110067,-0.09313 0.289984,-0.09313 0.254,0 0.378884,0.205317 0.124883,0.2032 0.124883,0.571501 z m -0.817034,0 q 0,0.31115 0.06985,0.465667 0.07197,0.154517 0.243417,0.154517 0.169334,0 0.2413,-0.1524 0.07408,-0.154517 0.07408,-0.467784 0,-0.309034 -0.07408,-0.463551 -0.07197,-0.154517 -0.2413,-0.154517 -0.17145,0 -0.243417,0.154517 -0.06985,0.154517 -0.06985,0.463551 z"
         id="path6428" />
      <path
         d="m -44.243297,73.046505 q 0,-0.07832 0.0381,-0.110067 0.0381,-0.03175 0.09102,-0.03175 0.05503,0 0.09313,0.03175 0.04022,0.03175 0.04022,0.110067 0,0.0762 -0.04022,0.110066 -0.0381,0.03387 -0.09313,0.03387 -0.05292,0 -0.09102,-0.03387 -0.0381,-0.03387 -0.0381,-0.110066 z"
         id="path6430" />
      <path
         d="m -43.246347,72.233703 q 0.232834,0 0.370418,0.116417 0.137583,0.116417 0.137583,0.328084 0,0.23495 -0.150283,0.370417 -0.148167,0.13335 -0.414868,0.13335 -0.116417,0 -0.220133,-0.02117 -0.101601,-0.02117 -0.171451,-0.06138 v -0.175683 q 0.0762,0.04657 0.184151,0.07408 0.110066,0.0254 0.20955,0.0254 0.167217,0 0.268817,-0.07832 0.103717,-0.08043 0.103717,-0.24765 0,-0.148167 -0.09102,-0.226484 -0.09102,-0.08043 -0.287867,-0.08043 -0.05927,0 -0.135467,0.01058 -0.0762,0.01058 -0.122767,0.02117 l -0.09313,-0.05927 0.05715,-0.713318 h 0.757768 v 0.169334 h -0.599018 l -0.03598,0.438151 q 0.03598,-0.0063 0.09737,-0.01482 0.06138,-0.0085 0.135467,-0.0085 z"
         id="path6432" />
    </g>
    <path
       id="path2602"
       style="fill:none;fill-opacity:0.166656;stroke:#000000"
       transform="scale(-1,1)"
       d="M -29.219954,61.272068 A 14.901425,14.901425 0 0 1 -44.12138,76.173493 14.901425,14.901425 0 0 1 -59.022805,61.272068 14.901425,14.901425 0 0 1 -44.12138,46.370643 14.901425,14.901425 0 0 1 -29.219954,61.272068 Z" />
    <path
       id="path2604"
       style="fill:none;fill-opacity:0.166656;stroke:#000000"
       transform="scale(-1,1)"
       d="M -26.716742,61.272068 A 17.404638,17.404638 0 0 1 -44.12138,78.676706 17.404638,17.404638 0 0 1 -61.526018,61.272068 17.404638,17.404638 0 0 1 -44.12138,43.86743 17.404638,17.404638 0 0 1 -26.716742,61.272068 Z" />
    <path
       id="path2606"
       style="fill:none;fill-opacity:0.166656;stroke:#000000"
       transform="scale(-1,1)"
       d="M -24.221294,61.272068 A 19.900085,19.900085 0 0 1 -44.12138,81.172153 19.900085,19.900085 0 0 1 -64.021465,61.272068 19.900085,19.900085 0 0 1 -44.12138,41.371983 19.900085,19.900085 0 0 1 -24.221294,61.272068 Z" />
    <path
       id="path2608"
       style="fill:none;fill-opacity:0.166656;stroke:#000000"
       transform="scale(-1,1)"
       d="M -21.74383,61.292255 A 22.400034,22.400032 0 0 1 -44.143864,83.692287 22.400034,22.400032 0 0 1 -66.543898,61.292255 22.400034,22.400032 0 0 1 -44.143864,38.892223 22.400034,22.400032 0 0 1 -21.74383,61.292255 Z" />
    <g
       aria-label="0.6"
       transform="scale(-1,1)"
       id="text2612"
       style="font-size:2.11667px;line-height:1.25">
      <path
         d="m -44.520805,74.905074 q 0,0.243417 -0.0508,0.419101 -0.0508,0.173567 -0.160867,0.2667 -0.110066,0.09313 -0.2921,0.09313 -0.256117,0 -0.378884,-0.205316 -0.12065,-0.207434 -0.12065,-0.573618 0,-0.245534 0.04868,-0.419101 0.0508,-0.173567 0.160867,-0.264583 0.110067,-0.09313 0.289984,-0.09313 0.254,0 0.378884,0.205317 0.124883,0.2032 0.124883,0.571501 z m -0.817034,0 q 0,0.31115 0.06985,0.465667 0.07197,0.154517 0.243417,0.154517 0.169334,0 0.2413,-0.1524 0.07408,-0.154517 0.07408,-0.467784 0,-0.309034 -0.07408,-0.463551 -0.07197,-0.154517 -0.2413,-0.154517 -0.17145,0 -0.243417,0.154517 -0.06985,0.154517 -0.06985,0.463551 z"
         id="path6439" />
      <path
         d="m -44.264686,75.548542 q 0,-0.07832 0.0381,-0.110067 0.0381,-0.03175 0.09102,-0.03175 0.05503,0 0.09313,0.03175 0.04022,0.03175 0.04022,0.110067 0,0.0762 -0.04022,0.110066 -0.0381,0.03387 -0.09313,0.03387 -0.05292,0 -0.09102,-0.03387 -0.0381,-0.03387 -0.0381,-0.110066 z"
         id="path6441" />
      <path
         d="m -43.733403,75.017257 q 0,-0.162983 0.02752,-0.319617 0.02963,-0.15875 0.103716,-0.28575 0.0762,-0.129117 0.211667,-0.205317 0.135467,-0.0762 0.349251,-0.0762 0.04445,0 0.09737,0.0042 0.05503,0.0042 0.0889,0.01482 v 0.15875 q -0.0381,-0.0127 -0.08678,-0.01905 -0.04657,-0.0063 -0.09525,-0.0063 -0.14605,0 -0.243417,0.04868 -0.09737,0.04868 -0.154517,0.133351 -0.05503,0.08467 -0.08043,0.194733 -0.0254,0.110067 -0.03175,0.234951 h 0.0127 q 0.04868,-0.07408 0.135467,-0.124884 0.08678,-0.05292 0.22225,-0.05292 0.19685,0 0.317501,0.120651 0.12065,0.118533 0.12065,0.338667 0,0.237067 -0.131234,0.372534 -0.129117,0.135466 -0.34925,0.135466 -0.143934,0 -0.260351,-0.07197 -0.116417,-0.07197 -0.186267,-0.220134 -0.06773,-0.148167 -0.06773,-0.374651 z m 0.512234,0.510118 q 0.13335,0 0.2159,-0.08467 0.08255,-0.08678 0.08255,-0.2667 0,-0.143934 -0.07408,-0.228601 -0.07197,-0.08467 -0.218017,-0.08467 -0.09948,0 -0.173567,0.04233 -0.07408,0.04022 -0.116417,0.103717 -0.04022,0.0635 -0.04022,0.131233 0,0.09102 0.03598,0.182034 0.03598,0.0889 0.10795,0.148167 0.07197,0.05715 0.179917,0.05715 z"
         id="path6443" />
    </g>
    <g
       aria-label="0.7"
       transform="scale(-1,1)"
       id="text2620"
       style="font-size:2.11667px;line-height:1.25">
      <path
         d="m -44.507877,77.385505 q 0,0.243417 -0.0508,0.4191 -0.0508,0.173567 -0.160867,0.266701 -0.110066,0.09313 -0.2921,0.09313 -0.256117,0 -0.378884,-0.205317 -0.12065,-0.207434 -0.12065,-0.573617 0,-0.245534 0.04868,-0.419101 0.0508,-0.173567 0.160867,-0.264584 0.110067,-0.09313 0.289984,-0.09313 0.254,0 0.378884,0.205317 0.124883,0.2032 0.124883,0.571501 z m -0.817034,0 q 0,0.31115 0.06985,0.465667 0.07197,0.154517 0.243417,0.154517 0.169334,0 0.2413,-0.1524 0.07408,-0.154517 0.07408,-0.467784 0,-0.309034 -0.07408,-0.463551 -0.07197,-0.154517 -0.2413,-0.154517 -0.17145,0 -0.243417,0.154517 -0.06985,0.154517 -0.06985,0.463551 z"
         id="path6446" />
      <path
         d="m -44.251758,78.028972 q 0,-0.07832 0.0381,-0.110067 0.0381,-0.03175 0.09102,-0.03175 0.05503,0 0.09313,0.03175 0.04022,0.03175 0.04022,0.110067 0,0.0762 -0.04022,0.110067 -0.0381,0.03387 -0.09313,0.03387 -0.05292,0 -0.09102,-0.03387 -0.0381,-0.03387 -0.0381,-0.110067 z"
         id="path6448" />
      <path
         d="m -43.549025,78.143272 0.620184,-1.341968 h -0.814917 V 76.63197 h 1.013884 v 0.143934 l -0.613834,1.367368 z"
         id="path6450" />
    </g>
    <g
       aria-label="0.8"
       transform="scale(-1,1)"
       id="text2624"
       style="font-size:2.11667px;line-height:1.25">
      <path
         d="m -44.506816,79.909148 q 0,0.243417 -0.0508,0.419101 -0.0508,0.173567 -0.160867,0.2667 -0.110067,0.09313 -0.2921,0.09313 -0.256118,0 -0.378884,-0.205317 -0.120651,-0.207434 -0.120651,-0.573618 0,-0.245534 0.04868,-0.419101 0.0508,-0.173566 0.160867,-0.264583 0.110067,-0.09313 0.289984,-0.09313 0.254,0 0.378883,0.205317 0.124884,0.203201 0.124884,0.571501 z m -0.817035,0 q 0,0.311151 0.06985,0.465667 0.07197,0.154517 0.243417,0.154517 0.169333,0 0.2413,-0.1524 0.07408,-0.154517 0.07408,-0.467784 0,-0.309034 -0.07408,-0.463551 -0.07197,-0.154517 -0.2413,-0.154517 -0.171451,0 -0.243417,0.154517 -0.06985,0.154517 -0.06985,0.463551 z"
         id="path6453" />
      <path
         d="m -44.250698,80.552616 q 0,-0.07832 0.0381,-0.110067 0.0381,-0.03175 0.09102,-0.03175 0.05503,0 0.09313,0.03175 0.04022,0.03175 0.04022,0.110067 0,0.0762 -0.04022,0.110067 -0.0381,0.03387 -0.09313,0.03387 -0.05292,0 -0.09102,-0.03387 -0.0381,-0.03387 -0.0381,-0.110067 z"
         id="path6455" />
      <path
         d="m -43.23258,79.134447 q 0.198966,0 0.325967,0.09313 0.127,0.09313 0.127,0.268817 0,0.09102 -0.04022,0.158751 -0.0381,0.06773 -0.103717,0.12065 -0.06562,0.0508 -0.143933,0.09102 0.09313,0.04445 0.169333,0.1016 0.0762,0.05503 0.120651,0.129117 0.04657,0.07408 0.04657,0.1778 0,0.1905 -0.135467,0.302684 -0.13335,0.110067 -0.359833,0.110067 -0.243418,0 -0.374651,-0.105834 -0.131234,-0.10795 -0.131234,-0.300567 0,-0.103717 0.04233,-0.179917 0.04445,-0.0762 0.116417,-0.131234 0.07197,-0.05503 0.154517,-0.09313 -0.110067,-0.0635 -0.188384,-0.1524 -0.0762,-0.09102 -0.0762,-0.230717 0,-0.116417 0.05927,-0.194734 0.05927,-0.08043 0.160866,-0.122767 0.101601,-0.04233 0.230718,-0.04233 z m -0.0021,0.150283 q -0.116417,0 -0.192617,0.05715 -0.07408,0.05503 -0.07408,0.160866 0,0.07832 0.03598,0.131234 0.0381,0.05292 0.1016,0.09102 0.0635,0.03598 0.1397,0.06985 0.110067,-0.04657 0.18415,-0.112184 0.0762,-0.06562 0.0762,-0.179917 0,-0.105833 -0.07408,-0.160866 -0.07408,-0.05715 -0.19685,-0.05715 z m -0.315384,0.999069 q 0,0.110066 0.07832,0.18415 0.07832,0.07197 0.2413,0.07197 0.154517,0 0.234951,-0.07197 0.08255,-0.07408 0.08255,-0.1905 0,-0.110067 -0.08678,-0.182034 -0.08678,-0.07408 -0.230717,-0.129117 l -0.03387,-0.0127 q -0.1397,0.05927 -0.213783,0.137584 -0.07197,0.0762 -0.07197,0.192617 z"
         id="path6457" />
    </g>
    <g
       aria-label="0.9"
       transform="scale(-1,1)"
       id="text2628"
       style="font-size:2.11667px;line-height:1.25">
      <path
         d="m -44.515502,82.389579 q 0,0.243417 -0.0508,0.4191 -0.0508,0.173567 -0.160867,0.266701 -0.110067,0.09313 -0.292101,0.09313 -0.256117,0 -0.378883,-0.205317 -0.120651,-0.207433 -0.120651,-0.573617 0,-0.245534 0.04868,-0.419101 0.0508,-0.173567 0.160867,-0.264584 0.110067,-0.09313 0.289983,-0.09313 0.254001,0 0.378884,0.205317 0.124884,0.2032 0.124884,0.571501 z m -0.817035,0 q 0,0.31115 0.06985,0.465667 0.07197,0.154517 0.243417,0.154517 0.169334,0 0.241301,-0.1524 0.07408,-0.154517 0.07408,-0.467784 0,-0.309034 -0.07408,-0.463551 -0.07197,-0.154517 -0.241301,-0.154517 -0.17145,0 -0.243417,0.154517 -0.06985,0.154517 -0.06985,0.463551 z"
         id="path6460" />
      <path
         d="m -44.259384,83.033046 q 0,-0.07832 0.0381,-0.110067 0.0381,-0.03175 0.09102,-0.03175 0.05503,0 0.09313,0.03175 0.04022,0.03175 0.04022,0.110067 0,0.0762 -0.04022,0.110067 -0.0381,0.03387 -0.09313,0.03387 -0.05292,0 -0.09102,-0.03387 -0.0381,-0.03387 -0.0381,-0.110067 z"
         id="path6462" />
      <path
         d="m -42.743849,82.281629 q 0,0.162983 -0.02963,0.321733 -0.02752,0.156634 -0.103716,0.285751 -0.07408,0.127 -0.211667,0.2032 -0.135467,0.0762 -0.349251,0.0762 -0.04233,0 -0.09948,-0.0063 -0.05503,-0.0042 -0.09102,-0.01482 v -0.15875 q 0.08255,0.02752 0.186267,0.02752 0.148167,0 0.243417,-0.04868 0.09737,-0.04868 0.154517,-0.131234 0.05715,-0.08467 0.08255,-0.194734 0.0254,-0.112183 0.02963,-0.23495 h -0.0127 q -0.04657,0.07197 -0.135467,0.124884 -0.08678,0.0508 -0.224367,0.0508 -0.194733,0 -0.315383,-0.118534 -0.118534,-0.12065 -0.118534,-0.338667 0,-0.15875 0.05927,-0.27305 0.06138,-0.114301 0.169333,-0.175684 0.107951,-0.06138 0.254001,-0.06138 0.143933,0 0.26035,0.07408 0.116417,0.07197 0.18415,0.220134 0.06773,0.14605 0.06773,0.372534 z m -0.512234,-0.510118 q -0.131234,0 -0.215901,0.08678 -0.08255,0.08678 -0.08255,0.264583 0,0.14605 0.06985,0.230717 0.07197,0.08255 0.220134,0.08255 0.1016,0 0.175684,-0.04022 0.07408,-0.04233 0.1143,-0.105834 0.04233,-0.0635 0.04233,-0.131233 0,-0.09102 -0.03598,-0.179917 -0.03598,-0.0889 -0.10795,-0.148167 -0.07197,-0.05927 -0.179917,-0.05927 z"
         id="path6464" />
    </g>
    <path
       id="path2630"
       style="fill:none;fill-opacity:0.166656;stroke:#000000"
       transform="scale(-1,1)"
       d="M -19.221346,61.272068 A 24.900034,24.900036 0 0 1 -44.12138,86.172104 24.900034,24.900036 0 0 1 -69.021414,61.272068 24.900034,24.900036 0 0 1 -44.12138,36.372032 24.900034,24.900036 0 0 1 -19.221346,61.272068 Z" />
    <path
       id="path2632"
       style="fill:none;fill-opacity:0.166656;stroke:#000000"
       transform="scale(-1,1)"
       d="m -16.72138,61.301815 a 27.4,27.399998 0 0 1 -27.4,27.399998 27.4,27.399998 0 0 1 -27.399999,-27.399998 27.4,27.399998 0 0 1 27.399999,-27.399998 27.4,27.399998 0 0 1 27.4,27.399998 z" />
    <path
       id="path2634"
       style="fill:none;fill-opacity:0.166656;stroke:#000000"
       transform="scale(-1,1)"
       d="M -14.243853,61.301815 A 29.900011,29.900011 0 0 1 -44.143864,91.201826 29.900011,29.900011 0 0 1 -74.043875,61.301815 29.900011,29.900011 0 0 1 -44.143864,31.401804 29.900011,29.900011 0 0 1 -14.243853,61.301815 Z" />
    <path
       id="path2636"
       style="fill:none;fill-opacity:0.166656;stroke:#000000"
       transform="scale(-1,1)"
       d="M -11.721375,61.301815 A 32.400005,32.400005 0 0 1 -44.12138,93.70182 32.400005,32.400005 0 0 1 -76.521385,61.301815 32.400005,32.400005 0 0 1 -44.12138,28.90181 32.400005,32.400005 0 0 1 -11.721375,61.301815 Z" />
    <path
       id="path2638"
       style="fill:none;fill-opacity:0.166656;stroke:#000000"
       transform="scale(-1,1)"
       d="M -9.0560341,61.582798 A 34.900002,34.900002 0 0 1 -43.956036,96.4828 34.900002,34.900002 0 0 1 -78.856037,61.582798 34.900002,34.900002 0 0 1 -43.956036,26.682796 34.900002,34.900002 0 0 1 -9.0560341,61.582798 Z" />
    <path
       id="path2640"
       style="fill:none;fill-opacity:0.166656;stroke:#000000"
       transform="scale(-1,1)"
       d="M -6.5560379,61.582798 A 37.399998,37.399998 0 0 1 -43.956036,98.982796 37.399998,37.399998 0 0 1 -81.356033,61.582798 37.399998,37.399998 0 0 1 -43.956036,24.1828 37.399998,37.399998 0 0 1 -6.5560379,61.582798 Z" />
    <g
       aria-label="1.0"
       transform="scale(-1,1)"
       id="text2644"
       style="font-size:2.11667px;line-height:1.25">
      <path
         d="m -44.905805,85.681793 h -0.182034 v -1.056218 q 0,-0.09102 0.0021,-0.14605 0.0021,-0.05503 0.0063,-0.1143 -0.03387,0.03387 -0.06138,0.05715 -0.02752,0.02328 -0.06985,0.05927 l -0.160867,0.131234 -0.09737,-0.124884 0.408517,-0.3175 h 0.154517 z"
         id="path6473" />
      <path
         d="m -44.294086,85.567493 q 0,-0.07832 0.0381,-0.110067 0.0381,-0.03175 0.09102,-0.03175 0.05503,0 0.09313,0.03175 0.04022,0.03175 0.04022,0.110067 0,0.0762 -0.04022,0.110067 -0.0381,0.03387 -0.09313,0.03387 -0.05292,0 -0.09102,-0.03387 -0.0381,-0.03387 -0.0381,-0.110067 z"
         id="path6475" />
      <path
         d="m -42.772201,84.924025 q 0,0.243417 -0.0508,0.419101 -0.0508,0.173567 -0.160867,0.2667 -0.110067,0.09313 -0.292101,0.09313 -0.256117,0 -0.378884,-0.205317 -0.12065,-0.207434 -0.12065,-0.573618 0,-0.245533 0.04868,-0.4191 0.0508,-0.173567 0.160867,-0.264584 0.110067,-0.09313 0.289984,-0.09313 0.254001,0 0.378884,0.205317 0.124884,0.2032 0.124884,0.5715 z m -0.817035,0 q 0,0.311151 0.06985,0.465668 0.07197,0.154517 0.243417,0.154517 0.169334,0 0.241301,-0.152401 0.07408,-0.154516 0.07408,-0.467784 0,-0.309033 -0.07408,-0.46355 -0.07197,-0.154517 -0.241301,-0.154517 -0.17145,0 -0.243417,0.154517 -0.06985,0.154517 -0.06985,0.46355 z"
         id="path6477" />
    </g>
    <g
       aria-label="1.1"
       transform="scale(-1,1)"
       id="text2648"
       style="font-size:2.11667px;line-height:1.25">
      <path
         d="m -44.738809,88.160553 h -0.182034 v -1.056218 q 0,-0.09102 0.0021,-0.146051 0.0021,-0.05503 0.0063,-0.1143 -0.03387,0.03387 -0.06138,0.05715 -0.02752,0.02328 -0.06985,0.05927 l -0.160867,0.131234 -0.09737,-0.124884 0.408517,-0.3175 h 0.154517 z"
         id="path6480" />
      <path
         d="m -44.12709,88.046253 q 0,-0.07832 0.0381,-0.110067 0.0381,-0.03175 0.09102,-0.03175 0.05503,0 0.09313,0.03175 0.04022,0.03175 0.04022,0.110067 0,0.0762 -0.04022,0.110067 -0.0381,0.03387 -0.09313,0.03387 -0.05292,0 -0.09102,-0.03387 -0.0381,-0.03387 -0.0381,-0.110067 z"
         id="path6482" />
      <path
         d="m -42.960806,88.160553 h -0.182034 v -1.056218 q 0,-0.09102 0.0021,-0.146051 0.0021,-0.05503 0.0064,-0.1143 -0.03387,0.03387 -0.06138,0.05715 -0.02752,0.02328 -0.06985,0.05927 l -0.160867,0.131234 -0.09737,-0.124884 0.408517,-0.3175 h 0.154517 z"
         id="path6484" />
    </g>
    <g
       aria-label="1.2"
       transform="scale(-1,1)"
       id="text2652"
       style="font-size:2.11667px;line-height:1.25">
      <path
         d="m -44.88973,90.75869 h -0.182033 v -1.056218 q 0,-0.09102 0.0021,-0.146051 0.0021,-0.05503 0.0064,-0.1143 -0.03387,0.03387 -0.06138,0.05715 -0.02752,0.02328 -0.06985,0.05927 l -0.160867,0.131234 -0.09737,-0.124884 0.408517,-0.3175 h 0.154517 z"
         id="path6487" />
      <path
         d="m -44.278011,90.64439 q 0,-0.07832 0.0381,-0.110067 0.0381,-0.03175 0.09102,-0.03175 0.05503,0 0.09313,0.03175 0.04022,0.03175 0.04022,0.110067 0,0.0762 -0.04022,0.110067 -0.0381,0.03387 -0.09313,0.03387 -0.05292,0 -0.09102,-0.03387 -0.0381,-0.03387 -0.0381,-0.110067 z"
         id="path6489" />
      <path
         d="m -42.762476,90.75869 h -0.999068 v -0.154517 l 0.395817,-0.400051 q 0.1143,-0.1143 0.192617,-0.2032 0.07832,-0.0889 0.118533,-0.173567 0.04022,-0.08678 0.04022,-0.188383 0,-0.124884 -0.07408,-0.188384 -0.07408,-0.06562 -0.192617,-0.06562 -0.110067,0 -0.194734,0.0381 -0.08255,0.0381 -0.169334,0.105834 l -0.09948,-0.124884 q 0.0889,-0.07408 0.2032,-0.124883 0.116417,-0.05292 0.260351,-0.05292 0.211667,0 0.334433,0.10795 0.122767,0.105834 0.122767,0.294217 0,0.118534 -0.04868,0.22225 -0.04868,0.103717 -0.135467,0.205317 -0.08678,0.09948 -0.2032,0.213784 l -0.315384,0.311151 v 0.0085 h 0.764118 z"
         id="path6491" />
    </g>
    <g
       aria-label="1.3"
       transform="scale(-1,1)"
       id="text2656"
       style="font-size:2.11667px;line-height:1.25">
      <path
         d="m -44.890325,93.209892 h -0.182034 v -1.056218 q 0,-0.09102 0.0021,-0.14605 0.0021,-0.05503 0.0063,-0.1143 -0.03387,0.03387 -0.06138,0.05715 -0.02752,0.02328 -0.06985,0.05927 l -0.160867,0.131234 -0.09737,-0.124884 0.408517,-0.3175 h 0.154517 z"
         id="path6494" />
      <path
         d="m -44.278606,93.095592 q 0,-0.07832 0.0381,-0.110067 0.0381,-0.03175 0.09102,-0.03175 0.05503,0 0.09313,0.03175 0.04022,0.03175 0.04022,0.110067 0,0.0762 -0.04022,0.110067 -0.0381,0.03387 -0.09313,0.03387 -0.05292,0 -0.09102,-0.03387 -0.0381,-0.03387 -0.0381,-0.110067 z"
         id="path6496" />
      <path
         d="m -42.820221,92.052074 q 0,0.1524 -0.08467,0.243417 -0.08467,0.0889 -0.228601,0.118533 v 0.0085 q 0.182034,0.02117 0.270934,0.1143 0.0889,0.09313 0.0889,0.243417 0,0.131234 -0.06138,0.234951 -0.06138,0.1016 -0.1905,0.15875 -0.127001,0.05715 -0.328084,0.05715 -0.118534,0 -0.220134,-0.01905 -0.1016,-0.01693 -0.194734,-0.0635 v -0.173567 q 0.09525,0.04657 0.205317,0.07408 0.110067,0.0254 0.211667,0.0254 0.203201,0 0.292101,-0.07832 0.09102,-0.08043 0.09102,-0.220134 0,-0.141817 -0.112184,-0.2032 -0.110067,-0.0635 -0.31115,-0.0635 h -0.146051 v -0.158751 h 0.148167 q 0.186267,0 0.281517,-0.07832 0.09737,-0.07832 0.09737,-0.207434 0,-0.110067 -0.07408,-0.169334 -0.07408,-0.06138 -0.201084,-0.06138 -0.122767,0 -0.20955,0.03598 -0.08678,0.03598 -0.17145,0.09102 l -0.09313,-0.127 q 0.08043,-0.0635 0.198967,-0.110067 0.12065,-0.04657 0.27305,-0.04657 0.237068,0 0.351368,0.105834 0.116417,0.105833 0.116417,0.268817 z"
         id="path6498" />
    </g>
    <g
       aria-label="1.4"
       transform="scale(-1,1)"
       id="text2660"
       style="font-size:2.11667px;line-height:1.25">
      <path
         d="m -44.918672,95.898506 h -0.182034 v -1.056218 q 0,-0.09102 0.0021,-0.14605 0.0021,-0.05503 0.0063,-0.114301 -0.03387,0.03387 -0.06138,0.05715 -0.02752,0.02328 -0.06985,0.05927 l -0.160867,0.131234 -0.09737,-0.124884 0.408517,-0.3175 h 0.154517 z"
         id="path6501" />
      <path
         d="m -44.306953,95.784206 q 0,-0.07832 0.0381,-0.110067 0.0381,-0.03175 0.09102,-0.03175 0.05503,0 0.09313,0.03175 0.04022,0.03175 0.04022,0.110067 0,0.0762 -0.04022,0.110067 -0.0381,0.03387 -0.09313,0.03387 -0.05292,0 -0.09102,-0.03387 -0.0381,-0.03387 -0.0381,-0.110067 z"
         id="path6503" />
      <path
         d="m -42.723685,95.555606 h -0.220134 v 0.3429 h -0.179917 v -0.3429 h -0.723901 v -0.158751 l 0.711201,-1.018118 h 0.192617 v 1.009652 h 0.220134 z m -0.400051,-0.643468 q 0,-0.110067 0.0042,-0.186267 0.0042,-0.07832 0.0063,-0.148167 h -0.0085 q -0.01693,0.04022 -0.04233,0.08678 -0.0254,0.04657 -0.04868,0.07832 l -0.452967,0.645585 h 0.541867 z"
         id="path6505" />
    </g>
    <g
       aria-label="1.5"
       transform="scale(-1,1)"
       id="text2664"
       style="font-size:2.11667px;line-height:1.25">
      <path
         d="m -44.890317,98.478508 h -0.182034 V 97.42229 q 0,-0.09102 0.0021,-0.146051 0.0021,-0.05503 0.0063,-0.1143 -0.03387,0.03387 -0.06138,0.05715 -0.02752,0.02328 -0.06985,0.05927 l -0.160867,0.131234 -0.09737,-0.124884 0.408517,-0.3175 h 0.154517 z"
         id="path6508" />
      <path
         d="m -44.278599,98.364208 q 0,-0.07832 0.0381,-0.110067 0.0381,-0.03175 0.09102,-0.03175 0.05503,0 0.09313,0.03175 0.04022,0.03175 0.04022,0.110067 0,0.0762 -0.04022,0.110067 -0.0381,0.03387 -0.09313,0.03387 -0.05292,0 -0.09102,-0.03387 -0.0381,-0.03387 -0.0381,-0.110067 z"
         id="path6510" />
      <path
         d="m -43.281648,97.551407 q 0.232834,0 0.370417,0.116416 0.137584,0.116417 0.137584,0.328084 0,0.234951 -0.150284,0.370417 -0.148167,0.133351 -0.414867,0.133351 -0.116417,0 -0.220134,-0.02117 -0.1016,-0.02117 -0.17145,-0.06138 v -0.175684 q 0.0762,0.04657 0.18415,0.07408 0.110067,0.0254 0.209551,0.0254 0.167217,0 0.268817,-0.07832 0.103717,-0.08043 0.103717,-0.247651 0,-0.148167 -0.09102,-0.226483 -0.09102,-0.08043 -0.287867,-0.08043 -0.05927,0 -0.135467,0.01058 -0.0762,0.01058 -0.122767,0.02117 l -0.09313,-0.05927 0.05715,-0.713317 h 0.757767 v 0.169333 h -0.599017 l -0.03598,0.438151 q 0.03598,-0.0063 0.09737,-0.01482 0.06138,-0.0085 0.135467,-0.0085 z"
         id="path6512" />
    </g>
  </g>
  <path
     style="color:#000000;fill:none;stroke:#ff0000;stroke-opacity:1;stroke-width:0.00035278;stroke-dasharray:none"
     d="m 9.6035156,97.215954 c 1.5877154,0 2.8750004,1.287284 2.8750004,2.875006 0,1.58772 -1.287285,2.87501 -2.8750004,2.87501 -1.5877154,0 -2.875,-1.28729 -2.875,-2.87501 0,-1.587722 1.2872846,-2.875006 2.875,-2.875006 z m 0,0.0098 c -1.582311,0 -2.8652344,1.282924 -2.8652344,2.865236 0,1.58232 1.2829234,2.86524 2.8652344,2.86524 1.5823114,0 2.8652344,-1.28292 2.8652344,-2.86524 0,-1.582312 -1.282923,-2.865236 -2.8652344,-2.865236 z"
     id="path2666" />
  <path
     style="color:#000000;fill:none;stroke-width:0.00035278;stroke-dasharray:none;stroke:#f80000;stroke-opacity:1"
     d="m 10.813787,6.5005479 c 1.587716,0 2.875001,1.287284 2.875001,2.875 0,1.5877131 -1.287285,2.8750031 -2.875001,2.8750031 -1.5877162,0 -2.8750008,-1.28729 -2.8750008,-2.8750031 0,-1.587716 1.2872846,-2.875 2.8750008,-2.875 z m 0,0.0098 c -1.5823118,0 -2.8652352,1.282924 -2.8652352,2.865235 0,1.5823081 1.2829234,2.8652281 2.8652352,2.8652281 1.582312,0 2.865235,-1.28292 2.865235,-2.8652281 0,-1.582311 -1.282923,-2.865235 -2.865235,-2.865235 z"
     id="path2666-9" />
  <path
     style="color:#000000;fill:none;stroke:#ff0000;stroke-opacity:1;stroke-width:0.00035278;stroke-dasharray:none"
     d="m 77.132517,6.6420053 c 1.587715,0 2.875,1.287284 2.875,2.875 0,1.5877147 -1.287285,2.8750057 -2.875,2.8750057 -1.587716,0 -2.875,-1.287291 -2.875,-2.8750057 0,-1.587716 1.287284,-2.875 2.875,-2.875 z m 0,0.0098 c -1.582311,0 -2.865235,1.282924 -2.865235,2.865235 0,1.5823097 1.282924,2.8652307 2.865235,2.8652307 1.582311,0 2.865234,-1.282921 2.865234,-2.8652307 0,-1.582311 -1.282923,-2.865235 -2.865234,-2.865235 z"
     id="path2666-7" />
  <g
     id="g4804"
     style="stroke-width:0.35277778;stroke-dasharray:none">
    <g
       id="g3297"
       transform="matrix(-1,0,0,1,125.66384,-13.381701)"
       style="stroke-width:0.35277778;stroke-dasharray:none">
      <path
         style="fill:none;stroke:#000000;stroke-width:0.35277778;stroke-linecap:butt;stroke-linejoin:miter;stroke-opacity:1;stroke-dasharray:none"
         d="m 40.881976,22.751407 v 89.777233 m -2.5,-89.777233 h 5 m -4,5 h 3 m -4,5 h 5 m -4,5 h 3 m -4,5 h 5 m -4,5 h 3 m -4,5 h 5 m -4,5 h 3 m -4,5 h 5 m -4,5 h 3 m -4,5 h 5 m -4,5 h 3 m -4,5 h 5 m -4,5 h 3 m -4,5 h 5 m -4,5 h 3 m -4,5.000003 h 5 m -4,5 h 3 m -4,4.77723 h 5"
         id="path2842" />
      <g
         aria-label="cm"
         id="text2960"
         style="font-size:3.52778px;line-height:1.25">
        <path
           d="m 40.523936,22.013738 q 0,0.03175 -0.05997,0.09172 -0.05997,0.05645 -0.15875,0.119945 -0.09525,0.0635 -0.254,0.109361 -0.158751,0.04586 -0.324556,0.04586 -0.345723,0 -0.571501,-0.218722 -0.22225,-0.218723 -0.22225,-0.55739 0,-0.34925 0.229306,-0.575028 0.229306,-0.225778 0.582084,-0.225778 0.328083,0 0.550333,0.194028 v -0.04586 q 0,-0.09878 0.07408,-0.09878 0.07056,0 0.07056,0.09878 v 0.321028 q 0,0.09525 -0.07056,0.09525 -0.0635,0 -0.07408,-0.08467 -0.01058,-0.141111 -0.176389,-0.236361 -0.162277,-0.09878 -0.384528,-0.09878 -0.292805,0 -0.47625,0.183445 -0.179917,0.179917 -0.179917,0.469195 0,0.278694 0.183445,0.458611 0.183444,0.176389 0.472722,0.176389 0.384528,0 0.659695,-0.254 0.03528,-0.03528 0.0635,-0.03528 0.02822,0 0.04586,0.02117 0.02117,0.01764 0.02117,0.04586 z"
           style="font-family:FreeMono;-inkscape-font-specification:FreeMono"
           id="path6515" />
        <path
           d="m 41.148355,20.853098 v 0.183445 q 0.08819,-0.127 0.172861,-0.179917 0.08467,-0.05292 0.197555,-0.05292 0.225778,0 0.342195,0.250473 0.194028,-0.250473 0.398639,-0.250473 0.151695,0 0.261056,0.112889 0.109361,0.112889 0.109361,0.268112 v 0.994834 h 0.119945 q 0.09525,0 0.09525,0.07055 0,0.07408 -0.09525,0.07408 h -0.261056 v -1.125362 q 0,-0.09878 -0.07056,-0.172862 -0.07055,-0.07761 -0.162277,-0.07761 -0.176389,0 -0.36689,0.289278 v 0.941918 h 0.119945 q 0.09525,0 0.09525,0.07055 0,0.07408 -0.09525,0.07408 h -0.261056 v -1.114779 q 0,-0.102306 -0.07055,-0.179917 -0.06703,-0.08114 -0.158751,-0.08114 -0.176389,0 -0.370416,0.289278 v 0.941918 h 0.119944 q 0.09525,0 0.09525,0.07055 0,0.07408 -0.09525,0.07408 h -0.384528 q -0.09172,0 -0.09172,-0.07408 0,-0.07055 0.09525,-0.07055 h 0.119944 v -1.181807 h -0.119944 q -0.09525,0 -0.09525,-0.07408 0,-0.07056 0.09525,-0.07056 z"
           style="font-family:FreeMono;-inkscape-font-specification:FreeMono"
           id="path6517" />
      </g>
      <g
         aria-label="1"
         id="text3150"
         style="font-size:2.82222px;line-height:1.25;font-family:FreeMono;-inkscape-font-specification:FreeMono">
        <path
           d="m 41.780647,33.075707 v 1.611488 h 0.392288 q 0.0762,0 0.0762,0.05644 0,0.05927 -0.0762,0.05927 h -0.900288 q -0.07902,0 -0.07902,-0.05927 0,-0.05644 0.07902,-0.05644 h 0.392289 v -1.459088 l -0.318911,0.318911 q -0.02258,0.02258 -0.05927,0.02258 -0.02258,0 -0.03951,-0.01693 -0.01411,-0.01976 -0.01411,-0.04798 0,-0.0254 0.03104,-0.05645 l 0.372533,-0.372533 z"
           id="path6520" />
      </g>
      <g
         aria-label="2"
         id="text3154"
         style="font-size:2.82222px;line-height:1.25;font-family:FreeMono;-inkscape-font-specification:FreeMono">
        <path
           d="m 41.239853,43.52375 q 0,-0.127 0.1524,-0.270934 0.155222,-0.146755 0.372533,-0.146755 0.206022,0 0.361244,0.146755 0.158045,0.146756 0.158045,0.338667 0,0.127 -0.0762,0.239889 -0.07338,0.110066 -0.3302,0.349955 l -0.584199,0.544688 v 0.0085 h 0.886177 v -0.1016 q 0,-0.0762 0.05927,-0.0762 0.05644,0 0.05644,0.0762 v 0.217311 H 41.183409 V 44.68086 l 0.666044,-0.626533 q 0.197555,-0.194733 0.256822,-0.282222 0.06209,-0.08749 0.06209,-0.183444 0,-0.146756 -0.121356,-0.256822 -0.121355,-0.110067 -0.282222,-0.110067 -0.143933,0 -0.262466,0.08467 -0.115711,0.08467 -0.149578,0.211666 -0.01693,0.05645 -0.05927,0.05645 -0.01976,0 -0.03669,-0.01411 -0.01693,-0.01693 -0.01693,-0.03669 z"
           id="path6523" />
      </g>
      <g
         aria-label="3"
         id="text3158"
         style="font-size:2.82222px;line-height:1.25;font-family:FreeMono;-inkscape-font-specification:FreeMono">
        <path
           d="m 41.283308,53.345084 q 0,-0.03104 0.05362,-0.08749 0.05644,-0.05644 0.1778,-0.110066 0.121356,-0.05644 0.265289,-0.05644 0.211666,0 0.352777,0.126999 0.143934,0.124178 0.143934,0.307622 0,0.163689 -0.09031,0.259645 -0.09031,0.09596 -0.200377,0.124177 0.166511,0.06773 0.259644,0.189089 0.09313,0.118533 0.09313,0.262467 0,0.214488 -0.174977,0.366888 -0.172156,0.149578 -0.414867,0.149578 -0.166511,0 -0.358422,-0.08185 -0.189088,-0.08467 -0.189088,-0.155222 0,-0.01976 0.01693,-0.03669 0.01693,-0.01693 0.03669,-0.01693 0.01976,0 0.07902,0.04516 0.05927,0.04233 0.169333,0.08749 0.110067,0.04233 0.248356,0.04233 0.191911,0 0.330199,-0.118533 0.141111,-0.118534 0.141111,-0.282222 0,-0.166511 -0.149577,-0.285045 -0.149578,-0.121355 -0.3556,-0.121355 -0.0762,0 -0.0762,-0.05927 0,-0.05644 0.0762,-0.05644 0.443089,0 0.443089,-0.310444 0,-0.138289 -0.110067,-0.2286 -0.110067,-0.09313 -0.273755,-0.09313 -0.118534,0 -0.2032,0.03104 -0.08185,0.02822 -0.115711,0.06491 -0.03104,0.03669 -0.06209,0.06773 -0.03104,0.02822 -0.05645,0.02822 -0.02258,0 -0.03951,-0.01411 -0.01693,-0.01693 -0.01693,-0.03951 z"
           id="path6526" />
      </g>
      <g
         aria-label="4"
         id="text3162"
         style="font-size:2.82222px;line-height:1.25;font-family:FreeMono;-inkscape-font-specification:FreeMono">
        <path
           d="m 42.005845,64.190819 v -0.996243 h -0.06773 l -0.587022,0.996243 z m 0,0.115711 h -0.764821 v -0.132644 l 0.643466,-1.095022 h 0.237066 v 1.111955 h 0.09596 q 0.0762,0 0.0762,0.05927 0,0.05644 -0.0762,0.05644 h -0.09596 v 0.361244 h 0.09596 q 0.0762,0 0.0762,0.05645 0,0.05927 -0.0762,0.05927 h -0.426155 q -0.0762,0 -0.0762,-0.05927 0,-0.05645 0.0762,-0.05645 h 0.214488 z"
           id="path6529" />
      </g>
      <g
         aria-label="5"
         id="text3166"
         style="font-size:2.82222px;line-height:1.25;font-family:FreeMono;-inkscape-font-specification:FreeMono">
        <path
           d="m 41.830146,73.783832 q -0.110067,0 -0.197556,0.02822 -0.08749,0.02822 -0.141111,0.05927 -0.05362,0.02822 -0.07902,0.02822 -0.05362,0 -0.05362,-0.06209 v -0.759177 h 0.795866 q 0.07902,0 0.07902,0.05644 0,0.05927 -0.07902,0.05927 h -0.680155 v 0.5588 q 0.206022,-0.08467 0.372533,-0.08467 0.217311,0 0.358422,0.155222 0.141111,0.155222 0.141111,0.392289 0,0.265288 -0.163689,0.437444 -0.160867,0.172155 -0.412044,0.172155 -0.110067,0 -0.220133,-0.03387 -0.107245,-0.03387 -0.180622,-0.07902 -0.07056,-0.04798 -0.115711,-0.09313 -0.04516,-0.04515 -0.04516,-0.06773 0,-0.02258 0.01693,-0.03951 0.01693,-0.01693 0.03951,-0.01693 0.01976,0 0.07902,0.05362 0.05927,0.05362 0.169333,0.107244 0.110066,0.05362 0.251177,0.05362 0.206023,0 0.335845,-0.138289 0.129822,-0.138288 0.129822,-0.361244 0,-0.189088 -0.112889,-0.307622 -0.110067,-0.118533 -0.287866,-0.118533 z"
           id="path6532" />
      </g>
      <g
         aria-label="6"
         id="text3170"
         style="font-size:2.82222px;line-height:1.25;font-family:FreeMono;-inkscape-font-specification:FreeMono">
        <path
           d="m 41.318747,84.298326 q 0.05927,0.2286 0.163688,0.344311 0.104423,0.112888 0.273756,0.112888 0.158044,0 0.262466,-0.124177 0.107245,-0.124178 0.107245,-0.3048 0,-0.166511 -0.107245,-0.287866 -0.104422,-0.121356 -0.251177,-0.121356 -0.07056,0 -0.141111,0.03387 -0.06773,0.03387 -0.110067,0.07055 -0.04233,0.03387 -0.09313,0.104422 -0.04798,0.06773 -0.06209,0.09031 -0.01129,0.02258 -0.04233,0.08185 z m 0.860777,-1.058333 q -0.0085,0 -0.05645,-0.01976 -0.04515,-0.01976 -0.124177,-0.01976 -0.112889,0 -0.231422,0.05362 -0.118534,0.0508 -0.225778,0.146756 -0.107244,0.09596 -0.1778,0.259644 -0.06773,0.163689 -0.06773,0.364066 0,0.01411 0.0056,0.121356 0.172156,-0.344311 0.468489,-0.344311 0.191911,0 0.3302,0.155222 0.141111,0.155222 0.141111,0.369711 0,0.2286 -0.141111,0.386644 -0.141111,0.158044 -0.347133,0.158044 -0.251178,0 -0.409222,-0.234244 -0.158045,-0.234244 -0.158045,-0.603955 0,-0.420511 0.237067,-0.682977 0.239889,-0.265289 0.587022,-0.265289 0.09031,0 0.155222,0.03104 0.06773,0.02822 0.06773,0.06773 0,0.02258 -0.01693,0.03951 -0.01411,0.01693 -0.03669,0.01693 z"
           id="path6535" />
      </g>
      <g
         aria-label="7"
         id="text3174"
         style="font-size:2.82222px;line-height:1.25;font-family:FreeMono;-inkscape-font-specification:FreeMono">
        <path
           d="m 42.161514,93.271315 v -0.0508 h -0.821266 v 0.09878 q 0,0.07902 -0.05645,0.07902 -0.05927,0 -0.05927,-0.07902 v -0.214489 h 1.052688 v 0.183445 l -0.460022,1.464732 q -0.01976,0.05927 -0.05644,0.05927 -0.02258,0 -0.03951,-0.01693 -0.01693,-0.01693 -0.01693,-0.03951 0,-0.01411 0.0056,-0.03669 z"
           id="path6538" />
      </g>
      <g
         aria-label="8"
         id="text3178"
         style="font-size:2.82222px;line-height:1.25;font-family:FreeMono;-inkscape-font-specification:FreeMono">
        <path
           d="m 41.721464,104.01364 q -0.172156,0 -0.293511,0.10725 -0.118533,0.10724 -0.118533,0.26529 0,0.15804 0.118533,0.27093 0.121355,0.11007 0.293511,0.11007 0.169333,0 0.290689,-0.11007 0.121355,-0.11289 0.121355,-0.26811 0,-0.16087 -0.118533,-0.26811 -0.118534,-0.10725 -0.293511,-0.10725 z m 0.270933,-0.69709 q -0.110067,-0.10442 -0.270933,-0.10442 -0.160867,0 -0.273756,0.10442 -0.110066,0.1016 -0.110066,0.25118 0,0.13829 0.110066,0.23707 0.112889,0.096 0.273756,0.096 0.158044,0 0.270933,-0.096 0.112889,-0.096 0.112889,-0.23425 0,-0.14957 -0.112889,-0.254 z m -0.05927,0.64065 q 0.316089,0.14393 0.316089,0.42898 0,0.20602 -0.155222,0.35277 -0.155222,0.14394 -0.372533,0.14394 -0.217311,0 -0.372533,-0.14394 -0.155222,-0.14675 -0.155222,-0.35277 0,-0.28223 0.316088,-0.42898 -0.287866,-0.14676 -0.287866,-0.39511 0,-0.18909 0.146755,-0.32738 0.149578,-0.13829 0.352778,-0.13829 0.2032,0 0.349955,0.13829 0.149578,0.13829 0.149578,0.32738 0,0.24835 -0.287867,0.39511 z"
           id="path6541" />
      </g>
    </g>
  </g>
  <g
     id="g3309"
     transform="matrix(-1,0,0,1,126.06283,-13.395765)"
     style="stroke-width:0.35277778;stroke-dasharray:none">
    <path
       style="fill:none;stroke:#000000;stroke-width:0.35277778;stroke-linecap:butt;stroke-linejoin:miter;stroke-opacity:1;stroke-dasharray:none"
       d="m 122.79842,22.781209 -0.0691,88.614371 m -2.4709,-88.616352 5.08,0.004 m -3.81396,5.077027 2.54,0.002 m -2.54396,5.078018 2.54,0.002 m -2.54396,5.078018 2.54,0.002 m -2.54396,5.078017 2.53999,0.002 m -3.81396,5.077028 5.08,0.004 m -3.81396,5.077027 2.54,0.002 m -2.54396,5.078018 2.54,0.002 m -2.54396,5.078017 2.54,0.002 m -2.54396,5.078018 2.54,0.002 m -3.81396,5.077028 5.08,0.004 m -3.81396,5.077028 2.54,0.002 m -2.54397,5.078018 2.54,0.002 m -2.54396,5.078018 2.54,0.002 m -2.54396,5.078018 2.54,0.002 m -3.81396,5.077027 5.08,0.004 m -3.81396,5.077024 2.54,0.002 m -2.54396,5.07802 2.54,0.002 m -3.81176,2.25143 5.08,0.004"
       id="path2902" />
    <g
       aria-label="in"
       transform="translate(-0.25808083,-0.06365776)"
       id="text3014"
       style="font-size:3.52778px;line-height:1.25;font-family:FreeMono;-inkscape-font-specification:FreeMono;white-space:pre">
      <path
         d="m 121.99187,20.185508 v 0.366889 h -0.20813 v -0.366889 z m 0.007,0.73025 v 1.326446 h 0.56445 q 0.0988,0 0.0988,0.07055 0,0.07408 -0.0988,0.07408 h -1.27353 q -0.0953,0 -0.0953,-0.07408 0,-0.07055 0.0953,-0.07055 h 0.56444 v -1.181807 h -0.41628 q -0.0953,0 -0.0953,-0.07408 0,-0.07056 0.0953,-0.07056 z"
         id="path6544" />
      <path
         d="m 124.11207,21.011009 q -0.0635,0 -0.12347,0.01411 -0.0564,0.01058 -0.10936,0.0388 -0.0494,0.02469 -0.0847,0.04939 -0.0353,0.02117 -0.0776,0.0635 -0.0388,0.04233 -0.0564,0.0635 -0.0141,0.01764 -0.0494,0.0635 -0.0318,0.04233 -0.0353,0.04586 v 0.892529 h 0.15875 q 0.0952,0 0.0952,0.07055 0,0.07408 -0.0952,0.07408 h -0.46214 q -0.0988,0 -0.0988,-0.07408 0,-0.07055 0.0988,-0.07055 h 0.15875 v -1.181807 h -0.11994 q -0.0952,0 -0.0952,-0.07408 0,-0.07056 0.0952,-0.07056 h 0.26458 v 0.243417 q 0.15169,-0.169333 0.26811,-0.229305 0.11642,-0.0635 0.28222,-0.0635 0.23636,0 0.39511,0.137583 0.15875,0.137583 0.15875,0.342195 v 0.896056 h 0.11995 q 0.0953,0 0.0953,0.07055 0,0.07408 -0.0953,0.07408 h -0.38453 q -0.0952,0 -0.0952,-0.07408 0,-0.07055 0.0952,-0.07055 h 0.11995 v -0.871362 q 0,-0.151694 -0.11642,-0.254 -0.11289,-0.105833 -0.30692,-0.105833 z"
         id="path6546" />
    </g>
    <g
       aria-label="1
"
       id="text3266"
       style="font-size:2.82222px;line-height:1.25;font-family:FreeMono;-inkscape-font-specification:FreeMono">
      <path
         d="m 123.76141,48.56791 v 1.611488 h 0.39229 q 0.0762,0 0.0762,0.05644 0,0.05927 -0.0762,0.05927 h -0.90029 q -0.079,0 -0.079,-0.05927 0,-0.05644 0.079,-0.05644 h 0.39229 V 48.72031 l -0.31891,0.318911 q -0.0226,0.02258 -0.0593,0.02258 -0.0226,0 -0.0395,-0.01693 -0.0141,-0.01976 -0.0141,-0.04798 0,-0.0254 0.031,-0.05644 l 0.37254,-0.372533 z"
         id="path6549" />
    </g>
    <g
       aria-label="2"
       id="text3272"
       style="font-size:2.82222px;line-height:1.25;font-family:FreeMono;-inkscape-font-specification:FreeMono">
      <path
         d="m 123.20663,74.40298 q 0,-0.127 0.1524,-0.270933 0.15522,-0.146755 0.37253,-0.146755 0.20602,0 0.36124,0.146755 0.15805,0.146755 0.15805,0.338666 0,0.127 -0.0762,0.239889 -0.0734,0.110067 -0.3302,0.349955 l -0.5842,0.544689 v 0.0085 h 0.88618 v -0.101599 q 0,-0.0762 0.0593,-0.0762 0.0564,0 0.0564,0.0762 v 0.217311 h -1.11196 V 75.56009 l 0.66605,-0.626533 q 0.19755,-0.194733 0.25682,-0.282222 0.0621,-0.08749 0.0621,-0.183444 0,-0.146755 -0.12136,-0.256822 -0.12135,-0.110066 -0.28222,-0.110066 -0.14393,0 -0.26247,0.08467 -0.11571,0.08467 -0.14957,0.211667 -0.0169,0.05644 -0.0593,0.05644 -0.0198,0 -0.0367,-0.01411 -0.0169,-0.01693 -0.0169,-0.03669 z"
         id="path6552" />
    </g>
    <g
       aria-label="3"
       id="text3276"
       style="font-size:2.82222px;line-height:1.25;font-family:FreeMono;-inkscape-font-specification:FreeMono">
      <path
         d="m 123.14874,99.640208 q 0,-0.03104 0.0536,-0.08749 0.0564,-0.05644 0.1778,-0.110067 0.12135,-0.05644 0.26529,-0.05644 0.21166,0 0.35278,0.126999 0.14393,0.124178 0.14393,0.307622 0,0.163689 -0.0903,0.25964 -0.0903,0.096 -0.20038,0.12418 0.16651,0.0677 0.25964,0.18909 0.0931,0.11853 0.0931,0.26247 0,0.21449 -0.17498,0.36689 -0.17216,0.14957 -0.41487,0.14957 -0.16651,0 -0.35842,-0.0818 -0.18909,-0.0847 -0.18909,-0.15522 0,-0.0198 0.0169,-0.0367 0.0169,-0.0169 0.0367,-0.0169 0.0198,0 0.079,0.0451 0.0593,0.0423 0.16933,0.0875 0.11007,0.0423 0.24836,0.0423 0.19191,0 0.3302,-0.11853 0.14111,-0.11853 0.14111,-0.28222 0,-0.16651 -0.14958,-0.28505 -0.14958,-0.12135 -0.3556,-0.12135 -0.0762,0 -0.0762,-0.0593 0,-0.0564 0.0762,-0.0564 0.44309,0 0.44309,-0.310447 0,-0.138289 -0.11007,-0.2286 -0.11007,-0.09313 -0.27375,-0.09313 -0.11854,0 -0.2032,0.03104 -0.0819,0.02822 -0.11572,0.06491 -0.031,0.03669 -0.0621,0.06773 -0.031,0.02822 -0.0564,0.02822 -0.0226,0 -0.0395,-0.01411 -0.0169,-0.01693 -0.0169,-0.03951 z"
         id="path6555" />
    </g>
  </g>
</svg>
